<svg width="1440" height="778" viewBox="0 0 1440 778" fill="none" xmlns="http://www.w3.org/2000/svg">
<g clip-path="url(#clip0)">
<path d="M1293.19 147.637L1311.35 137.137L1293.18 126.667L1275 116.187L1275.02 137.167L1275.03 158.137L1293.19 147.637Z" stroke="#F1F1F1" stroke-width="5" stroke-miterlimit="10" stroke-linecap="round" stroke-linejoin="round"/>
<path d="M90.5409 205.001L110.063 212.677L106.946 191.939L103.831 171.187L87.424 184.263L71.0187 197.325L90.5409 205.001Z" stroke="#F1F1F1" stroke-width="5" stroke-miterlimit="10" stroke-linecap="round" stroke-linejoin="round"/>
<path d="M548.467 688.254L561.709 671.985L541.004 668.657L520.286 665.323L527.762 684.926L535.225 704.523L548.467 688.254Z" stroke="#F1F1F1" stroke-width="5" stroke-miterlimit="10" stroke-linecap="round" stroke-linejoin="round"/>
<path d="M1364.08 453.519L1343.17 454.105" stroke="#F1F1F1" stroke-width="5" stroke-miterlimit="10" stroke-linecap="round" stroke-linejoin="round"/>
<path d="M1353.82 464.266L1353.43 443.358" stroke="#F1F1F1" stroke-width="5" stroke-miterlimit="10" stroke-linecap="round" stroke-linejoin="round"/>
<path d="M223.25 239.967L208 225.657" stroke="#F1F1F1" stroke-width="5" stroke-miterlimit="10" stroke-linecap="round" stroke-linejoin="round"/>
<path d="M208.47 240.437L222.78 225.187" stroke="#F1F1F1" stroke-width="5" stroke-miterlimit="10" stroke-linecap="round" stroke-linejoin="round"/>
<path d="M1193.37 52.0524C1198.38 47.2079 1205.95 56.7607 1212.34 50.5771" stroke="#F1F1F1" stroke-width="5" stroke-miterlimit="10" stroke-linecap="round" stroke-linejoin="round"/>
<path d="M1172.46 72.2461C1177.47 67.4016 1185.04 76.9544 1191.43 70.7708" stroke="#F1F1F1" stroke-width="5" stroke-miterlimit="10" stroke-linecap="round" stroke-linejoin="round"/>
<path d="M1193.45 51.9589C1188.44 56.8034 1197.74 64.6876 1191.34 70.8712" stroke="#F1F1F1" stroke-width="5" stroke-miterlimit="10" stroke-linecap="round" stroke-linejoin="round"/>
<path d="M1172.54 72.1526C1167.53 76.9971 1176.82 84.8814 1170.43 91.0649" stroke="#F1F1F1" stroke-width="5" stroke-miterlimit="10" stroke-linecap="round" stroke-linejoin="round"/>
<path d="M159.366 88.8039C153.095 84.6103 159.804 76.0631 151.8 70.7103" stroke="#F1F1F1" stroke-width="5" stroke-miterlimit="10" stroke-linecap="round" stroke-linejoin="round"/>
<path d="M184.018 104.209C177.748 100.015 184.456 91.4678 176.453 86.1151" stroke="#F1F1F1" stroke-width="5" stroke-miterlimit="10" stroke-linecap="round" stroke-linejoin="round"/>
<path d="M158.503 87.6847C164.773 91.8783 169.321 81.8867 177.325 87.2395" stroke="#F1F1F1" stroke-width="5" stroke-miterlimit="10" stroke-linecap="round" stroke-linejoin="round"/>
<path d="M183.155 103.089C189.425 107.283 193.974 97.2915 201.977 102.644" stroke="#F1F1F1" stroke-width="5" stroke-miterlimit="10" stroke-linecap="round" stroke-linejoin="round"/>
<path d="M398.791 703.581C391.648 706.258 390.555 695.647 381.438 699.064" stroke="#F1F1F1" stroke-width="5" stroke-miterlimit="10" stroke-linecap="round" stroke-linejoin="round"/>
<path d="M426.735 695.568C419.592 698.245 418.499 687.634 409.382 691.051" stroke="#F1F1F1" stroke-width="5" stroke-miterlimit="10" stroke-linecap="round" stroke-linejoin="round"/>
<path d="M397.737 705.206C404.88 702.529 401.327 692.84 410.445 689.423" stroke="#F1F1F1" stroke-width="5" stroke-miterlimit="10" stroke-linecap="round" stroke-linejoin="round"/>
<path d="M425.681 697.193C432.824 694.516 429.271 684.827 438.389 681.41" stroke="#F1F1F1" stroke-width="5" stroke-miterlimit="10" stroke-linecap="round" stroke-linejoin="round"/>
<path d="M1361.25 674.797C1361.25 681.707 1349 680.517 1349 689.337" stroke="#F1F1F1" stroke-width="5" stroke-miterlimit="10" stroke-linecap="round" stroke-linejoin="round"/>
<path d="M1361.25 645.727C1361.25 652.637 1349 651.447 1349 660.267" stroke="#F1F1F1" stroke-width="5" stroke-miterlimit="10" stroke-linecap="round" stroke-linejoin="round"/>
<path d="M1361.25 674.797C1361.25 667.887 1349 669.077 1349 660.257" stroke="#F1F1F1" stroke-width="5" stroke-miterlimit="10" stroke-linecap="round" stroke-linejoin="round"/>
<path d="M1361.25 645.727C1361.25 638.817 1349 640.007 1349 631.187" stroke="#F1F1F1" stroke-width="5" stroke-miterlimit="10" stroke-linecap="round" stroke-linejoin="round"/>
<path d="M318.82 145.097C318.82 153.887 311.7 161.007 302.91 161.007C294.12 161.007 287 153.887 287 145.097C287 136.307 294.12 129.187 302.91 129.187C311.69 129.187 318.82 136.307 318.82 145.097Z" stroke="#F1F1F1" stroke-width="5" stroke-miterlimit="10" stroke-linecap="round" stroke-linejoin="round"/>
<path d="M1411.82 365.097C1411.82 373.887 1404.7 381.007 1395.91 381.007C1387.12 381.007 1380 373.887 1380 365.097C1380 356.307 1387.13 349.187 1395.91 349.187C1404.69 349.177 1411.82 356.307 1411.82 365.097Z" stroke="#EBEBEB" stroke-width="5" stroke-miterlimit="10" stroke-linecap="round" stroke-linejoin="round"/>
<path d="M1363.97 217.264C1360.12 209.503 1363.41 200.147 1371.3 196.367C1379.19 192.586 1388.72 195.802 1392.57 203.562" stroke="#F1F1F1" stroke-width="5" stroke-miterlimit="10" stroke-linecap="round" stroke-linejoin="round"/>
<path d="M62.82 452.673C62.82 461.307 55.7 468.301 46.91 468.301C38.12 468.301 31 461.307 31 452.673C31 444.039 38.12 437.045 46.91 437.045C55.69 437.045 62.82 444.039 62.82 452.673Z" stroke="#F1F1F1" stroke-width="5" stroke-miterlimit="10" stroke-linecap="round" stroke-linejoin="round"/>
<path d="M53.0709 61.9278L34.1453 53.0893" stroke="#F1F1F1" stroke-width="5" stroke-miterlimit="10" stroke-linecap="round" stroke-linejoin="round"/>
<path d="M39.2104 66.8035L48.0058 48.2136" stroke="#F1F1F1" stroke-width="5" stroke-miterlimit="10" stroke-linecap="round" stroke-linejoin="round"/>
<path d="M1184.07 172.923L1165.15 164.084" stroke="#F1F1F1" stroke-width="5" stroke-miterlimit="10" stroke-linecap="round" stroke-linejoin="round"/>
<path d="M1170.21 177.799L1179.01 159.209" stroke="#F1F1F1" stroke-width="5" stroke-miterlimit="10" stroke-linecap="round" stroke-linejoin="round"/>
<path d="M13.9261 287.742L-12 305.573L6.15369 331.04L32.0798 313.208L13.9261 287.742Z" stroke="#F1F1F1" stroke-width="5" stroke-miterlimit="10" stroke-linecap="round" stroke-linejoin="round"/>
<path d="M1381.93 27.4435L1356 45.2751L1374.15 70.7412L1400.08 52.9096L1381.93 27.4435Z" stroke="#F1F1F1" stroke-width="5" stroke-miterlimit="10" stroke-linecap="round" stroke-linejoin="round"/>
<path d="M46 593.224L61.4381 625.017" stroke="#F1F1F1" stroke-width="5" stroke-miterlimit="10" stroke-linecap="round" stroke-linejoin="round"/>
<path d="M116.602 702.816C113.672 704.623 109.802 703.759 107.962 700.881C106.122 698.003 107.002 694.201 109.922 692.394C112.852 690.587 116.722 691.451 118.562 694.329C120.402 697.197 119.522 700.999 116.602 702.816Z" stroke="#F1F1F1" stroke-width="5" stroke-miterlimit="10" stroke-linecap="round" stroke-linejoin="round"/>
</g>
<defs>
<clipPath id="clip0">
<rect width="1440" height="778" fill="white"/>
</clipPath>
</defs>
</svg>
