<svg width="1440" height="647" viewBox="0 0 1440 647" fill="none" xmlns="http://www.w3.org/2000/svg">
<path d="M1235.09 95.27L1240.51 75L1220.26 80.45L1200 85.89L1214.84 100.71L1229.68 115.54L1235.09 95.27Z" stroke="#EBEBEB" stroke-width="5" stroke-miterlimit="10" stroke-linecap="round" stroke-linejoin="round"/>
<path d="M59.1902 566.579L38.3632 564.033L46.5784 583.327L54.7851 602.633L67.3956 585.875L80.0159 569.115L59.1902 566.579Z" stroke="#EBEBEB" stroke-width="5" stroke-miterlimit="10" stroke-linecap="round" stroke-linejoin="round"/>
<path d="M1352.82 142.91C1352.82 151.7 1345.7 158.82 1336.91 158.82C1328.12 158.82 1321 151.7 1321 142.91C1321 134.12 1328.13 127 1336.91 127C1345.69 126.99 1352.82 134.12 1352.82 142.91Z" stroke="#EBEBEB" stroke-width="5" stroke-miterlimit="10" stroke-linecap="round" stroke-linejoin="round"/>
<path d="M66.82 414.91C66.82 423.7 59.7 430.82 50.91 430.82C42.12 430.82 35 423.7 35 414.91C35 406.12 42.13 399 50.91 399C59.69 398.99 66.82 406.12 66.82 414.91Z" stroke="#EBEBEB" stroke-width="5" stroke-miterlimit="10" stroke-linecap="round" stroke-linejoin="round"/>
<path d="M1332.13 569.965C1338.67 573.92 1332.65 582.658 1340.99 587.706" stroke="#EBEBEB" stroke-width="5" stroke-miterlimit="10" stroke-linecap="round" stroke-linejoin="round"/>
<path d="M1306.64 555.99C1313.18 559.944 1307.16 568.674 1315.5 573.721" stroke="#EBEBEB" stroke-width="5" stroke-miterlimit="10" stroke-linecap="round" stroke-linejoin="round"/>
<path d="M1333.13 571.296C1326.6 567.341 1322.84 577.433 1314.5 572.386" stroke="#EBEBEB" stroke-width="5" stroke-miterlimit="10" stroke-linecap="round" stroke-linejoin="round"/>
<path d="M1307.64 557.321C1301.11 553.366 1297.34 563.466 1289 558.411" stroke="#EBEBEB" stroke-width="5" stroke-miterlimit="10" stroke-linecap="round" stroke-linejoin="round"/>
<path d="M186.571 131.886C191.546 127.031 199.191 136.578 205.541 130.38" stroke="#EBEBEB" stroke-width="5" stroke-miterlimit="10" stroke-linecap="round" stroke-linejoin="round"/>
<path d="M165.754 152.177C170.729 147.321 178.367 156.861 184.717 150.663" stroke="#EBEBEB" stroke-width="5" stroke-miterlimit="10" stroke-linecap="round" stroke-linejoin="round"/>
<path d="M186.628 131.818C181.653 136.673 191.004 144.541 184.654 150.739" stroke="#EBEBEB" stroke-width="5" stroke-miterlimit="10" stroke-linecap="round" stroke-linejoin="round"/>
<path d="M165.81 152.108C160.835 156.964 170.193 164.839 163.836 171.029" stroke="#EBEBEB" stroke-width="5" stroke-miterlimit="10" stroke-linecap="round" stroke-linejoin="round"/>
<path d="M1364.25 483.77L1349 469.47" stroke="#EBEBEB" stroke-width="5" stroke-miterlimit="10" stroke-linecap="round" stroke-linejoin="round"/>
<path d="M1349.47 484.25L1363.78 469" stroke="#EBEBEB" stroke-width="5" stroke-miterlimit="10" stroke-linecap="round" stroke-linejoin="round"/>
<path d="M1218.65 492H1187V523.65H1218.65V492Z" stroke="#EBEBEB" stroke-width="5" stroke-miterlimit="10" stroke-linecap="round" stroke-linejoin="round"/>
<path d="M94.2393 57.1097L67.11 73.4106L83.411 100.54L110.54 84.2391L94.2393 57.1097Z" stroke="#EBEBEB" stroke-width="5" stroke-miterlimit="10" stroke-linecap="round" stroke-linejoin="round"/>
<path d="M1415.61 249.571C1412.68 251.411 1408.81 250.531 1406.97 247.601C1405.12 244.671 1406.01 240.801 1408.93 238.961C1411.86 237.121 1415.73 238.001 1417.57 240.931C1419.42 243.861 1418.53 247.731 1415.61 249.571Z" stroke="#EBEBEB" stroke-width="5" stroke-miterlimit="10" stroke-linecap="round" stroke-linejoin="round"/>
<path d="M1364 67.37L1389.36 42" stroke="#EBEBEB" stroke-width="5" stroke-miterlimit="10" stroke-linecap="round" stroke-linejoin="round"/>
<path d="M154.762 569.471L190.599 567.899" stroke="#EBEBEB" stroke-width="5" stroke-miterlimit="10" stroke-linecap="round" stroke-linejoin="round"/>
<path d="M1083 586.91C1083 578.12 1090.13 571 1098.91 571C1107.7 571 1114.82 578.12 1114.82 586.91" stroke="#EBEBEB" stroke-width="5" stroke-miterlimit="10" stroke-linecap="round" stroke-linejoin="round"/>
<path d="M52.7313 222.791C49.0862 214.793 52.6216 205.357 60.611 201.716C68.6096 198.071 78.0411 201.597 81.6863 209.596" stroke="#EBEBEB" stroke-width="5" stroke-miterlimit="10" stroke-linecap="round" stroke-linejoin="round"/>
<path d="M76.0709 304.236L57.1453 295.397" stroke="#EBEBEB" stroke-width="5" stroke-miterlimit="10" stroke-linecap="round" stroke-linejoin="round"/>
<path d="M62.2104 309.112L71.0058 290.522" stroke="#EBEBEB" stroke-width="5" stroke-miterlimit="10" stroke-linecap="round" stroke-linejoin="round"/>
</svg>
