<svg width="1440" height="896" viewBox="0 0 1440 896" fill="none" xmlns="http://www.w3.org/2000/svg">
<g clip-path="url(#clip0)">
<path d="M1187.1 70.7249L1192.51 50.8145L1172.26 56.1678L1152 61.5113L1166.84 76.0683L1181.68 90.6353L1187.1 70.7249Z" stroke="#F1F1F1" stroke-width="5" stroke-miterlimit="10" stroke-linecap="round" stroke-linejoin="round"/>
<path d="M87.0317 395.042L67.0726 388.694L71.4554 408.837L75.8276 428.99L91.4039 415.196L106.99 401.401L87.0317 395.042Z" stroke="#F1F1F1" stroke-width="5" stroke-miterlimit="10" stroke-linecap="round" stroke-linejoin="round"/>
<path d="M1371.64 655.325L1351.52 649.492L1356.44 669.516L1361.35 689.549L1376.55 675.359L1391.76 661.168L1371.64 655.325Z" stroke="#F1F1F1" stroke-width="5" stroke-miterlimit="10" stroke-linecap="round" stroke-linejoin="round"/>
<path d="M1291.82 134.678C1295.4 140.513 1284.32 145.671 1288.89 153.118" stroke="#F1F1F1" stroke-width="5" stroke-miterlimit="10" stroke-linecap="round" stroke-linejoin="round"/>
<path d="M1276.85 110.203C1280.43 116.037 1269.35 121.195 1273.91 128.642" stroke="#F1F1F1" stroke-width="5" stroke-miterlimit="10" stroke-linecap="round" stroke-linejoin="round"/>
<path d="M1291.86 134.713C1288.29 128.879 1278.44 136.046 1273.87 128.599" stroke="#F1F1F1" stroke-width="5" stroke-miterlimit="10" stroke-linecap="round" stroke-linejoin="round"/>
<path d="M1276.89 110.237C1273.31 104.403 1263.47 111.57 1258.9 104.123" stroke="#F1F1F1" stroke-width="5" stroke-miterlimit="10" stroke-linecap="round" stroke-linejoin="round"/>
<path d="M67.9719 821.5C74.5417 823.519 69.6838 834.693 78.0695 837.27" stroke="#F1F1F1" stroke-width="5" stroke-miterlimit="10" stroke-linecap="round" stroke-linejoin="round"/>
<path d="M40.2473 812.914C46.8171 814.933 41.9592 826.107 50.345 828.684" stroke="#F1F1F1" stroke-width="5" stroke-miterlimit="10" stroke-linecap="round" stroke-linejoin="round"/>
<path d="M67.929 821.454C61.3592 819.435 58.7641 831.304 50.3783 828.727" stroke="#F1F1F1" stroke-width="5" stroke-miterlimit="10" stroke-linecap="round" stroke-linejoin="round"/>
<path d="M40.2044 812.868C33.6346 810.849 31.0395 822.718 22.6537 820.14" stroke="#F1F1F1" stroke-width="5" stroke-miterlimit="10" stroke-linecap="round" stroke-linejoin="round"/>
<path d="M36.2246 504.607C41.4342 509.054 32.4887 517.381 39.1382 523.058" stroke="#F1F1F1" stroke-width="5" stroke-miterlimit="10" stroke-linecap="round" stroke-linejoin="round"/>
<path d="M14.2852 485.874C19.4948 490.321 10.5493 498.648 17.1989 504.325" stroke="#F1F1F1" stroke-width="5" stroke-miterlimit="10" stroke-linecap="round" stroke-linejoin="round"/>
<path d="M36.213 504.596C31.0035 500.148 23.8523 510.007 17.2028 504.33" stroke="#F1F1F1" stroke-width="5" stroke-miterlimit="10" stroke-linecap="round" stroke-linejoin="round"/>
<path d="M14.2736 485.862C9.06408 481.415 1.91295 491.273 -4.73657 485.597" stroke="#F1F1F1" stroke-width="5" stroke-miterlimit="10" stroke-linecap="round" stroke-linejoin="round"/>
<path d="M48.4039 159.202C51.1814 152.957 61.8903 158.788 65.4357 150.817" stroke="#F1F1F1" stroke-width="5" stroke-miterlimit="10" stroke-linecap="round" stroke-linejoin="round"/>
<path d="M36.8122 185.388C39.5898 179.143 50.2986 184.974 53.844 177.003" stroke="#F1F1F1" stroke-width="5" stroke-miterlimit="10" stroke-linecap="round" stroke-linejoin="round"/>
<path d="M48.4506 159.159C45.673 165.404 57.3386 169.084 53.7932 177.055" stroke="#F1F1F1" stroke-width="5" stroke-miterlimit="10" stroke-linecap="round" stroke-linejoin="round"/>
<path d="M36.8589 185.345C34.0813 191.59 45.7469 195.27 42.2015 203.241" stroke="#F1F1F1" stroke-width="5" stroke-miterlimit="10" stroke-linecap="round" stroke-linejoin="round"/>
<path d="M1149.97 181.699C1146.12 173.939 1149.41 164.583 1157.3 160.802C1165.19 157.022 1174.72 160.237 1178.57 167.998" stroke="#F1F1F1" stroke-width="5" stroke-miterlimit="10" stroke-linecap="round" stroke-linejoin="round"/>
<path d="M1395.82 71.3535C1395.82 79.9875 1388.7 86.9812 1379.91 86.9812C1371.12 86.9812 1364 79.9875 1364 71.3535C1364 62.7195 1371.12 55.7258 1379.91 55.7258C1388.69 55.7258 1395.82 62.7195 1395.82 71.3535Z" stroke="#F1F1F1" stroke-width="5" stroke-miterlimit="10" stroke-linecap="round" stroke-linejoin="round"/>
<path d="M19.82 715.715C19.82 724.349 12.7 731.343 3.91 731.343C-4.88 731.343 -12 724.349 -12 715.715C-12 707.081 -4.88 700.087 3.91 700.087C12.69 700.087 19.82 707.081 19.82 715.715Z" stroke="#F1F1F1" stroke-width="5" stroke-miterlimit="10" stroke-linecap="round" stroke-linejoin="round"/>
<path d="M151.82 71.3535C151.82 79.9875 144.7 86.9812 135.91 86.9812C127.12 86.9812 120 79.9875 120 71.3535C120 62.7195 127.12 55.7258 135.91 55.7258C144.69 55.7258 151.82 62.7195 151.82 71.3535Z" stroke="#F1F1F1" stroke-width="5" stroke-miterlimit="10" stroke-linecap="round" stroke-linejoin="round"/>
<path d="M1382.09 190.417L1363.16 181.579" stroke="#F1F1F1" stroke-width="5" stroke-miterlimit="10" stroke-linecap="round" stroke-linejoin="round"/>
<path d="M1368.23 195.293L1377.02 176.703" stroke="#F1F1F1" stroke-width="5" stroke-miterlimit="10" stroke-linecap="round" stroke-linejoin="round"/>
<path d="M235.071 98.0679L216.145 89.2294" stroke="#F1F1F1" stroke-width="5" stroke-miterlimit="10" stroke-linecap="round" stroke-linejoin="round"/>
<path d="M221.21 102.944L230.006 84.3538" stroke="#F1F1F1" stroke-width="5" stroke-miterlimit="10" stroke-linecap="round" stroke-linejoin="round"/>
<path d="M1372.65 281.645H1341V312.733H1372.65V281.645Z" stroke="#F1F1F1" stroke-width="5" stroke-miterlimit="10" stroke-linecap="round" stroke-linejoin="round"/>
<path d="M69.4588 596.446L48.4869 619.73L72.1914 640.33L93.1633 617.046L69.4588 596.446Z" stroke="#F1F1F1" stroke-width="5" stroke-miterlimit="10" stroke-linecap="round" stroke-linejoin="round"/>
<path d="M176.594 149.665L145.636 143.201L139.055 173.611L170.014 180.074L176.594 149.665Z" stroke="#F1F1F1" stroke-width="5" stroke-miterlimit="10" stroke-linecap="round" stroke-linejoin="round"/>
<path d="M1380 403.457L1404.68 377.906" stroke="#F1F1F1" stroke-width="5" stroke-miterlimit="10" stroke-linecap="round" stroke-linejoin="round"/>
<path d="M55.1801 281.697L43.5052 315.002" stroke="#F1F1F1" stroke-width="5" stroke-miterlimit="10" stroke-linecap="round" stroke-linejoin="round"/>
<path d="M1329.6 454.101C1326.67 455.909 1322.8 455.044 1320.96 452.166C1319.12 449.288 1320 445.487 1322.92 443.68C1325.85 441.872 1329.72 442.737 1331.56 445.615C1333.4 448.483 1332.52 452.284 1329.6 454.101Z" stroke="#F1F1F1" stroke-width="5" stroke-miterlimit="10" stroke-linecap="round" stroke-linejoin="round"/>
<path d="M54.6017 70.0385C51.6717 71.8458 47.8017 70.9815 45.9617 68.1035C44.1217 65.2255 45.0017 61.4241 47.9217 59.6168C50.8517 57.8094 54.7217 58.6738 56.5617 61.5518C58.4017 64.42 57.5217 68.2213 54.6017 70.0385Z" stroke="#F1F1F1" stroke-width="5" stroke-miterlimit="10" stroke-linecap="round" stroke-linejoin="round"/>
<path d="M260.602 191.839C257.672 193.646 253.802 192.782 251.962 189.903C250.122 187.025 251.002 183.224 253.922 181.417C256.852 179.609 260.722 180.474 262.562 183.352C264.402 186.22 263.522 190.021 260.602 191.839Z" stroke="#F1F1F1" stroke-width="5" stroke-miterlimit="10" stroke-linecap="round" stroke-linejoin="round"/>
<path d="M1388.25 560.223C1388.25 567.011 1376 565.842 1376 574.505" stroke="#F1F1F1" stroke-width="5" stroke-miterlimit="10" stroke-linecap="round" stroke-linejoin="round"/>
<path d="M1388.25 531.669C1388.25 538.457 1376 537.288 1376 545.951" stroke="#F1F1F1" stroke-width="5" stroke-miterlimit="10" stroke-linecap="round" stroke-linejoin="round"/>
<path d="M1388.25 560.223C1388.25 553.436 1376 554.605 1376 545.941" stroke="#F1F1F1" stroke-width="5" stroke-miterlimit="10" stroke-linecap="round" stroke-linejoin="round"/>
<path d="M1388.25 531.669C1388.25 524.882 1376 526.051 1376 517.387" stroke="#F1F1F1" stroke-width="5" stroke-miterlimit="10" stroke-linecap="round" stroke-linejoin="round"/>
<path d="M1381.69 798.523C1376.1 791.861 1377.08 782.009 1383.85 776.524C1390.63 771.032 1400.66 771.98 1406.25 778.642" stroke="#F1F1F1" stroke-width="5" stroke-miterlimit="10" stroke-linecap="round" stroke-linejoin="round"/>
<path d="M103.12 759.53C97.5289 752.868 98.5017 743.016 105.277 737.531C112.059 732.039 122.082 732.987 127.673 739.649" stroke="#F1F1F1" stroke-width="5" stroke-miterlimit="10" stroke-linecap="round" stroke-linejoin="round"/>
<path d="M1324.02 835.418L1303.23 833.158" stroke="#F1F1F1" stroke-width="5" stroke-miterlimit="10" stroke-linecap="round" stroke-linejoin="round"/>
<path d="M1312.52 844.499L1314.73 824.077" stroke="#F1F1F1" stroke-width="5" stroke-miterlimit="10" stroke-linecap="round" stroke-linejoin="round"/>
</g>
<defs>
<clipPath id="clip0">
<rect width="1440" height="896" fill="white"/>
</clipPath>
</defs>
</svg>
