<svg width="1440" height="1196" viewBox="0 0 1440 1196" fill="none" xmlns="http://www.w3.org/2000/svg">
<g clip-path="url(#clip0)">
<path d="M1395.82 78.7086C1395.82 87.3426 1388.7 94.3362 1379.91 94.3362C1371.12 94.3362 1364 87.3426 1364 78.7086C1364 70.0747 1371.12 63.0811 1379.91 63.0811C1388.69 63.0811 1395.82 70.0747 1395.82 78.7086Z" stroke="#F1F1F1" stroke-width="5" stroke-miterlimit="10" stroke-linecap="round" stroke-linejoin="round"/>
<path d="M1241.77 77.6034C1248.44 79.2826 1244.19 90.6857 1252.7 92.829" stroke="#F1F1F1" stroke-width="5" stroke-miterlimit="10" stroke-linecap="round" stroke-linejoin="round"/>
<path d="M1213.63 70.4541C1220.3 72.1333 1216.04 83.536 1224.56 85.6792" stroke="#F1F1F1" stroke-width="5" stroke-miterlimit="10" stroke-linecap="round" stroke-linejoin="round"/>
<path d="M1241.73 77.5608C1235.06 75.8816 1233.1 87.8631 1224.59 85.7197" stroke="#F1F1F1" stroke-width="5" stroke-miterlimit="10" stroke-linecap="round" stroke-linejoin="round"/>
<path d="M1213.59 70.4115C1206.92 68.7324 1204.96 80.7136 1196.44 78.5703" stroke="#F1F1F1" stroke-width="5" stroke-miterlimit="10" stroke-linecap="round" stroke-linejoin="round"/>
<path d="M37.3178 58.3109L48.1427 87.5244L77.884 76.8915L67.059 47.678L37.3178 58.3109Z" stroke="#F1F1F1" stroke-width="5" stroke-miterlimit="10" stroke-linecap="round" stroke-linejoin="round"/>
<path d="M1370.18 334.123L1350.06 328.29L1354.98 348.314L1359.89 368.348L1375.09 354.157L1390.3 339.967L1370.18 334.123Z" stroke="#F1F1F1" stroke-width="5" stroke-miterlimit="10" stroke-linecap="round" stroke-linejoin="round"/>
<path d="M54.764 670.936L36.1644 680.469L53.8633 691.517L71.5615 702.58L72.4622 681.998L73.3703 661.409L54.764 670.936Z" stroke="#F1F1F1" stroke-width="5" stroke-miterlimit="10" stroke-linecap="round" stroke-linejoin="round"/>
<path d="M216.182 178.927L196.06 173.094L200.978 193.118L205.886 213.151L221.09 198.961L236.303 184.77L216.182 178.927Z" stroke="#F1F1F1" stroke-width="5" stroke-miterlimit="10" stroke-linecap="round" stroke-linejoin="round"/>
<path d="M1310.97 169.409C1307.12 161.649 1310.41 152.293 1318.3 148.512C1326.19 144.732 1335.72 147.947 1339.57 155.707" stroke="#F1F1F1" stroke-width="5" stroke-miterlimit="10" stroke-linecap="round" stroke-linejoin="round"/>
<path d="M158.411 116.966C150.877 112.52 148.446 102.914 152.968 95.5218C157.49 88.1293 167.265 85.7281 174.8 90.175" stroke="#F1F1F1" stroke-width="5" stroke-miterlimit="10" stroke-linecap="round" stroke-linejoin="round"/>
<path d="M85.82 829.153C85.82 837.787 78.7 844.781 69.91 844.781C61.12 844.781 54 837.787 54 829.153C54 820.519 61.12 813.526 69.91 813.526C78.69 813.526 85.82 820.519 85.82 829.153Z" stroke="#F1F1F1" stroke-width="5" stroke-miterlimit="10" stroke-linecap="round" stroke-linejoin="round"/>
<path d="M1393.82 1117.94C1393.82 1126.57 1386.7 1133.56 1377.91 1133.56C1369.12 1133.56 1362 1126.57 1362 1117.94C1362 1109.3 1369.12 1102.31 1377.91 1102.31C1386.69 1102.31 1393.82 1109.3 1393.82 1117.94Z" stroke="#F1F1F1" stroke-width="5" stroke-miterlimit="10" stroke-linecap="round" stroke-linejoin="round"/>
<path d="M1366.07 538.599L1347.15 529.76" stroke="#F1F1F1" stroke-width="5" stroke-miterlimit="10" stroke-linecap="round" stroke-linejoin="round"/>
<path d="M1352.21 543.474L1361.01 524.884" stroke="#F1F1F1" stroke-width="5" stroke-miterlimit="10" stroke-linecap="round" stroke-linejoin="round"/>
<path d="M1211.07 1142.69L1192.15 1133.85" stroke="#F1F1F1" stroke-width="5" stroke-miterlimit="10" stroke-linecap="round" stroke-linejoin="round"/>
<path d="M1197.21 1147.56L1206.01 1128.97" stroke="#F1F1F1" stroke-width="5" stroke-miterlimit="10" stroke-linecap="round" stroke-linejoin="round"/>
<path d="M28.0708 1085.72L9.1452 1076.88" stroke="#F1F1F1" stroke-width="5" stroke-miterlimit="10" stroke-linecap="round" stroke-linejoin="round"/>
<path d="M14.2104 1090.59L23.0057 1072" stroke="#F1F1F1" stroke-width="5" stroke-miterlimit="10" stroke-linecap="round" stroke-linejoin="round"/>
<path d="M1384.74 753.608L1355 764.241L1365.82 793.454L1395.57 782.821L1384.74 753.608Z" stroke="#F1F1F1" stroke-width="5" stroke-miterlimit="10" stroke-linecap="round" stroke-linejoin="round"/>
<path d="M-6.02785 925.037L14.5272 948.677L38.594 928.487L18.039 904.847L-6.02785 925.037Z" stroke="#F1F1F1" stroke-width="5" stroke-miterlimit="10" stroke-linecap="round" stroke-linejoin="round"/>
<path d="M-18.467 578.668L-6.1004 607.285L23.0336 595.137L10.6669 566.521L-18.467 578.668Z" stroke="#F1F1F1" stroke-width="5" stroke-miterlimit="10" stroke-linecap="round" stroke-linejoin="round"/>
<path d="M1404.57 215.55L1375.22 227.195L1387.08 256.02L1416.43 244.374L1404.57 215.55Z" stroke="#F1F1F1" stroke-width="5" stroke-miterlimit="10" stroke-linecap="round" stroke-linejoin="round"/>
<path d="M1391 894.865L1407.56 863.621" stroke="#F1F1F1" stroke-width="5" stroke-miterlimit="10" stroke-linecap="round" stroke-linejoin="round"/>
<path d="M58 1017.65L74.5583 986.403" stroke="#F1F1F1" stroke-width="5" stroke-miterlimit="10" stroke-linecap="round" stroke-linejoin="round"/>
<path d="M73.5632 366.812L52.9948 395.666" stroke="#F1F1F1" stroke-width="5" stroke-miterlimit="10" stroke-linecap="round" stroke-linejoin="round"/>
<path d="M1362.6 964.372C1359.67 966.179 1355.8 965.315 1353.96 962.437C1352.12 959.559 1353 955.758 1355.92 953.95C1358.85 952.143 1362.72 953.008 1364.56 955.885C1366.4 958.754 1365.52 962.555 1362.6 964.372Z" stroke="#F1F1F1" stroke-width="5" stroke-miterlimit="10" stroke-linecap="round" stroke-linejoin="round"/>
<path d="M22.6017 772.832C19.6717 774.64 15.8017 773.775 13.9617 770.897C12.1217 768.019 13.0017 764.217 15.9217 762.41C18.8517 760.603 22.7217 761.467 24.5617 764.345C26.4017 767.213 25.5217 771.015 22.6017 772.832Z" stroke="#F1F1F1" stroke-width="5" stroke-miterlimit="10" stroke-linecap="round" stroke-linejoin="round"/>
<path d="M1411.25 654.999C1411.25 661.787 1399 660.618 1399 669.281" stroke="#F1F1F1" stroke-width="5" stroke-miterlimit="10" stroke-linecap="round" stroke-linejoin="round"/>
<path d="M1411.25 626.445C1411.25 633.232 1399 632.063 1399 640.727" stroke="#F1F1F1" stroke-width="5" stroke-miterlimit="10" stroke-linecap="round" stroke-linejoin="round"/>
<path d="M1411.25 654.999C1411.25 648.212 1399 649.38 1399 640.717" stroke="#F1F1F1" stroke-width="5" stroke-miterlimit="10" stroke-linecap="round" stroke-linejoin="round"/>
<path d="M1411.25 626.445C1411.25 619.658 1399 620.826 1399 612.163" stroke="#F1F1F1" stroke-width="5" stroke-miterlimit="10" stroke-linecap="round" stroke-linejoin="round"/>
<path d="M108.67 1126C112.792 1131.47 102.259 1137.66 107.52 1144.64" stroke="#F1F1F1" stroke-width="5" stroke-miterlimit="10" stroke-linecap="round" stroke-linejoin="round"/>
<path d="M91.3788 1103.05C95.5005 1108.51 84.9675 1114.7 90.2285 1121.68" stroke="#F1F1F1" stroke-width="5" stroke-miterlimit="10" stroke-linecap="round" stroke-linejoin="round"/>
<path d="M108.694 1126.02C104.573 1120.55 95.4594 1128.63 90.1985 1121.65" stroke="#F1F1F1" stroke-width="5" stroke-miterlimit="10" stroke-linecap="round" stroke-linejoin="round"/>
<path d="M91.4029 1103.07C87.2813 1097.6 78.1679 1105.68 72.907 1098.7" stroke="#F1F1F1" stroke-width="5" stroke-miterlimit="10" stroke-linecap="round" stroke-linejoin="round"/>
<path d="M107.895 173.554C112.343 178.76 102.207 185.584 107.886 192.229" stroke="#F1F1F1" stroke-width="5" stroke-miterlimit="10" stroke-linecap="round" stroke-linejoin="round"/>
<path d="M89.0914 151.597C93.54 156.804 83.4044 163.627 89.0826 170.273" stroke="#F1F1F1" stroke-width="5" stroke-miterlimit="10" stroke-linecap="round" stroke-linejoin="round"/>
<path d="M107.854 173.529C103.406 168.323 94.8025 176.94 89.1243 170.295" stroke="#F1F1F1" stroke-width="5" stroke-miterlimit="10" stroke-linecap="round" stroke-linejoin="round"/>
<path d="M89.0513 151.573C84.6028 146.367 75.9994 154.984 70.3212 148.339" stroke="#F1F1F1" stroke-width="5" stroke-miterlimit="10" stroke-linecap="round" stroke-linejoin="round"/>
<path d="M1417.08 458.928C1413.72 466.905 1404.4 470.686 1396.29 467.386C1388.17 464.082 1384.32 454.944 1387.68 446.967" stroke="#F1F1F1" stroke-width="5" stroke-miterlimit="10" stroke-linecap="round" stroke-linejoin="round"/>
<path d="M57.5228 260.948C62.8738 267.798 61.5516 277.61 54.586 282.86C47.6124 288.116 37.6293 286.825 32.2783 279.975" stroke="#F1F1F1" stroke-width="5" stroke-miterlimit="10" stroke-linecap="round" stroke-linejoin="round"/>
<path d="M1415.07 1030.44L1394.28 1028.18" stroke="#F1F1F1" stroke-width="5" stroke-miterlimit="10" stroke-linecap="round" stroke-linejoin="round"/>
<path d="M1403.58 1039.52L1405.78 1019.1" stroke="#F1F1F1" stroke-width="5" stroke-miterlimit="10" stroke-linecap="round" stroke-linejoin="round"/>
<path d="M47.0741 472.514L26.2829 470.254" stroke="#F1F1F1" stroke-width="5" stroke-miterlimit="10" stroke-linecap="round" stroke-linejoin="round"/>
<path d="M35.5782 481.595L37.7787 461.173" stroke="#F1F1F1" stroke-width="5" stroke-miterlimit="10" stroke-linecap="round" stroke-linejoin="round"/>
<path d="M243.074 1139.47L222.283 1137.21" stroke="#F1F1F1" stroke-width="5" stroke-miterlimit="10" stroke-linecap="round" stroke-linejoin="round"/>
<path d="M231.578 1148.55L233.779 1128.13" stroke="#F1F1F1" stroke-width="5" stroke-miterlimit="10" stroke-linecap="round" stroke-linejoin="round"/>
</g>
<defs>
<clipPath id="clip0">
<rect width="1440" height="1196" fill="white"/>
</clipPath>
</defs>
</svg>
