<svg width="10" height="6" viewBox="0 0 10 6" fill="none" xmlns="http://www.w3.org/2000/svg">
<path d="M1.76688 0.741642L5.00021 3.97498L8.23355 0.741642C8.3107 0.66449 8.40229 0.60329 8.50309 0.561536C8.6039 0.519782 8.71194 0.498291 8.82105 0.498291C8.93016 0.498291 9.0382 0.519782 9.139 0.561536C9.2398 0.60329 9.3314 0.66449 9.40855 0.741642C9.4857 0.818793 9.5469 0.910386 9.58865 1.01119C9.63041 1.11199 9.6519 1.22003 9.6519 1.32914C9.6519 1.43825 9.63041 1.54629 9.58865 1.64709C9.5469 1.7479 9.4857 1.83949 9.40855 1.91664L5.58355 5.74164C5.50645 5.8189 5.41488 5.88019 5.31407 5.922C5.21326 5.96382 5.10519 5.98535 4.99605 5.98535C4.88691 5.98535 4.77884 5.96382 4.67803 5.922C4.57722 5.88019 4.48564 5.8189 4.40855 5.74164L0.583547 1.91664C0.506294 1.83955 0.445004 1.74797 0.403186 1.64716C0.361369 1.54635 0.339844 1.43828 0.339844 1.32914C0.339844 1.22 0.361369 1.11193 0.403186 1.01112C0.445004 0.91031 0.506294 0.818736 0.583547 0.741642C0.908547 0.424975 1.44188 0.416642 1.76688 0.741642Z" fill="#23CA47"/>
</svg>
