<svg width="22" height="22" viewBox="0 0 22 22" fill="none" xmlns="http://www.w3.org/2000/svg">
    <path d="M21.3642 14.6938C17.1512 13.4255 14.7037 12.6698 14.0184 12.4256C14.676 11.2847 15.1651 10.0546 15.4704 8.7736H11.88V7.5592H16.28V6.8112H11.88V4.7784H10.1904C9.8824 4.7784 9.8472 5.0512 9.8472 5.0512V6.8024H5.72V7.5504H9.8472V8.7648H6.468V9.4424H13.3144C13.0754 10.2729 12.748 11.0754 12.3376 11.836C10.7888 11.3256 9.9264 10.9736 8.0344 10.7976C4.4528 10.4544 3.6256 12.4256 3.4936 13.6312C3.3 15.4704 4.928 16.9664 7.3568 16.9664C9.7856 16.9664 11.4048 15.84 12.9448 13.9744C14.2285 14.5882 16.6166 15.6519 20.1102 17.1666C19.103 18.6561 17.7457 19.8757 16.1573 20.7184C14.569 21.5611 12.7981 22.0012 11 22C4.9247 22 0 17.0753 0 11C0 4.9247 4.9247 0 11 0C17.0753 0 22 4.9247 22 11C22.0013 12.2586 21.7862 13.5081 21.3642 14.6938ZM7.0752 15.8048C4.5056 15.8048 4.1008 14.1768 4.2328 13.4992C4.3648 12.8216 5.1128 11.9416 6.5472 11.9416C8.1928 11.9416 9.6624 12.364 11.4312 13.2176C10.1816 14.8456 8.6592 15.8048 7.0752 15.8048Z" fill="#37B7FF"/>
</svg>
