<svg width="6" height="10" viewBox="0 0 6 10" fill="none" xmlns="http://www.w3.org/2000/svg">
<path d="M5.25811 1.76688L2.02478 5.00021L5.25811 8.23355C5.33527 8.3107 5.39647 8.40229 5.43822 8.50309C5.47997 8.6039 5.50146 8.71194 5.50146 8.82105C5.50146 8.93016 5.47997 9.0382 5.43822 9.139C5.39647 9.2398 5.33527 9.3314 5.25811 9.40855C5.18096 9.4857 5.08937 9.5469 4.98857 9.58865C4.88776 9.63041 4.77972 9.6519 4.67061 9.6519C4.5615 9.6519 4.45346 9.63041 4.35266 9.58865C4.25186 9.5469 4.16027 9.4857 4.08311 9.40855L0.258113 5.58355C0.18086 5.50645 0.119571 5.41488 0.0777528 5.31407C0.0359352 5.21326 0.0144098 5.10519 0.0144098 4.99605C0.0144098 4.88691 0.0359352 4.77884 0.0777529 4.67803C0.119571 4.57722 0.18086 4.48564 0.258113 4.40855L4.08311 0.583547C4.16021 0.506294 4.25178 0.445004 4.35259 0.403186C4.45341 0.361368 4.56147 0.339844 4.67061 0.339844C4.77975 0.339844 4.88782 0.361368 4.98863 0.403186C5.08945 0.445004 5.18102 0.506294 5.25811 0.583547C5.57478 0.908547 5.58311 1.44188 5.25811 1.76688Z" fill="#363636"/>
</svg>
