<svg width="8" height="6" viewBox="0 0 8 6" fill="none" xmlns="http://www.w3.org/2000/svg">
<path d="M1.41336 1.19322L4.00003 3.77988L6.58669 1.19322C6.64841 1.13149 6.72169 1.08253 6.80233 1.04913C6.88297 1.01573 6.9694 0.998535 7.05669 0.998535C7.14398 0.998535 7.23041 1.01573 7.31105 1.04913C7.3917 1.08253 7.46497 1.13149 7.52669 1.19322C7.58841 1.25494 7.63737 1.32821 7.67078 1.40885C7.70418 1.4895 7.72137 1.57593 7.72137 1.66322C7.72137 1.7505 7.70418 1.83694 7.67078 1.91758C7.63737 1.99822 7.58841 2.07149 7.52669 2.13322L4.46669 5.19322C4.40502 5.25502 4.33176 5.30405 4.25111 5.3375C4.17046 5.37096 4.084 5.38818 3.99669 5.38818C3.90938 5.38818 3.82292 5.37096 3.74228 5.3375C3.66163 5.30405 3.58837 5.25502 3.52669 5.19322L0.466691 2.13322C0.404889 2.07154 0.355857 1.99828 0.322403 1.91763C0.288948 1.83698 0.271729 1.75053 0.271729 1.66322C0.271729 1.5759 0.288948 1.48945 0.322403 1.4088C0.355857 1.32815 0.404889 1.25489 0.466691 1.19322C0.726691 0.939882 1.15336 0.933216 1.41336 1.19322Z" fill="#838383"/>
</svg>
