<svg width="12" height="8" viewBox="0 0 12 8" fill="none" xmlns="http://www.w3.org/2000/svg">
<path d="M2.12004 1.29L6.00004 5.17L9.88004 1.29C9.97262 1.19742 10.0825 1.12398 10.2035 1.07387C10.3245 1.02377 10.4541 0.997978 10.585 0.997978C10.716 0.997978 10.8456 1.02377 10.9666 1.07387C11.0875 1.12398 11.1975 1.19742 11.29 1.29C11.3826 1.38258 11.4561 1.49249 11.5062 1.61346C11.5563 1.73442 11.5821 1.86407 11.5821 1.995C11.5821 2.12593 11.5563 2.25558 11.5062 2.37654C11.4561 2.49751 11.3826 2.60742 11.29 2.7L6.70004 7.29C6.60752 7.3827 6.49763 7.45625 6.37666 7.50643C6.25569 7.55661 6.12601 7.58244 5.99504 7.58244C5.86407 7.58244 5.73439 7.55661 5.61341 7.50643C5.49244 7.45625 5.38255 7.3827 5.29004 7.29L0.700037 2.7C0.607333 2.60749 0.533785 2.4976 0.483604 2.37662C0.433422 2.25565 0.407593 2.12597 0.407593 1.995C0.407593 1.86403 0.433422 1.73435 0.483604 1.61337C0.533785 1.4924 0.607333 1.38251 0.700037 1.29C1.09004 0.909999 1.73004 0.899999 2.12004 1.29Z" fill="#CCCCCC"/>
</svg>
