<svg width="10" height="6" viewBox="0 0 10 6" fill="none" xmlns="http://www.w3.org/2000/svg">
<path d="M1.76664 0.741672L4.99997 3.97501L8.2333 0.741672C8.31046 0.664521 8.40205 0.603321 8.50285 0.561567C8.60365 0.519813 8.71169 0.498322 8.8208 0.498322C8.92991 0.498322 9.03795 0.519813 9.13876 0.561567C9.23956 0.603321 9.33115 0.664521 9.4083 0.741672C9.48546 0.818824 9.54665 0.910416 9.58841 1.01122C9.63016 1.11202 9.65165 1.22006 9.65165 1.32917C9.65165 1.43828 9.63016 1.54632 9.58841 1.64712C9.54665 1.74793 9.48546 1.83952 9.4083 1.91667L5.5833 5.74167C5.50621 5.81893 5.41463 5.88022 5.31382 5.92203C5.21301 5.96385 5.10494 5.98538 4.9958 5.98538C4.88666 5.98538 4.77859 5.96385 4.67778 5.92203C4.57697 5.88022 4.4854 5.81893 4.4083 5.74167L0.583303 1.91667C0.50605 1.83958 0.44476 1.748 0.402942 1.64719C0.361124 1.54638 0.3396 1.43831 0.3396 1.32917C0.3396 1.22003 0.361124 1.11196 0.402942 1.01115C0.44476 0.910341 0.50605 0.818767 0.583303 0.741672C0.908303 0.425006 1.44164 0.416672 1.76664 0.741672Z" fill="#363636"/>
</svg>
