<svg width="6" height="10" viewBox="0 0 6 10" fill="none" xmlns="http://www.w3.org/2000/svg">
<path d="M0.741398 8.23312L3.97473 4.99979L0.741398 1.76645C0.664246 1.6893 0.603046 1.59771 0.561292 1.49691C0.519538 1.3961 0.498047 1.28806 0.498047 1.17895C0.498047 1.06984 0.519538 0.961803 0.561292 0.861C0.603046 0.760197 0.664246 0.668603 0.741398 0.591452C0.818549 0.5143 0.910142 0.453101 1.01095 0.411347C1.11175 0.369593 1.21979 0.348103 1.3289 0.348103C1.43801 0.348103 1.54605 0.369593 1.64685 0.411347C1.74765 0.453101 1.83925 0.5143 1.9164 0.591452L5.7414 4.41645C5.81865 4.49355 5.87994 4.58512 5.92176 4.68593C5.96358 4.78674 5.9851 4.89481 5.9851 5.00395C5.9851 5.11309 5.96358 5.22116 5.92176 5.32197C5.87994 5.42278 5.81865 5.51436 5.7414 5.59145L1.9164 9.41645C1.8393 9.49371 1.74773 9.555 1.64692 9.59681C1.54611 9.63863 1.43804 9.66016 1.3289 9.66016C1.21976 9.66016 1.11169 9.63863 1.01088 9.59681C0.910066 9.555 0.818492 9.49371 0.741398 9.41645C0.424731 9.09145 0.416398 8.55812 0.741398 8.23312Z" fill="white"/>
</svg>
