<svg width="141" height="41" viewBox="0 0 141 41" fill="none" xmlns="http://www.w3.org/2000/svg">
<g clip-path="url(#clip0)">
<path fill-rule="evenodd" clip-rule="evenodd" d="M97.4605 29.9262C95.3455 32.194 92.6293 33.3458 89.3889 33.3458C86.1472 33.3458 83.431 32.194 81.3173 29.9262C79.2984 27.766 78.1384 24.3117 78.1384 20.4526C78.1384 16.6857 79.3112 13.2789 81.3519 11.1033C83.4874 8.8355 86.1907 7.67853 89.3863 7.66956C92.587 7.67853 95.2904 8.8355 97.4246 11.1033C99.4678 13.2789 100.638 16.6857 100.638 20.4526C100.638 24.3117 99.4793 27.766 97.4605 29.9262ZM69.081 20.4526C69.081 20.6268 69.0887 20.7985 69.0938 20.9702C65.8509 18.0195 61.162 16.9215 58.2971 16.3488C52.9968 15.2315 48.9475 14.2091 48.9475 10.4371C48.9475 7.77591 51.3317 5.83994 55.9116 6.17178C60.0968 6.47544 61.8593 9.03281 62.3425 11.5005C62.4117 11.9054 62.5989 12.2001 63.0603 12.2039L70.5872 12.268C70.6231 12.268 70.6538 12.2641 70.6859 12.2616C69.6245 14.7357 69.081 17.4903 69.081 20.4526ZM56.2795 34.2927C52.6391 34.2927 48.6283 32.9999 47.7041 27.9979C47.626 27.52 47.4004 27.3227 47.0338 27.3124L39.7569 27.215V14.3577C40.7131 18.1258 43.8805 20.7345 50.7305 22.2758C55.3156 23.3726 63.2693 24.0696 63.2693 28.7743C63.2693 32.0543 60.853 34.3695 56.2795 34.2927ZM20.0348 33.3509C14.1641 33.3509 8.78558 28.732 8.78558 20.4577C8.78558 13.9656 12.8182 7.67469 20.0733 7.67469C23.2163 7.67469 31.1854 8.75094 31.1854 20.4577C31.1854 32.1953 22.8651 33.3509 20.0335 33.3509H20.0348ZM109.479 17.2994C111.149 19.5262 114.164 21.1752 119.062 22.2771C123.645 23.3738 131.6 24.0708 131.6 28.7756C131.6 32.0556 129.183 34.3708 124.611 34.2939C120.972 34.2939 116.958 33.0012 116.035 27.9992C115.958 27.5213 115.733 27.3239 115.365 27.3137L108.623 27.224C109.334 25.1266 109.697 22.8549 109.697 20.4539C109.696 19.3987 109.624 18.3447 109.479 17.2994ZM124.113 40.8411C132.188 40.8411 141.704 37.8366 140.959 28.0914C140.136 19.4404 131.13 17.2495 126.628 16.35C121.327 15.2328 117.277 14.2103 117.277 10.4383C117.277 7.77719 119.662 5.84122 124.243 6.17306C128.428 6.47672 130.19 9.03409 130.674 11.5018C130.743 11.9067 130.931 12.2013 131.391 12.2052L138.918 12.2692C139.491 12.2731 139.669 11.9758 139.598 11.5684C138.124 2.55097 130.587 0 123.651 0C116.725 0 108.38 1.94494 107.788 10.5562C107.768 10.8893 107.76 11.2173 107.76 11.5389C106.658 9.24806 105.068 7.14425 103.02 5.28131C99.2384 1.87319 94.5238 0.0474062 89.3825 0.0025625H89.212C86.756 0.0025625 84.3526 0.454844 82.0671 1.35172C79.744 2.27018 77.6065 3.60153 75.758 5.28131C73.8186 7.04431 72.2869 9.02256 71.1922 11.1712C69.5617 2.4805 62.1502 0 55.3181 0C48.9603 0 41.4053 1.64384 39.7569 8.58437V1.69509C39.7565 1.51862 39.6862 1.34948 39.5612 1.22481C39.4362 1.10014 39.2669 1.03012 39.0903 1.03013H32.0019C31.8253 1.03046 31.6561 1.10081 31.5314 1.22572C31.4067 1.35063 31.3366 1.5199 31.3366 1.69638V3.55419C31.3366 3.86681 31.1277 3.97572 30.8726 3.79378C28.3513 1.96544 24.6212 0.00384375 20.1322 0.00384375C17.6096 0.00384375 15.2011 0.447156 12.972 1.32097C10.7416 2.19734 8.62151 3.53112 6.67571 5.28644C4.46073 7.30056 2.77385 9.59656 1.66765 12.1104C0.561436 14.6242 0 17.4327 0 20.4564C0 23.279 0.497345 25.9261 1.47665 28.3182C2.45596 30.7103 3.94672 32.923 5.90918 34.8961C7.87036 36.8693 10.0648 38.3683 12.4272 39.3549C14.7896 40.3376 17.393 40.836 20.1694 40.836C24.9403 40.836 28.5205 38.8052 30.8662 36.9589C31.1251 36.7616 31.3366 36.868 31.3366 37.1908V39.1422C31.3366 39.5086 31.6366 39.8084 32.0032 39.8084H39.0916C39.2681 39.8078 39.4371 39.7373 39.5617 39.6125C39.6864 39.4876 39.7565 39.3186 39.7569 39.1422V32.5694C43.0986 40.4234 51.6137 40.8398 55.7822 40.8398C62.7501 40.8398 70.7859 38.5977 72.3804 31.7199C73.147 32.8582 74.0214 33.9201 74.9915 34.891C78.7908 38.713 83.7694 40.7681 89.3953 40.8296H89.626C92.2973 40.8296 94.8751 40.3171 97.2874 39.3036C99.723 38.2743 101.931 36.7748 103.786 34.891C105.174 33.5083 106.359 31.9365 107.306 30.2221C109.833 40.3478 119.564 40.8398 124.113 40.8398V40.8411Z" fill="#0B0B0A"/>
</g>
<defs>
<clipPath id="clip0">
<rect width="141" height="41" fill="white"/>
</clipPath>
</defs>
</svg>
