<svg width="129" height="76" viewBox="0 0 129 76" fill="none" xmlns="http://www.w3.org/2000/svg">
<path d="M0 0.94165V33.7507H17.0424C23.7501 33.7507 29.9489 31.3777 29.9489 24.4071C29.9489 19.6947 26.581 17.5436 22.8767 16.4176C25.1336 15.5051 27.6939 13.5881 27.6939 9.5695C27.6939 4.42605 22.6308 0.94165 15.8141 0.94165H0ZM10.4404 8.58291H14.2787C15.8413 8.58291 17.0328 9.81662 17.0328 11.0687C17.0328 12.2321 15.7947 13.4772 14.2787 13.4772H10.4404V8.58291ZM10.4404 20.2866H15.507C17.2758 20.2866 18.76 21.6407 18.76 23.1883C18.76 24.8318 17.3719 26.1965 15.2 26.1965H10.4404V20.2866Z" fill="#1C252C"/>
<path d="M8.44446 37.3293V70.1384H25.4868C32.1946 70.1384 38.3934 67.7653 38.3934 60.7948C38.3934 56.0824 35.0255 53.9313 31.3212 52.8053C33.5781 51.8928 36.1383 49.9758 36.1383 45.9572C36.1383 40.8137 31.0753 37.3293 24.2585 37.3293H8.44446ZM18.8848 44.9706H22.7232C24.2857 44.9706 25.4772 46.2043 25.4772 47.4564C25.4772 48.6198 24.2392 49.8649 22.7232 49.8649H18.8848V44.9706ZM18.8848 56.6743H23.9515C25.7202 56.6743 27.2045 58.0284 27.2045 59.576C27.2045 61.2195 25.8163 62.5842 23.6444 62.5842H18.8848V56.6743Z" fill="#1C252C"/>
<path d="M30.7684 33.7465V0.9375H57.0229V8.8612H41.1781V13.1635H54.0443V20.592H41.1781V25.8538H57.0229V33.7465H30.7684Z" fill="#1C252C"/>
<path d="M71.2452 34.6858C78.6353 34.6858 84.5465 30.4368 84.5465 23.5512C84.5465 12.4387 70.2046 14.1487 70.2046 10.6888C70.2046 9.35233 71.599 8.6431 73.029 8.6431C75.4934 8.6431 77.274 10.2797 77.274 10.2797L83.4442 4.35772C80.9763 1.99034 77.0787 0 71.8282 0C63.9427 0 58.7839 4.71748 58.7839 10.4082C58.7839 21.6619 72.919 20.0286 72.919 23.5597C72.919 24.7975 71.7376 26.0427 69.5948 26.0427C67.162 26.0427 65.2348 24.5624 63.7349 23.3064L57.5286 29.2706C60.0277 31.7243 64.0399 34.6858 71.2452 34.6858Z" fill="#1C252C"/>
<path d="M92.5816 33.7465V8.83024H83.9836V0.9375H111.62V8.83024H103.022V33.7465H92.5816Z" fill="#1C252C"/>
<path d="M38.7522 37.3062H49.1619V56.9606C49.1619 58.9565 51.1325 60.7957 53.187 60.7957C55.1252 60.7957 57.0843 59.1348 57.0843 56.8557V37.3062H67.4632V56.7219C67.4632 64.4262 61.1173 70.5718 52.912 70.5718C44.6599 70.5718 38.7522 63.8836 38.7522 56.3022V37.3062Z" fill="#1C252C"/>
<path d="M80.2988 70.1152V58.3916L68.0638 37.3062H78.596L85.519 48.6036L92.4659 37.3062H103.022L90.7392 58.5121V70.1152H80.2988Z" fill="#1C252C"/>
<path d="M103.022 55.2622L96.8805 61.4526V69.8096L103.022 76H129V55.2622H103.022Z" fill="#FFED31"/>
<path d="M102.013 65.6272C102.013 66.3964 101.395 67.02 100.631 67.02C99.8683 67.02 99.2496 66.3964 99.2496 65.6272C99.2496 64.858 99.8683 64.2344 100.631 64.2344C101.395 64.2344 102.013 64.858 102.013 65.6272Z" fill="#1C252C"/>
</svg>
