<svg width="20" height="20" viewBox="0 0 20 20" fill="none" xmlns="http://www.w3.org/2000/svg">
<path d="M18.4211 0H1.57895C0.706947 0 0 0.706947 0 1.57895V5.68316C0 6.55516 0.706947 7.2621 1.57895 7.2621C2.45095 7.2621 3.15789 6.55516 3.15789 5.68316V3.15789H8.42105V16.8421H5.98274C5.11074 16.8421 4.40379 17.5491 4.40379 18.4211C4.40379 19.2931 5.11074 20 5.98274 20H14.0173C14.8893 20 15.5962 19.2931 15.5962 18.4211C15.5962 17.5491 14.8893 16.8421 14.0173 16.8421H11.5789V3.15789H16.8421V5.68316C16.8421 6.55516 17.5491 7.2621 18.4211 7.2621C19.2931 7.2621 20 6.55516 20 5.68316V1.57895C20 0.706947 19.2931 0 18.4211 0Z" fill="white"/>
</svg>
