<svg width="22" height="22" viewBox="0 0 22 22" fill="none" xmlns="http://www.w3.org/2000/svg">
<path d="M2.42386 7.22079L2.43884 7.31966L2.42386 7.22079C1.74714 7.32332 1.19778 7.80808 0.987972 8.4812C0.778269 9.15397 0.949583 9.88005 1.43698 10.3754L1.50826 10.3053L1.43698 10.3754L4.92903 13.9239L4.1045 18.9356C3.98983 19.6325 4.25947 20.3259 4.81081 20.7435C5.36291 21.1618 6.08292 21.2161 6.68753 20.8847L11 18.5213L15.3124 20.8847C15.5749 21.0286 15.8596 21.1 16.1434 21.1C16.5121 21.1 16.8776 20.9794 17.189 20.7435C17.7404 20.3259 18.0099 19.6325 17.8954 18.9355L17.0708 13.9239L20.5629 10.3754L20.4916 10.3053L20.5629 10.3754C21.0503 9.88005 21.2216 9.15397 21.0119 8.4812C20.8021 7.80808 20.2527 7.32332 19.576 7.22079L14.7534 6.49023L12.596 1.93307C12.2953 1.29779 11.6841 0.9 10.9999 0.9C10.3157 0.9 9.70454 1.2978 9.40387 1.93307L7.24641 6.49023L2.42386 7.22079ZM4.93495 13.888L4.93486 13.8885L4.93495 13.888ZM4.95458 13.9499C4.9545 13.9498 4.95443 13.9497 4.95435 13.9497L4.95446 13.9498L4.95458 13.9499ZM15.2394 14.212L15.2394 14.212L16.0457 19.113L11.8291 16.802L11.8291 16.8019C11.31 16.5176 10.6897 16.5176 10.1704 16.8019L10.1704 16.802L5.95385 19.1129L6.76017 14.2119C6.85866 13.6132 6.6686 13.0018 6.24987 12.5762L6.24986 12.5762L2.83059 9.10153L7.55236 8.38624C8.1336 8.29822 8.63378 7.91829 8.89203 7.37268C8.89203 7.37268 8.89203 7.37268 8.89203 7.37268L10.9999 2.9202L13.1077 7.37268L13.1077 7.37269C13.3661 7.91826 13.8661 8.29831 14.4474 8.38624C14.4474 8.38624 14.4474 8.38625 14.4474 8.38625L19.1692 9.10153L15.7497 12.5763L15.7497 12.5763C15.3311 13.0018 15.141 13.6133 15.2394 14.212ZM11 2.82208C10.9995 2.8221 10.9995 2.82208 10.9999 2.82208C10.9999 2.82208 11 2.82208 11 2.82208Z" fill="white" stroke="white" stroke-width="0.2"/>
</svg>
