<svg width="101" height="101" viewBox="0 0 101 101" fill="none" xmlns="http://www.w3.org/2000/svg">
<g clip-path="url(#clip0)">
<path fill-rule="evenodd" clip-rule="evenodd" d="M50.2095 0.496338C22.5952 0.496338 0.209473 22.8821 0.209473 50.4963C0.209473 78.1106 22.5952 100.496 50.2095 100.496C77.8238 100.496 100.209 78.1106 100.209 50.4963C100.209 22.8821 77.8238 0.496338 50.2095 0.496338Z" fill="#00C4CC"/>
<path fill-rule="evenodd" clip-rule="evenodd" d="M83.6381 51.9249C83.0667 51.9249 82.0667 51.7821 82.0667 51.2107C82.0667 50.6392 83.3524 50.9249 83.2096 49.6392C83.0667 48.7821 82.2096 48.4964 81.3524 48.4964C78.4953 48.4964 76.6381 52.2107 77.0667 55.2107C77.2096 56.3535 77.781 57.6392 78.9238 57.6392C79.781 57.6392 81.0667 56.3535 81.6381 54.4964C81.9238 53.3535 83.0667 52.3535 84.0667 52.3535C84.4953 52.3535 84.781 52.4964 84.9238 53.0678C84.9238 53.3535 84.9238 53.9249 84.3524 55.7821C83.6381 57.0678 83.6381 57.7821 83.781 58.3535C83.9238 59.4964 84.4953 60.3535 85.0667 60.7821C85.2096 60.9249 85.3524 61.2107 85.3524 61.2107C85.3524 61.4964 85.2096 61.7821 84.781 61.7821C84.6381 61.7821 84.4953 61.7821 84.3524 61.6392C82.2096 60.7821 81.3524 59.3535 81.0667 57.9249C80.2096 58.9249 79.2096 59.4964 78.0667 59.4964C76.2096 59.4964 74.3524 57.7821 74.0667 55.6392C73.9667 54.7792 74.0953 53.8535 74.3767 52.9349C73.5296 53.4778 72.6196 53.7821 71.7824 53.7821H71.0681C69.211 56.4964 67.211 58.3535 65.7824 59.2107C65.211 59.4964 64.6396 59.6392 64.211 59.6392C63.9253 59.6392 63.4967 59.4964 63.3538 59.2107C62.961 58.5764 62.7053 57.5735 62.5496 56.4292C60.5453 58.6249 57.7781 59.7821 56.4981 59.7821C55.0696 59.7821 54.2124 58.9249 54.0696 57.4964V55.9249C54.4981 52.7821 55.641 50.9249 55.641 50.3535C55.641 50.2107 55.4981 50.0678 55.3553 50.0678C54.3553 50.0678 51.0696 53.4964 50.4981 55.7821L50.0696 57.6392C49.7838 58.9249 48.4981 59.7821 47.641 59.7821C47.2124 59.7821 46.9267 59.6392 46.7838 59.0678V58.4964L46.9781 57.5249C45.1667 58.8164 43.3496 59.6392 42.4996 59.6392C41.2138 59.6392 40.4996 58.9249 40.3567 57.9249C39.4996 59.0678 38.4996 59.6392 37.2138 59.6392C35.7481 59.6392 34.3138 58.6392 33.621 57.1721C32.6067 58.3149 31.4453 59.4721 30.0738 60.3549C28.0738 61.6407 25.7881 62.6407 23.0738 62.6407C20.6453 62.6407 18.5024 61.3549 17.3596 60.2121C15.6453 58.6407 14.6453 56.2121 14.5024 53.9264C13.6453 46.9264 17.931 37.9264 24.5024 33.9264C26.0738 33.0692 27.6453 32.4978 29.2167 32.4978C32.3596 32.4978 34.7881 34.7835 35.0738 37.4978C35.3596 39.9264 34.3596 42.0692 31.6453 43.3549C30.2167 44.0692 29.6453 44.0692 29.3596 43.6407C29.2167 43.3549 29.3596 43.0692 29.6453 42.7835C32.2167 40.6407 32.2167 38.9264 31.931 36.4978C31.7881 34.9264 30.6453 33.9264 29.5024 33.9264C24.5024 33.9264 17.3596 45.0692 18.3596 53.2121C18.7881 56.3549 20.6453 60.0692 24.6453 60.0692C25.931 60.0692 27.3596 59.6407 28.6453 59.0692C30.731 57.9692 31.9738 57.1121 33.2167 55.7407C32.9124 52.0507 36.151 47.2121 40.931 47.2121C43.0738 47.2121 44.7881 48.0692 44.931 49.6407C45.2167 51.7835 43.3596 52.0692 42.7881 52.0692C42.2167 52.0692 41.2167 51.9264 41.2167 51.3549C41.0738 50.7835 42.5024 51.0692 42.3596 49.7835C42.2167 48.9264 41.3596 48.6407 40.5024 48.6407C37.5024 48.6407 35.7881 52.7835 36.2167 55.3549C36.3596 56.4978 36.931 57.6407 38.0738 57.6407C38.931 57.6407 40.2167 56.3549 40.6453 54.4978C40.931 53.2121 42.0738 52.3549 43.0738 52.3549C43.5024 52.3549 43.7881 52.4978 43.931 53.0692V53.6407C43.7881 54.2121 43.3596 55.9264 43.5024 56.3549C43.5024 56.6407 43.6453 57.0692 44.2167 57.0692C44.5953 57.0692 46.031 56.3178 47.451 55.1549C47.9367 52.6978 48.5038 49.7478 48.5038 49.5007C48.6467 48.5007 49.0753 47.5007 51.0753 47.5007C51.5038 47.5007 51.7896 47.6435 51.9324 48.2149V48.7864L51.361 51.3578C53.2181 48.9292 55.9324 47.2149 57.6467 47.2149C58.361 47.2149 58.9324 47.6435 58.9324 48.3578C58.9324 48.7864 58.9324 49.5007 58.6467 50.2149C58.0753 51.7864 57.361 54.2149 56.9324 56.3578C56.9324 56.9292 57.0753 57.5007 57.7896 57.5007C58.5038 57.5007 60.6467 56.6435 62.361 54.3578L62.3896 54.3407C62.381 54.0607 62.361 53.7835 62.361 53.5021C62.361 51.7878 62.5038 50.3592 62.7896 49.3592C63.0753 48.2164 64.5038 47.2164 65.361 47.2164C65.7896 47.2164 66.2181 47.5021 66.2181 47.9307C66.2181 48.0735 66.2181 48.3592 66.0753 48.5021C65.5038 50.3592 65.0753 52.0735 65.0753 53.7878C65.0753 54.7878 65.2181 56.2164 65.5038 57.0735C65.5038 57.2164 65.6467 57.3592 65.7896 57.3592C66.0753 57.3592 68.0753 55.5021 69.5038 53.0735C68.2181 52.2164 67.5038 50.7878 67.5038 49.0735C67.5038 46.0735 69.361 44.5021 71.0753 44.5021C72.5038 44.5021 73.6467 45.5021 73.6467 47.5021C73.6467 48.7878 73.2181 50.2164 72.5038 51.5021H72.9324C74.0753 51.5021 74.7896 51.0735 75.361 50.5021C75.4931 50.2858 75.6894 50.116 75.9224 50.0164C77.3167 48.2449 79.3796 46.9307 81.7938 46.9307C83.7938 46.9307 85.6467 47.7878 85.7938 49.3592C86.0796 51.5021 84.2196 51.9307 83.6467 51.9307L83.6381 51.9249Z" fill="white"/>
<path fill-rule="evenodd" clip-rule="evenodd" d="M69.9238 46.2107C69.4952 46.2107 69.2095 46.925 69.2095 47.6393C69.2095 48.7821 69.7809 50.0678 70.4952 50.7821C70.7809 49.925 70.9238 49.2107 70.9238 48.3535C70.9238 46.925 70.3523 46.2107 69.9238 46.2107Z" fill="#00C4CC"/>
</g>
<defs>
<clipPath id="clip0">
<rect width="100" height="100" fill="white" transform="translate(0.209473 0.496338)"/>
</clipPath>
</defs>
</svg>
