<svg width="18" height="12" viewBox="0 0 18 12" fill="none" xmlns="http://www.w3.org/2000/svg">
<path fill-rule="evenodd" clip-rule="evenodd" d="M17.0479 0.351344C17.2729 0.576377 17.3993 0.881547 17.3993 1.19974C17.3993 1.51794 17.2729 1.82311 17.0479 2.04814L7.44791 11.6481C7.22288 11.8731 6.91771 11.9995 6.59951 11.9995C6.28132 11.9995 5.97615 11.8731 5.75111 11.6481L0.951112 6.84814C0.732522 6.62182 0.611569 6.3187 0.614303 6.00406C0.617037 5.68943 0.74324 5.38845 0.96573 5.16596C1.18822 4.94347 1.48919 4.81727 1.80383 4.81454C2.11847 4.8118 2.42159 4.93275 2.64791 5.15134L6.59951 9.10295L15.3511 0.351344C15.5761 0.126379 15.8813 0 16.1995 0C16.5177 0 16.8229 0.126379 17.0479 0.351344Z" fill="white"/>
</svg>
