<svg width="20" height="20" viewBox="0 0 20 20" fill="none" xmlns="http://www.w3.org/2000/svg">
<path fill-rule="evenodd" clip-rule="evenodd" d="M1.875 10C1.875 7.84512 2.73102 5.77849 4.25476 4.25476C5.77849 2.73102 7.84512 1.875 10 1.875C12.1549 1.875 14.2215 2.73102 15.7452 4.25476C17.269 5.77849 18.125 7.84512 18.125 10C18.125 12.1549 17.269 14.2215 15.7452 15.7452C14.2215 17.269 12.1549 18.125 10 18.125C7.84512 18.125 5.77849 17.269 4.25476 15.7452C2.73102 14.2215 1.875 12.1549 1.875 10ZM0 10C0 7.34784 1.05357 4.8043 2.92893 2.92893C4.8043 1.05357 7.34784 0 10 0C12.6522 0 15.1957 1.05357 17.0711 2.92893C18.9464 4.8043 20 7.34784 20 10C20 12.6522 18.9464 15.1957 17.0711 17.0711C15.1957 18.9464 12.6522 20 10 20C7.34784 20 4.8043 18.9464 2.92893 17.0711C1.05357 15.1957 0 12.6522 0 10ZM14.725 7.85C14.8906 7.67228 14.9808 7.43722 14.9765 7.19435C14.9722 6.95147 14.8738 6.71974 14.702 6.54797C14.5303 6.37621 14.2985 6.27782 14.0557 6.27353C13.8128 6.26925 13.5777 6.3594 13.4 6.525L8.4375 11.4875L6.6 9.65C6.42228 9.4844 6.18722 9.39425 5.94435 9.39853C5.70147 9.40282 5.46974 9.50121 5.29797 9.67297C5.12621 9.84474 5.02782 10.0765 5.02353 10.3193C5.01925 10.5622 5.1094 10.7973 5.275 10.975L7.775 13.475C7.95078 13.6506 8.18906 13.7492 8.4375 13.7492C8.68594 13.7492 8.92422 13.6506 9.1 13.475L14.725 7.85Z" fill="#23CA47"/>
</svg>
