<svg width="20" height="20" viewBox="0 0 20 20" fill="none" xmlns="http://www.w3.org/2000/svg">
<path d="M19.5799 5.16967C19.4637 4.7545 19.2424 4.37636 18.9372 4.07185C18.632 3.76734 18.2534 3.54679 17.838 3.43154C16.2786 3.01467 10.0099 3.01467 10.0099 3.01467C10.0099 3.01467 3.75299 3.00467 2.17737 3.43154C1.76262 3.54729 1.38474 3.76808 1.08026 4.07256C0.775777 4.37704 0.554992 4.75492 0.439241 5.16967C0.143116 6.76606 -0.00272977 8.38669 0.00361646 10.0103C0.000727024 11.6261 0.14655 13.2387 0.439241 14.8278C0.555366 15.2428 0.776217 15.6209 1.08059 15.926C1.38497 16.231 1.76264 16.4527 2.17737 16.5697C3.73674 16.9865 10.0099 16.9865 10.0099 16.9865C10.0099 16.9865 16.263 16.9865 17.838 16.5697C18.2534 16.4532 18.6318 16.2317 18.9369 15.9267C19.2419 15.6216 19.4634 15.2432 19.5799 14.8278C19.8667 13.2397 20.0067 11.6247 19.9967 10.0103C20.0067 8.38529 19.8699 6.76779 19.5799 5.16967ZM8.00737 13.0022V7.00529L13.2255 10.0103L8.00737 13.0022Z" fill="#959595"/>
</svg>
