<svg width="20" height="20" viewBox="0 0 20 20" fill="none" xmlns="http://www.w3.org/2000/svg">
<g clip-path="url(#clip0)">
<path d="M19.9607 3.80794C19.2121 4.13701 18.4193 4.35433 17.6075 4.45294C18.4632 3.93938 19.1038 3.13315 19.4107 2.18356C18.6013 2.65294 17.7205 2.98633 16.8032 3.17044C16.1863 2.51135 15.3692 2.07427 14.4785 1.927C13.5879 1.77973 12.6736 1.93052 11.8774 2.35596C11.0812 2.7814 10.4477 3.45772 10.0752 4.27997C9.70259 5.10223 9.61181 6.02445 9.8169 6.90356C6.40878 6.74419 3.38753 5.10669 1.3669 2.63294C0.999077 3.25849 0.806701 3.97164 0.810029 4.69731C0.809528 5.37192 0.975619 6.0362 1.29355 6.63119C1.61149 7.22617 2.07143 7.73344 2.63253 8.10794C1.98229 8.08828 1.34622 7.91319 0.777529 7.59732V7.64669C0.777331 8.59358 1.10454 9.51141 1.70369 10.2446C2.30284 10.9779 3.13708 11.4814 4.06503 11.6698C3.71353 11.7637 3.35136 11.8118 2.98753 11.8129C2.7244 11.8129 2.47315 11.7873 2.22253 11.7411C2.48661 12.5559 2.99816 13.2681 3.68597 13.7786C4.37379 14.2891 5.20364 14.5724 6.06003 14.5892C4.60904 15.7255 2.81865 16.342 0.975654 16.3398C0.64922 16.3411 0.323005 16.3227 -0.0012207 16.2848C1.87884 17.4895 4.06526 18.129 6.29815 18.1273C13.84 18.1273 17.9613 11.8804 17.9613 6.47044C17.9613 6.29794 17.9613 6.12231 17.9482 5.94606C18.7543 5.36828 19.4491 4.64916 19.9988 3.82356L19.9607 3.80794Z" fill="#959595"/>
</g>
<defs>
<clipPath id="clip0">
<rect width="20" height="20" fill="white"/>
</clipPath>
</defs>
</svg>
