<svg width="20" height="20" viewBox="0 0 20 20" fill="none" xmlns="http://www.w3.org/2000/svg">
<path d="M10.0001 0.000976562C4.486 0.000976562 0 4.48691 0 10.0009C0 15.5149 4.486 20.0008 10.0001 20.0008C15.5141 20.0008 20 15.5149 20 10.0009C20 4.48691 15.5141 0.000976562 10.0001 0.000976562ZM10.0001 18.3615C5.38993 18.3615 1.63933 14.611 1.63933 10.0009C1.63933 5.39084 5.38993 1.64031 10.0001 1.64031C14.6101 1.64031 18.3607 5.39084 18.3607 10.0009C18.3607 14.611 14.6101 18.3615 10.0001 18.3615Z" fill="#929292"/>
<path d="M11.1592 9.99989L13.9874 7.17178C14.3075 6.85165 14.3075 6.3327 13.9874 6.01257C13.6673 5.69245 13.1483 5.69251 12.8282 6.01257L10 8.84075L7.17178 6.01251C6.85165 5.69245 6.3327 5.69245 6.01257 6.01251C5.69251 6.33264 5.69251 6.85159 6.01257 7.17171L8.84075 9.99989L6.01251 12.8281C5.69245 13.1483 5.69245 13.6672 6.01251 13.9874C6.17257 14.1474 6.38234 14.2274 6.59211 14.2274C6.80188 14.2274 7.01165 14.1473 7.17171 13.9874L9.99996 11.1591L12.8282 13.9874C12.9883 14.1473 13.198 14.2274 13.4078 14.2274C13.6176 14.2274 13.8273 14.1473 13.9874 13.9874C14.3075 13.6672 14.3075 13.1483 13.9874 12.8281L11.1592 9.99989Z" fill="#929292"/>
</svg>
