<svg width="22" height="22" viewBox="0 0 22 22" fill="none" xmlns="http://www.w3.org/2000/svg">
    <g clip-path="url(#clip0)">
        <path d="M20.1294 3.50586H1.8706C0.839137 3.50586 0 4.34504 0 5.37646V16.6235C0 17.655 0.839137 18.4941 1.8706 18.4941H20.1294C21.1609 18.4941 22 17.655 22 16.6235V5.37646C22 4.34504 21.1609 3.50586 20.1294 3.50586ZM1.8706 4.79492H20.1294C20.4501 4.79492 20.711 5.05579 20.711 5.37646V6.60984H1.28906V5.37646C1.28906 5.05583 1.54993 4.79492 1.8706 4.79492ZM20.1294 17.2051H1.8706C1.54997 17.2051 1.28906 16.9442 1.28906 16.6236V7.89894H20.7109V16.6236C20.7109 16.9442 20.4501 17.2051 20.1294 17.2051Z" fill="#23CA47"/>
        <path d="M16.4681 10.0488C14.8401 10.0488 13.5156 11.3733 13.5156 13.0013C13.5156 14.6293 14.8401 15.9537 16.4681 15.9537C18.096 15.9537 19.4205 14.6293 19.4205 13.0013C19.4205 11.3733 18.096 10.0488 16.4681 10.0488ZM16.4681 14.6646C15.5509 14.6646 14.8047 13.9184 14.8047 13.0012C14.8047 12.084 15.5509 11.3378 16.4681 11.3378C17.3852 11.3378 18.1314 12.084 18.1314 13.0012C18.1314 13.9184 17.3852 14.6646 16.4681 14.6646Z" fill="#23CA47"/>
        <path d="M7.66619 14.665H3.5625C3.20655 14.665 2.91797 14.9536 2.91797 15.3096C2.91797 15.6655 3.20655 15.9541 3.5625 15.9541H7.66614C8.0221 15.9541 8.31068 15.6655 8.31068 15.3096C8.31068 14.9536 8.02214 14.665 7.66619 14.665Z" fill="#23CA47"/>
    </g>
    <defs>
        <clipPath id="clip0">
            <rect width="22" height="22" fill="white"/>
        </clipPath>
    </defs>
</svg>
