<svg width="14" height="14" viewBox="0 0 14 14" fill="none" xmlns="http://www.w3.org/2000/svg">
<path d="M12.8947 0H1.10526C0.494863 0 0 0.494863 0 1.10526V3.97821C0 4.58861 0.494863 5.08347 1.10526 5.08347C1.71566 5.08347 2.21053 4.58861 2.21053 3.97821V2.21053H5.89474V11.7895H4.18792C3.57752 11.7895 3.08265 12.2843 3.08265 12.8947C3.08265 13.5051 3.57752 14 4.18792 14H9.81208C10.4225 14 10.9173 13.5051 10.9173 12.8947C10.9173 12.2843 10.4225 11.7895 9.81208 11.7895H8.10526V2.21053H11.7895V3.97821C11.7895 4.58861 12.2843 5.08347 12.8947 5.08347C13.5051 5.08347 14 4.58861 14 3.97821V1.10526C14 0.494863 13.5051 0 12.8947 0Z" fill="#23CA47"/>
</svg>
