<svg width="84" height="84" viewBox="0 0 84 84" fill="none" xmlns="http://www.w3.org/2000/svg">
<g clip-path="url(#clip0)">
<path d="M81.2433 2.87347C79.4408 1.07101 77.0022 0.0107422 74.5636 0.0107422L46.7845 0.116769H46.6784C42.4374 0.434851 38.3023 2.34334 35.3335 5.3121L2.78321 37.6504C-0.927737 41.3613 -0.927737 47.5109 2.78321 51.2219L32.7889 81.2275C34.5914 83.03 37.03 83.9842 39.6807 83.9842C42.3313 83.9842 44.6639 83.03 46.3604 81.1215L78.5926 48.8893C81.6674 45.9205 83.5759 41.8915 83.894 37.5443L84 9.76524C84 7.11456 83.0458 4.67594 81.2433 2.87347ZM53.1461 39.0287C48.5869 39.0287 44.876 35.3178 44.876 30.7586C44.876 26.1994 48.5869 22.4885 53.1461 22.4885C57.7053 22.4885 61.4162 26.1994 61.4162 30.7586C61.4162 35.3178 57.7053 39.0287 53.1461 39.0287Z" fill="#353535"/>
</g>
<defs>
<clipPath id="clip0">
<rect width="84" height="84" fill="white"/>
</clipPath>
</defs>
</svg>
