<svg width="82" height="84" viewBox="0 0 82 84" fill="none" xmlns="http://www.w3.org/2000/svg">
<g clip-path="url(#clip0)">
<path d="M68.5842 43.1171C71.447 43.1492 74.5015 41.8629 76.5487 39.75C81.1047 35.0447 81.0973 27.3812 76.5306 22.6663C72.4382 18.441 66.3595 18.0815 61.0456 21.7499C59.847 22.5766 58.4472 22.5734 57.6409 21.7415C57.3908 21.4833 56.6304 20.6982 57.1909 18.2674C57.7663 15.7763 57.4175 13.0283 56.1822 10.3187C55.0724 7.88271 53.5131 6.00303 52.4014 4.85459C49.273 1.62525 45.1111 -0.157654 40.6823 -0.164062C40.6736 -0.164062 40.6661 -0.164062 40.6574 -0.164062C36.2354 -0.164062 32.0847 1.6073 28.968 4.82511C25.0712 8.8485 23.3338 14.3132 24.3201 19.4414C24.4585 20.1637 24.2413 20.9468 23.7664 21.4371C23.0365 22.1901 21.7919 22.2568 20.1669 21.6294C18.8212 21.1096 14.7256 19.5286 11.7723 22.5785C10.3421 24.0551 9.58796 26.2148 9.75555 28.3566C9.89211 30.0946 10.7524 31.7699 12.0578 32.8382C13.1012 33.6931 14.0304 34.1494 14.7772 34.5154C14.8889 34.5705 14.9988 34.6249 15.1086 34.6794C15.9913 35.1235 16.6294 35.444 17.3656 36.1566C18.6604 37.4095 19.3891 39.1021 19.417 40.9234C19.4444 42.6403 18.8118 44.2944 17.6815 45.4614C16.6791 46.4964 15.5233 47.0918 13.9336 47.3936C13.6065 47.4558 13.2756 47.5154 12.9417 47.5744C10.2869 48.0467 7.27702 48.5818 4.92387 51.012C2.7166 53.2909 1.50371 56.3261 1.5093 59.5586C1.51488 62.7841 2.73398 65.8155 4.94187 68.095C7.14108 70.365 10.0467 71.6442 13.1242 71.6948C16.2309 71.7448 19.1334 70.5444 21.2972 68.3104L21.4269 68.1739C21.9446 67.6202 22.8074 66.6544 23.2183 66.1526C23.4381 65.884 23.6721 65.6213 23.9129 65.3726C26.2325 62.9777 29.1592 61.8844 31.7414 62.447C33.3435 62.7963 35.5346 63.9659 36.8828 67.5657L36.9368 67.7067C38.2279 71.1584 39.9964 75.8848 42.8355 78.8162C45.9633 82.0455 50.1234 83.8284 54.5504 83.8361H54.5789C59.0009 83.8361 63.1523 82.0635 66.2695 78.845C69.4166 75.5958 71.1832 71.3949 71.244 67.0165C71.3061 62.5887 69.6245 58.3718 66.5098 55.1431L66.4173 55.0495C65.1336 53.769 64.1864 52.8103 63.8804 52.4796C62.0232 50.4846 62.2324 47.086 64.3466 44.9032C65.5421 43.6695 66.8859 43.0979 68.5842 43.1171Z" fill="#353535"/>
</g>
<defs>
<clipPath id="clip0">
<rect width="81.2" height="84" fill="white"/>
</clipPath>
</defs>
</svg>
