<svg width="84" height="84" viewBox="0 0 84 84" fill="none" xmlns="http://www.w3.org/2000/svg">
<g clip-path="url(#clip0)">
<path d="M71.6851 12.3049C55.2798 -4.1004 28.7272 -4.10286 12.3196 12.3049C-0.872528 25.497 -3.36525 45.1122 4.4339 60.7341L0.109816 79.7536C-0.452204 82.2258 1.76369 84.4429 4.23638 83.8802L23.2559 79.5563C50.909 93.3618 83.9806 73.378 83.9806 41.9877C83.9804 30.7754 79.614 20.2338 71.6851 12.3049ZM34.2306 52.4411H24.4886C22.5844 52.4411 21.0406 50.8974 21.0406 48.9931C21.0406 47.0889 22.5844 45.5452 24.4886 45.5452H34.2306C36.1349 45.5452 37.6786 47.0889 37.6786 48.9931C37.6786 50.8974 36.1349 52.4411 34.2306 52.4411ZM40.3056 38.4302H24.4886C22.5844 38.4302 21.0406 36.8865 21.0406 34.9822C21.0406 33.0779 22.5844 31.5342 24.4886 31.5342H40.3056C42.2099 31.5342 43.7536 33.0779 43.7536 34.9822C43.7536 36.8865 42.2099 38.4302 40.3056 38.4302ZM62.5096 26.1848L48.4987 50.7038C47.8623 51.8175 46.6987 52.4418 45.5017 52.4418C42.8983 52.4418 41.1849 49.6039 42.5112 47.2824L56.5221 22.7634C57.4668 21.11 59.5731 20.5357 61.2264 21.4804C62.88 22.4253 63.4543 24.5314 62.5096 26.1848Z" fill="#353535"/>
<path d="M40.3056 38.4302H24.4886C22.5844 38.4302 21.0406 36.8865 21.0406 34.9822C21.0406 33.0779 22.5844 31.5342 24.4886 31.5342H40.3056C42.2099 31.5342 43.7536 33.0779 43.7536 34.9822C43.7536 36.8865 42.2099 38.4302 40.3056 38.4302Z" fill="#353535"/>
<path d="M34.2306 52.4411H24.4886C22.5844 52.4411 21.0406 50.8974 21.0406 48.9931C21.0406 47.0889 22.5844 45.5452 24.4886 45.5452H34.2306C36.1349 45.5452 37.6786 47.0889 37.6786 48.9931C37.6786 50.8974 36.1349 52.4411 34.2306 52.4411Z" fill="#353535"/>
<path d="M62.5096 26.1848L48.4987 50.7038C47.8623 51.8175 46.6987 52.4418 45.5017 52.4418C42.8983 52.4418 41.1849 49.6039 42.5112 47.2824L56.5221 22.7634C57.4668 21.11 59.5731 20.5357 61.2264 21.4804C62.88 22.4253 63.4543 24.5314 62.5096 26.1848Z" fill="#353535"/>
</g>
<defs>
<clipPath id="clip0">
<rect width="84" height="84" fill="white"/>
</clipPath>
</defs>
</svg>
