<svg width="84" height="84" viewBox="0 0 84 84" fill="none" xmlns="http://www.w3.org/2000/svg">
<path d="M42 19.8516C29.7867 19.8516 19.8516 29.7867 19.8516 42C19.8516 54.2133 29.7867 64.1484 42 64.1484C54.2133 64.1484 64.1484 54.2133 64.1484 42C64.1484 29.7867 54.2133 19.8516 42 19.8516ZM52.7113 39.6905L41.2789 51.1229C40.7982 51.6036 40.1686 51.8439 39.5391 51.8439C38.9096 51.8439 38.2797 51.6036 37.7992 51.1229L30.4164 43.74C29.4551 42.7788 29.4551 41.2214 30.4164 40.2601C31.3776 39.2989 32.9351 39.2989 33.8963 40.2601L39.5391 45.9029L49.2314 36.2106C50.1926 35.2493 51.7501 35.2493 52.7113 36.2106C53.6726 37.1718 53.6726 38.7291 52.7113 39.6905Z" fill="#353535"/>
<path d="M52.7113 39.6905L41.2789 51.1229C40.7982 51.6036 40.1686 51.8439 39.5391 51.8439C38.9096 51.8439 38.2797 51.6036 37.7992 51.1229L30.4164 43.74C29.4551 42.7788 29.4551 41.2214 30.4164 40.2601C31.3776 39.2989 32.9351 39.2989 33.8963 40.2601L39.5391 45.9029L49.2314 36.2106C50.1926 35.2493 51.7501 35.2493 52.7113 36.2106C53.6726 37.1718 53.6726 38.7291 52.7113 39.6905Z" fill="#353535"/>
<path d="M80.1619 34.7542C78.5205 33.5887 78.0206 31.416 78.8593 29.5872C80.0873 26.9076 79.9408 23.7833 78.4675 21.2287C76.9919 18.6741 74.1938 16.9846 71.2619 16.7106C69.2575 16.5208 67.6666 14.9299 67.4768 12.9255C67.2028 9.99354 65.5133 7.19545 62.9562 5.71987C60.4016 4.24905 57.2773 3.99427 54.6 5.22244C52.7807 6.06112 50.601 5.48198 49.433 3.84054C47.7294 1.43473 44.9512 0 42 0C39.0511 0 36.2731 1.43473 34.5691 3.83562C33.4036 5.47952 31.2334 6.16678 29.3997 5.32809C26.72 4.10009 23.5933 4.24184 21.0412 5.71987C18.4866 7.19545 16.797 9.99354 16.5231 12.9255C16.3332 14.9297 14.7422 16.5206 12.738 16.7104C9.80602 16.9844 7.00793 18.6739 5.53235 21.231C4.05923 23.7833 3.91256 26.9076 5.14057 29.5872C5.97926 31.416 5.39766 33.5887 3.75867 34.7542C1.35302 36.4581 0 39.2362 0 42.1875C0 45.1388 1.43473 47.9169 3.83562 49.6184C5.47706 50.7864 5.97926 52.9613 5.14057 54.7901C3.91256 57.4673 4.05907 60.5893 5.53235 63.1463C7.00793 65.701 9.80602 67.3905 12.738 67.6645C14.7423 67.8543 16.3332 69.4452 16.5231 71.4495C16.797 74.3815 18.4866 77.1796 21.0436 78.6552C23.5983 80.1308 26.7225 80.2774 29.3998 79.047C31.2239 78.213 33.4013 78.5231 34.5668 80.1596C36.2706 82.5653 39.0488 84 42 84C44.9512 84 47.7294 82.5653 49.4309 80.1644C50.6013 78.5229 52.7786 78.2081 54.6003 79.0468C57.2752 80.2676 60.4042 80.1283 62.9588 78.655C65.5134 77.1794 67.2029 74.3813 67.4769 71.4494C67.6668 69.445 69.2577 67.8541 71.262 67.6643C74.194 67.3903 76.9921 65.7008 78.4677 63.1437C79.9408 60.5891 80.0874 57.4672 78.8594 54.7924C78.0207 52.9612 78.5229 50.7862 80.1596 49.6207C82.5653 47.9167 84 45.1387 84 42.1875C84 39.2364 82.5653 36.4581 80.1619 34.7542ZM42 69.0703C27.0734 69.0703 14.9297 56.9266 14.9297 42C14.9297 27.0734 27.0733 14.9297 42 14.9297C56.9267 14.9297 69.0703 27.0734 69.0703 42C69.0703 56.9266 56.9266 69.0703 42 69.0703Z" fill="#353535"/>
<path d="M42 69.0703C27.0734 69.0703 14.9297 56.9266 14.9297 42C14.9297 27.0734 27.0733 14.9297 42 14.9297C56.9267 14.9297 69.0703 27.0734 69.0703 42C69.0703 56.9266 56.9266 69.0703 42 69.0703Z" fill="#353535"/>
</svg>
