<svg width="16" height="15" viewBox="0 0 16 15" fill="none" xmlns="http://www.w3.org/2000/svg">
<g clip-path="url(#clip0)">
<path d="M8.00011 4.00005C7.7057 4.00466 7.41347 4.05143 7.13233 4.13894C7.26237 4.36764 7.33161 4.62586 7.33344 4.88894C7.33344 5.09322 7.2932 5.2955 7.21503 5.48423C7.13686 5.67296 7.02227 5.84444 6.87783 5.98889C6.73338 6.13333 6.5619 6.24792 6.37317 6.32609C6.18444 6.40426 5.98216 6.4445 5.77788 6.4445C5.5148 6.44267 5.25658 6.37343 5.02788 6.24339C4.84745 6.86916 4.86848 7.53585 5.088 8.14901C5.30751 8.76217 5.71439 9.29072 6.25099 9.65979C6.78759 10.0289 7.42671 10.2197 8.07782 10.2054C8.72893 10.1911 9.35903 9.97221 9.87885 9.57986C10.3987 9.18752 10.7819 8.64156 10.9742 8.01933C11.1665 7.39709 11.1581 6.73013 10.9503 6.11291C10.7425 5.49568 10.3457 4.9595 9.81624 4.58029C9.28675 4.20109 8.65137 3.99809 8.00011 4.00005ZM15.9034 6.70561C14.3971 3.76644 11.4148 1.77783 8.00011 1.77783C4.58538 1.77783 1.60233 3.76783 0.0967735 6.70589C0.0332296 6.83158 0.00012207 6.97046 0.00012207 7.1113C0.00012207 7.25215 0.0332296 7.39102 0.0967735 7.51672C1.60316 10.4559 4.58538 12.4445 8.00011 12.4445C11.4148 12.4445 14.3979 10.4545 15.9034 7.51644C15.967 7.39075 16.0001 7.25187 16.0001 7.11103C16.0001 6.97018 15.967 6.83131 15.9034 6.70561ZM8.00011 11.1112C5.25983 11.1112 2.74761 9.58339 1.39094 7.11117C2.74761 4.63894 5.25955 3.11117 8.00011 3.11117C10.7407 3.11117 13.2526 4.63894 14.6093 7.11117C13.2529 9.58339 10.7407 11.1112 8.00011 11.1112Z" fill="white"/>
</g>
<defs>
<clipPath id="clip0">
<rect width="16" height="14.2222" fill="white"/>
</clipPath>
</defs>
</svg>
