<svg width="16" height="16" viewBox="0 0 16 16" fill="none" xmlns="http://www.w3.org/2000/svg">
<path d="M15.3083 3.40937H12.5739V0.98125C12.5739 0.628125 12.2896 0.34375 11.9364 0.34375H1.2708C0.917676 0.34375 0.633301 0.628125 0.633301 0.98125V11.95C0.633301 12.3031 0.917676 12.5875 1.2708 12.5875H4.00518V15.0156C4.00518 15.3687 4.28955 15.6531 4.64268 15.6531H15.3083C15.6614 15.6531 15.9458 15.3687 15.9458 15.0156V4.04688C15.9458 3.69688 15.6614 3.40937 15.3083 3.40937ZM1.9083 11.3125V1.61875H11.2958V3.40937H4.64268C4.28955 3.40937 4.00518 3.69375 4.00518 4.04688V11.3125H1.9083ZM14.6708 14.3813H5.28018V4.6875H14.6677V14.3813H14.6708Z" fill="#929292"/>
</svg>
