<svg width="84" height="84" viewBox="0 0 84 84" fill="none" xmlns="http://www.w3.org/2000/svg">
<g clip-path="url(#clip0)">
<path d="M56.1721 44.5186C52.3922 38.622 45.9547 35.1011 38.9513 35.1011C31.9479 35.1011 25.5103 38.622 21.7311 44.5186L12.6231 58.7274C11.1119 61.0845 10.4147 63.8082 10.6063 66.6017C10.7979 69.3959 11.8611 71.9978 13.6805 74.1281C15.5012 76.2564 17.9071 77.7112 20.6378 78.3354C23.3685 78.9596 26.1679 78.693 28.7326 77.5657L28.9044 77.4894C35.3579 74.7093 42.7324 74.735 49.1693 77.5657C50.8298 78.2956 52.589 78.6648 54.3642 78.6648C55.3293 78.6648 56.3002 78.5552 57.2622 78.336C59.9929 77.7125 62.3987 76.2577 64.2201 74.1287C66.0402 72.0004 67.104 69.3978 67.2963 66.603C67.4885 63.8082 66.7913 61.0851 65.2801 58.7267L56.1721 44.5186Z" fill="#353535"/>
<path d="M15.0751 44.4997C17.7846 43.459 19.8431 41.2755 20.8711 38.3512C21.8497 35.5686 21.7696 32.427 20.6448 29.5047C19.5195 26.5842 17.4725 24.2002 14.8809 22.7909C12.1585 21.3111 9.16752 21.0702 6.46241 22.1129C1.02015 24.2053 -1.47732 30.9306 0.895821 37.1079C2.79151 42.0247 7.21287 45.1284 11.6829 45.1284C12.8243 45.1284 13.9689 44.9259 15.0751 44.4997Z" fill="#353535"/>
<path d="M32.7485 33.3681C39.552 33.3681 45.0872 27.062 45.0872 19.3107C45.0872 11.5574 39.552 5.25 32.7485 5.25C25.9457 5.25 20.4111 11.5574 20.4111 19.3107C20.4111 27.062 25.9457 33.3681 32.7485 33.3681Z" fill="#353535"/>
<path d="M54.0563 36.8214H54.057C55.1035 37.1688 56.1712 37.3348 57.2344 37.3348C62.196 37.3348 67.0314 33.7235 68.8764 28.1735C69.939 24.9788 69.8691 21.6008 68.6797 18.6624C67.4351 15.5862 65.1286 13.3534 62.1845 12.3748C59.2397 11.3962 56.0552 11.8044 53.2168 13.5233C50.5053 15.1652 48.4276 17.8293 47.3663 21.024C45.1264 27.7634 48.1276 34.8501 54.0563 36.8214Z" fill="#353535"/>
<path d="M80.0434 35.1806L80.0415 35.1787C75.3497 31.7129 68.3328 33.2151 64.3985 38.5292C60.4681 43.8458 61.0827 50.9934 65.7674 54.4618C67.476 55.7275 69.4947 56.3325 71.5609 56.3325C75.1619 56.3325 78.9084 54.4945 81.413 51.1145C85.3428 45.7979 84.7288 38.6503 80.0434 35.1806Z" fill="#353535"/>
</g>
<defs>
<clipPath id="clip0">
<rect width="84" height="84" fill="white"/>
</clipPath>
</defs>
</svg>
