<svg width="35" height="35" viewBox="0 0 35 35" fill="none" xmlns="http://www.w3.org/2000/svg">
<path d="M29.8717 5.12792C23.0345 -1.70941 11.9668 -1.7105 5.12855 5.12792C-1.70884 11.9652 -1.70987 23.0328 5.12855 29.8711C11.9657 36.7084 23.0334 36.7095 29.8717 29.8711C36.7091 23.0338 36.71 11.9663 29.8717 5.12792ZM29.1404 27.3771C28.323 26.6461 27.4485 25.9992 26.5268 25.4417C27.136 23.3373 27.497 21.0216 27.5823 18.6145H32.7261C32.4936 21.8591 31.2469 24.9028 29.1404 27.3771ZM2.27401 18.6145H7.41788C7.5032 21.0216 7.86411 23.3373 8.47331 25.4417C7.55162 25.9992 6.6772 26.6461 5.85974 27.3771C3.75326 24.9028 2.50665 21.8591 2.27401 18.6145ZM5.85981 7.62196C6.67727 8.35294 7.55169 8.99985 8.47338 9.55734C7.86418 11.6617 7.50326 13.9774 7.41795 16.3846H2.27401C2.50665 13.14 3.75326 10.0963 5.85981 7.62196ZM16.3852 9.7878C14.5668 9.65775 12.8135 9.20988 11.1881 8.47104C12.1334 6.03677 13.8761 3.11713 16.3852 2.39359V9.7878ZM16.3852 12.0219V16.3846H9.64875C9.72593 14.3484 10.0144 12.393 10.4943 10.604C12.3414 11.4114 14.328 11.8937 16.3852 12.0219ZM16.3852 18.6145V22.9772C14.328 23.1054 12.3414 23.5877 10.4943 24.3951C10.0144 22.6061 9.72593 20.6507 9.64875 18.6145H16.3852ZM16.3852 25.2113V32.6054C13.8763 31.8819 12.1336 28.9626 11.1881 26.5281C12.8135 25.7892 14.5668 25.3413 16.3852 25.2113ZM18.615 25.2113C20.4334 25.3413 22.1867 25.7892 23.8121 26.5281C22.8667 28.9624 21.1241 31.8819 18.615 32.6054V25.2113ZM18.615 22.9772V18.6145H25.3515C25.2743 20.6507 24.9858 22.6061 24.5059 24.3951C22.6588 23.5877 20.6723 23.1054 18.615 22.9772ZM18.615 16.3846V12.0219C20.6723 11.8937 22.6588 11.4114 24.5059 10.604C24.9858 12.393 25.2743 14.3484 25.3515 16.3846H18.615ZM18.615 9.7878V2.39366C21.1241 3.1172 22.8668 6.03683 23.8121 8.47111C22.1867 9.20988 20.4334 9.65775 18.615 9.7878ZM23.6231 3.5068C25.0503 4.13178 26.3818 4.97922 27.5754 6.03069C27.0072 6.53163 26.4077 6.98584 25.7817 7.39205C25.2258 6.01559 24.5156 4.67793 23.6231 3.5068ZM9.21844 7.39205C8.59243 6.98584 7.993 6.53163 7.42478 6.03069C8.61839 4.97922 9.9499 4.13178 11.3771 3.5068C10.4845 4.67807 9.77436 6.01573 9.21844 7.39205ZM9.21851 27.607C9.77436 28.9834 10.4846 30.3212 11.3772 31.4923C9.94997 30.8673 8.61846 30.0199 7.42485 28.9684C7.993 28.4675 8.5925 28.0132 9.21851 27.607ZM25.7817 27.607C26.4077 28.0132 27.0072 28.4675 27.5754 28.9683C26.3818 30.0198 25.0503 30.8672 23.6231 31.4922C24.5156 30.3212 25.2258 28.9835 25.7817 27.607ZM27.5823 16.3846C27.497 13.9775 27.1361 11.6617 26.5269 9.55741C27.4486 8.99991 28.323 8.35301 29.1405 7.62202C31.247 10.0963 32.4936 13.14 32.7262 16.3846H27.5823Z" fill="#23CA47"/>
</svg>
