<svg width="16" height="16" viewBox="0 0 16 16" fill="none" xmlns="http://www.w3.org/2000/svg">
<path fill-rule="evenodd" clip-rule="evenodd" d="M1 2.28571H15C15.2652 2.28571 15.5196 2.16531 15.7071 1.95098C15.8946 1.73665 16 1.44596 16 1.14286C16 0.839753 15.8946 0.549063 15.7071 0.334735C15.5196 0.120408 15.2652 0 15 0H1C0.734783 0 0.480429 0.120408 0.292892 0.334735C0.105356 0.549063 0 0.839753 0 1.14286C0 1.44596 0.105356 1.73665 0.292892 1.95098C0.480429 2.16531 0.734783 2.28571 1 2.28571ZM5 6.85714H15C15.2652 6.85714 15.5196 6.73674 15.7071 6.52241C15.8946 6.30808 16 6.01739 16 5.71429C16 5.41118 15.8946 5.12049 15.7071 4.90616C15.5196 4.69184 15.2652 4.57143 15 4.57143H5C4.73478 4.57143 4.48043 4.69184 4.29289 4.90616C4.10536 5.12049 4 5.41118 4 5.71429C4 6.01739 4.10536 6.30808 4.29289 6.52241C4.48043 6.73674 4.73478 6.85714 5 6.85714ZM1 11.4286H15C15.2652 11.4286 15.5196 11.3082 15.7071 11.0938C15.8946 10.8795 16 10.5888 16 10.2857C16 9.98261 15.8946 9.69192 15.7071 9.47759C15.5196 9.26327 15.2652 9.14286 15 9.14286H1C0.734783 9.14286 0.480429 9.26327 0.292892 9.47759C0.105356 9.69192 0 9.98261 0 10.2857C0 10.5888 0.105356 10.8795 0.292892 11.0938C0.480429 11.3082 0.734783 11.4286 1 11.4286ZM5 16H15C15.2652 16 15.5196 15.8796 15.7071 15.6653C15.8946 15.4509 16 15.1602 16 14.8571C16 14.554 15.8946 14.2633 15.7071 14.049C15.5196 13.8347 15.2652 13.7143 15 13.7143H5C4.73478 13.7143 4.48043 13.8347 4.29289 14.049C4.10536 14.2633 4 14.554 4 14.8571C4 15.1602 4.10536 15.4509 4.29289 15.6653C4.48043 15.8796 4.73478 16 5 16Z" fill="#929292"/>
</svg>
