<svg width="16" height="16" viewBox="0 0 16 16" fill="none" xmlns="http://www.w3.org/2000/svg">
<path d="M7.42257 1.40839C7.76862 1.16364 8.23138 1.16364 8.57743 1.40839L9.42232 2.00593C9.60357 2.13413 9.82232 2.19836 10.0441 2.18851L11.0779 2.1426C11.5014 2.1238 11.8907 2.37398 12.0495 2.76696L12.4372 3.72643C12.5203 3.93227 12.6696 4.10457 12.8615 4.21619L13.7561 4.7365C14.1225 4.94961 14.3147 5.37054 14.2358 5.78699L14.0432 6.80376C14.0019 7.02188 14.0344 7.24755 14.1355 7.4452L14.6067 8.36653C14.7997 8.74389 14.7338 9.20194 14.4423 9.50964L13.7306 10.2609C13.578 10.422 13.4832 10.6294 13.4614 10.8504L13.3597 11.8802C13.3181 12.302 13.0151 12.6517 12.6035 12.753L11.5986 13.0002C11.383 13.0532 11.1912 13.1765 11.0534 13.3506L10.4111 14.1619C10.148 14.4943 9.70402 14.6246 9.30303 14.4873L8.32402 14.152C8.114 14.08 7.886 14.08 7.67598 14.152L6.69697 14.4873C6.29598 14.6246 5.85197 14.4943 5.58889 14.1619L4.94657 13.3506C4.80878 13.1765 4.61698 13.0532 4.40141 13.0002L3.39653 12.753C2.98495 12.6517 2.68191 12.302 2.64026 11.8802L2.53857 10.8504C2.51675 10.6294 2.42204 10.422 2.26936 10.2609L1.55766 9.50964C1.26615 9.20194 1.2003 8.74389 1.3933 8.36653L1.86453 7.4452C1.96562 7.24755 1.99807 7.02188 1.95675 6.80376L1.76419 5.78699C1.68531 5.37054 1.87755 4.94961 2.24393 4.7365L3.13846 4.21619C3.33036 4.10457 3.47966 3.93227 3.56283 3.72643L3.95054 2.76696C4.10934 2.37398 4.49863 2.1238 4.92207 2.1426L5.95589 2.18851C6.17768 2.19836 6.39643 2.13412 6.57768 2.00593L7.42257 1.40839Z" stroke="#23CA47" stroke-width="1.4"/>
<ellipse cx="9.93642" cy="7.84167" rx="1.53579" ry="2.48089" transform="rotate(0.180268 9.93642 7.84167)" fill="#23CA47"/>
<ellipse cx="5.94091" cy="7.94579" rx="1.15488" ry="1.14021" transform="rotate(-23.9868 5.94091 7.94579)" fill="#23CA47"/>
</svg>
