<svg width="16" height="16" viewBox="0 0 16 16" fill="none" xmlns="http://www.w3.org/2000/svg">
<path d="M13.8184 6.66925L13.8369 6.65044C13.8434 6.64388 13.8454 6.64187 13.8417 6.63015C13.8381 6.61845 13.8354 6.61803 13.8264 6.61663L13.8264 6.61663M13.8184 6.66925L13.7982 6.61236L13.7984 6.61239L13.8264 6.61663M13.8184 6.66925L13.8233 6.63704L13.8233 6.63698L13.8235 6.63586L13.8264 6.61663M13.8184 6.66925L13.8232 6.63695L13.8232 6.6369L13.8234 6.63589L13.8264 6.61663M14.0077 5.32489L13.9927 5.42376L14.0077 5.32489L10.6476 4.81589L9.14431 1.64031C8.92909 1.1856 8.49096 0.9 7.99992 0.9C7.50887 0.9 7.07081 1.1856 6.8556 1.6403C6.85559 1.64031 6.85559 1.64031 6.85559 1.64031L5.3522 4.81589L1.99221 5.32489L2.00706 5.42292L1.9922 5.32489C1.50662 5.39846 1.11306 5.74629 0.962939 6.22791C0.812926 6.70919 0.935398 7.22902 1.2845 7.58382L1.28451 7.58383L3.71824 10.0569L3.14355 13.5501C3.06153 14.0485 3.25436 14.5451 3.64944 14.8444C4.04529 15.1442 4.56202 15.1833 4.99569 14.9456L4.94763 14.8579L4.99569 14.9456L7.99998 13.2991L11.0043 14.9456C11.1924 15.0487 11.3967 15.1 11.6004 15.1C11.8651 15.1 12.1273 15.0134 12.3504 14.8444C12.7456 14.5451 12.9383 14.0485 12.8564 13.55L12.8564 13.55L12.2817 10.0569L14.7154 7.58383L14.6441 7.51369L14.7154 7.58382C15.0645 7.22902 15.187 6.70919 15.037 6.22791C14.8868 5.74629 14.4933 5.39846 14.0077 5.32489ZM10.6048 4.80941C10.6049 4.80942 10.605 4.80943 10.605 4.80944L10.6049 4.80942L10.6048 4.80941ZM3.72489 10.0165L3.7248 10.0171L3.72489 10.0165ZM10.938 10.2532L10.938 10.2533L11.4924 13.6232L8.5948 12.0351L8.59478 12.0351C8.22244 11.8311 7.77733 11.8311 7.40487 12.035L7.40484 12.0351L4.5073 13.6231L5.06172 10.2532C5.13218 9.82487 4.99628 9.3872 4.69629 9.0823L4.69629 9.0823L2.34402 6.69193L5.59114 6.20003C6.00827 6.13686 6.36666 5.8643 6.55153 5.47371C6.55154 5.47371 6.55154 5.47371 6.55154 5.47371L7.99992 2.41426L9.4483 5.47371L9.44831 5.47372C9.63323 5.86428 9.99154 6.13692 10.4087 6.20003C10.4087 6.20003 10.4087 6.20003 10.4087 6.20004L13.6558 6.69193L11.3034 9.08237L11.3034 9.08237C11.0035 9.38721 10.8676 9.82494 10.938 10.2532Z" fill="#23CA47" stroke="#23CA47" stroke-width="0.2"/>
</svg>
