<svg width="84" height="84" viewBox="0 0 84 84" fill="none" xmlns="http://www.w3.org/2000/svg">
<g clip-path="url(#clip0)">
<path d="M41.1361 39.3822C41.6787 39.5834 42.286 39.5975 42.8667 39.3822L73.9967 27.7086V54.6217C74.7873 54.4228 75.6065 54.3056 76.4579 54.3056C77.3093 54.3056 78.1286 54.4228 78.9191 54.6217V25.8625L82.4095 24.615C84.5299 23.8179 84.534 20.8038 82.4095 20.0051L42.8667 5.23806C42.309 5.03132 41.6937 5.03132 41.1361 5.23806L1.59329 20.0051C-0.527092 20.8022 -0.531194 23.8163 1.59329 24.615L41.1361 39.3822Z" fill="#353535"/>
<path d="M76.4553 59.2275C72.2469 59.2275 69.0718 64.5176 69.0718 71.5334V76.4558C69.0718 77.8161 70.1726 78.9169 71.533 78.9169H81.3777C82.738 78.9169 83.8388 77.8161 83.8388 76.4558V71.5334C83.8388 64.5176 80.6639 59.2275 76.4553 59.2275Z" fill="#353535"/>
<path d="M67.4581 35.4183L44.5954 43.9922C42.8829 44.6247 41.0722 44.608 39.4255 43.997L16.5461 35.418C14.4931 42.9416 15.0152 47.8792 14.9291 49.3831C14.9291 51.1242 16.6987 52.3129 18.3012 51.6689C18.359 51.6473 24.1129 49.3831 29.6961 49.3831C34.89 49.3831 40.4132 53.7238 40.4685 53.7694C41.3486 54.4697 42.6296 54.4927 43.5401 53.767C45.064 52.5461 49.9695 49.383 54.3079 49.383C59.8911 49.383 65.6452 51.6471 65.7028 51.6687C67.3015 52.3113 69.0749 51.1273 69.0749 49.383C68.9924 47.9399 69.4989 42.8968 67.4581 35.4183Z" fill="#353535"/>
</g>
<defs>
<clipPath id="clip0">
<rect width="84" height="84" fill="white"/>
</clipPath>
</defs>
</svg>
