<svg width="84" height="84" viewBox="0 0 84 84" fill="none" xmlns="http://www.w3.org/2000/svg">
<path d="M44.5171 27.2117V22.2305C44.5171 9.97255 34.5445 0 22.2866 0C10.0287 0 0.0561523 9.97255 0.0561523 22.2305V39.4775H29.8935C33.397 34.0466 38.4934 29.7363 44.5171 27.2117Z" fill="#353535"/>
<path d="M24.7886 56.8271C24.7886 52.4231 25.6808 48.2237 27.293 44.3994H0.0561523V61.6465C0.0561523 73.9044 10.0287 83.877 22.2866 83.877C26.9012 83.877 31.1916 82.4632 34.7482 80.0467C28.6154 74.1977 24.7886 65.951 24.7886 56.8271Z" fill="#353535"/>
<path d="M29.8198 59.2881C31.0677 73.1222 42.7265 84 56.88 84C71.0335 84 82.6923 73.1222 83.9401 59.2881H29.8198Z" fill="#353535"/>
<path d="M83.9401 54.3663C82.6923 40.5322 71.0335 29.6543 56.88 29.6543C42.7265 29.6543 31.0677 40.5322 29.8198 54.3663H83.9401Z" fill="#353535"/>
</svg>
