<svg width="16" height="16" viewBox="0 0 16 16" fill="none" xmlns="http://www.w3.org/2000/svg">
<path fill-rule="evenodd" clip-rule="evenodd" d="M15 2.28571H1C0.734784 2.28571 0.48043 2.16531 0.292893 1.95098C0.105357 1.73665 0 1.44596 0 1.14286C0 0.839753 0.105357 0.549063 0.292893 0.334735C0.48043 0.120408 0.734784 0 1 0H15C15.2652 0 15.5196 0.120408 15.7071 0.334735C15.8946 0.549063 16 0.839753 16 1.14286C16 1.44596 15.8946 1.73665 15.7071 1.95098C15.5196 2.16531 15.2652 2.28571 15 2.28571ZM13 6.85714H3C2.73478 6.85714 2.48043 6.73674 2.29289 6.52241C2.10536 6.30808 2 6.01739 2 5.71429C2 5.41118 2.10536 5.12049 2.29289 4.90616C2.48043 4.69184 2.73478 4.57143 3 4.57143H13C13.2652 4.57143 13.5196 4.69184 13.7071 4.90616C13.8946 5.12049 14 5.41118 14 5.71429C14 6.01739 13.8946 6.30808 13.7071 6.52241C13.5196 6.73674 13.2652 6.85714 13 6.85714ZM15 11.4286H1C0.734784 11.4286 0.48043 11.3082 0.292893 11.0938C0.105357 10.8795 0 10.5888 0 10.2857C0 9.98261 0.105357 9.69192 0.292893 9.47759C0.48043 9.26327 0.734784 9.14286 1 9.14286H15C15.2652 9.14286 15.5196 9.26327 15.7071 9.47759C15.8946 9.69192 16 9.98261 16 10.2857C16 10.5888 15.8946 10.8795 15.7071 11.0938C15.5196 11.3082 15.2652 11.4286 15 11.4286ZM13 16H3C2.73478 16 2.48043 15.8796 2.29289 15.6653C2.10536 15.4509 2 15.1602 2 14.8571C2 14.554 2.10536 14.2633 2.29289 14.049C2.48043 13.8347 2.73478 13.7143 3 13.7143H13C13.2652 13.7143 13.5196 13.8347 13.7071 14.049C13.8946 14.2633 14 14.554 14 14.8571C14 15.1602 13.8946 15.4509 13.7071 15.6653C13.5196 15.8796 13.2652 16 13 16Z" fill="#929292"/>
</svg>
