<svg width="16" height="16" viewBox="0 0 16 16" fill="none" xmlns="http://www.w3.org/2000/svg">
<g clip-path="url(#clip0)">
<path d="M6.04981 0.416019L0.050314 15.0814C-0.129108 15.52 0.193458 16.0005 0.667293 16.0005H6.66679C7.03495 16.0005 7.33339 15.702 7.33339 15.3339V0.668404C7.33339 -0.0626593 6.3266 -0.260643 6.04981 0.416019ZM6.00019 14.6672H1.66024L6.00019 4.05846V14.6672Z" fill="#929292"/>
<path d="M15.9496 15.0809L9.95008 0.415508C9.67329 -0.261123 8.6665 -0.0631393 8.6665 0.667893V15.3333C8.6665 15.7015 8.96495 15.9999 9.3331 15.9999H15.3326C15.8064 16 16.129 15.5195 15.9496 15.0809ZM9.99974 14.6667V4.05795L14.3397 14.6667H9.99974Z" fill="#929292"/>
</g>
<defs>
<clipPath id="clip0">
<rect width="16" height="16" fill="white"/>
</clipPath>
</defs>
</svg>
