<svg width="16" height="16" viewBox="0 0 16 16" fill="none" xmlns="http://www.w3.org/2000/svg">
<g clip-path="url(#clip0)">
<path d="M4.29729 10.0196L1.12415 11.4469C0.448851 11.7546 0.448851 12.2584 1.12415 12.5661L6.80281 15.1623C7.45086 15.4581 8.51753 15.4581 9.16559 15.1623L14.8442 12.5661C15.5195 12.2584 15.5195 11.7546 14.8442 11.4469L11.777 9.96729" stroke="#929292" stroke-width="1.3" stroke-linecap="round" stroke-linejoin="round"/>
<path d="M4.29722 6.01855L1.12024 7.44778C0.444945 7.75548 0.444945 8.25932 1.12024 8.56701L6.7989 11.1628C7.44696 11.4589 8.51363 11.4589 9.16168 11.1628L14.8403 8.56701C15.5195 8.25932 15.5195 7.75548 14.8442 7.44778L11.6641 6.01855" fill="#424242"/>
<path d="M4.29722 6.01855L1.12024 7.44778C0.444945 7.75548 0.444945 8.25932 1.12024 8.56701L6.7989 11.1628C7.44696 11.4589 8.51363 11.4589 9.16168 11.1628L14.8403 8.56701C15.5195 8.25932 15.5195 7.75548 14.8442 7.44778L11.6641 6.01855" stroke="#929292" stroke-width="1.3" stroke-linecap="round" stroke-linejoin="round"/>
<path d="M14.8412 3.44793L9.11034 0.828696C8.48914 0.544081 7.47235 0.544081 6.85115 0.828696L1.12415 3.44793C0.448851 3.75562 0.448851 4.25908 1.12415 4.56677L6.80281 7.16293C7.45087 7.45908 8.51753 7.45908 9.16559 7.16293L14.8442 4.56677C15.5165 4.25908 15.5165 3.75523 14.8412 3.44793Z" fill="#424242" stroke="#929292" stroke-width="1.3" stroke-linecap="round" stroke-linejoin="round"/>
</g>
<defs>
<clipPath id="clip0">
<rect width="16" height="16" fill="white"/>
</clipPath>
</defs>
</svg>
