<svg width="17" height="16" viewBox="0 0 17 16" fill="none" xmlns="http://www.w3.org/2000/svg">
<g clip-path="url(#clip0)">
<path d="M14.5896 7.2V7.3H14.6896C15.5167 7.3 16.1896 7.97283 16.1896 8.8V14.4C16.1896 15.2272 15.5167 15.9 14.6896 15.9H9.08955C8.26238 15.9 7.58955 15.2272 7.58955 14.4V14.3H7.48955H1.88955C1.06238 14.3 0.389551 13.6272 0.389551 12.8V2.4C0.389551 1.57283 1.06238 0.9 1.88955 0.9H4.28955H4.38955V0.8C4.38955 0.614349 4.4633 0.436301 4.59458 0.305025C4.72585 0.17375 4.9039 0.1 5.08955 0.1H9.88955C10.0752 0.1 10.2533 0.17375 10.3845 0.305025C10.5158 0.436301 10.5896 0.614349 10.5896 0.8V0.9H10.6896H13.0896C13.9167 0.9 14.5896 1.57283 14.5896 2.4V7.2ZM7.48955 12.9H7.58955V12.8V8.8C7.58955 7.97283 8.26238 7.3 9.08955 7.3H13.0896H13.1896V7.2V2.4V2.3H13.0896H10.6896H10.5896V2.4V3.9H4.38955V2.4V2.3H4.28955H1.88955H1.78955V2.4V12.8V12.9H1.88955H7.48955ZM8.98955 14.4V14.5H9.08955H14.6904H14.7904L14.7904 14.4L14.7896 8.79999L14.7895 8.7H14.6896H9.08955H8.98955V8.8V14.4Z" fill="#929292" stroke="#353535" stroke-width="0.2"/>
</g>
<defs>
<clipPath id="clip0">
<rect width="16" height="16" fill="white" transform="translate(0.289551)"/>
</clipPath>
</defs>
</svg>
