<svg width="84" height="84" viewBox="0 0 84 84" fill="none" xmlns="http://www.w3.org/2000/svg">
<g clip-path="url(#clip0)">
<path d="M44.4157 26.8684V19.1725C44.4157 16.6581 46.4614 14.6124 48.9756 14.6124C51.49 14.6124 53.5356 16.6581 53.5356 19.1725C53.5356 24.4363 57.8179 28.7187 63.0817 28.7187H63.3832C68.8134 28.7187 73.2309 24.3009 73.2309 18.871V0H68.3323V18.871C68.3323 21.5998 66.1122 23.8199 63.3834 23.8199H63.0819C60.5192 23.8199 58.4345 21.735 58.4345 19.1725C58.4345 13.957 54.1913 9.71365 48.9758 9.71365C43.7602 9.71365 39.5171 13.9568 39.5171 19.1725V26.8728C40.3323 26.7812 41.1554 26.7337 41.9836 26.7337C42.8 26.7337 43.6118 26.7793 44.4157 26.8684Z" fill="#353535"/>
<path d="M19.4004 51.1714H24.2991V56.0701H19.4004V51.1714Z" fill="#353535"/>
<path d="M61.8044 56.0703C63.1572 56.0703 64.2539 54.9736 64.2539 53.6208C64.2539 52.268 63.1572 51.1714 61.8044 51.1714C60.4516 51.1714 59.355 52.268 59.355 53.6208C59.355 54.9736 60.4516 56.0703 61.8044 56.0703Z" fill="#353535"/>
<path d="M83.2821 66.7194L75.6942 44.8354C74.4371 40.7606 71.5163 37.3637 67.6742 35.5109C63.8175 33.6513 59.3217 33.4862 55.3396 35.0584C54.7244 35.3012 54.1267 35.5823 53.5507 35.8994C52.3752 34.8522 51.0694 33.9763 49.6732 33.2874C47.3066 32.1197 44.6796 31.4917 41.983 31.4917C39.42 31.4917 36.9208 32.0625 34.6469 33.1215C33.1229 33.8312 31.699 34.7582 30.4285 35.8878C29.8591 35.5755 29.2684 35.2983 28.6606 35.0584C24.6781 33.4862 20.1825 33.6509 16.3259 35.5109C12.4837 37.3637 9.56289 40.7606 8.30584 44.8354L0.717954 66.7194C-0.304812 69.6692 -0.232789 72.8912 0.920899 75.7925C2.07459 78.6936 4.23496 81.0855 7.00401 82.5274C8.91009 83.5195 10.9705 84.0001 13.0121 84.0001C16.6199 84.0001 20.1692 82.4997 22.7045 79.6726L35.7647 65.1092C36.7876 63.9688 38.0965 63.1441 39.5335 62.7005V56.7693H44.4322V62.6903C43.6505 62.4526 42.832 62.3256 41.9999 62.3256C41.1557 62.3256 40.3254 62.456 39.5333 62.7005V67.6304H44.4321V62.6901C45.8826 63.1311 47.2041 63.9595 48.235 65.1091L61.2952 79.6724C65.2654 84.0992 71.7216 85.273 76.9955 82.5269C79.7647 81.085 81.9251 78.6933 83.0788 75.792C84.2328 72.8912 84.3048 69.669 83.2821 66.7194ZM29.2002 56.0706H24.3014V60.9693H19.4027V56.0706H14.5038V51.1718H19.4025V46.2731H24.3013V51.1718H29.2V56.0706H29.2002ZM47.7266 48.6221H36.2393V43.7234H47.7266V48.6221ZM61.8051 60.9693C57.7535 60.9693 54.457 57.673 54.457 53.6211C54.457 49.5693 57.7533 46.2729 61.8051 46.2729C65.857 46.2729 69.1533 49.5693 69.1533 53.6211C69.1532 57.673 65.8568 60.9693 61.8051 60.9693Z" fill="#353535"/>
</g>
<defs>
<clipPath id="clip0">
<rect width="84" height="84" fill="white"/>
</clipPath>
</defs>
</svg>
