<svg width="97" height="84" viewBox="0 0 97 84" fill="none" xmlns="http://www.w3.org/2000/svg">
<path fill-rule="evenodd" clip-rule="evenodd" d="M50.2364 1.75672C51.3724 0.631892 52.9129 0 54.5192 0C56.1255 0 57.666 0.631892 58.802 1.75672L95.1482 37.7567C96.2838 38.8819 96.9218 40.4077 96.9218 41.9987C96.9218 43.5897 96.2838 45.1156 95.1482 46.2407L58.802 82.2407C57.6595 83.3337 56.1293 83.9384 54.541 83.9248C52.9527 83.9111 51.4334 83.2801 50.3102 82.1676C49.1871 81.0552 48.55 79.5503 48.5362 77.9771C48.5224 76.4039 49.133 74.8883 50.2364 73.7567L76.2421 47.9987H6.05769C4.45109 47.9987 2.91029 47.3666 1.77426 46.2414C0.638219 45.1161 0 43.59 0 41.9987C0 40.4074 0.638219 38.8813 1.77426 37.7561C2.91029 36.6309 4.45109 35.9987 6.05769 35.9987H76.2421L50.2364 10.2407C49.1008 9.11555 48.4628 7.5897 48.4628 5.99872C48.4628 4.40773 49.1008 2.88188 50.2364 1.75672Z" fill="#353535"/>
</svg>
