<svg width="16" height="16" viewBox="0 0 16 16" fill="none" xmlns="http://www.w3.org/2000/svg">
<g clip-path="url(#clip0)">
<path d="M14.8412 6.83269L9.11034 4.21346C8.48914 3.92885 7.47235 3.92885 6.85115 4.21346L1.12415 6.83269C0.448851 7.14038 0.448851 7.64385 1.12415 7.95154L6.80281 10.5477C7.45087 10.8438 8.51753 10.8438 9.16559 10.5477L14.8442 7.95154C15.5165 7.64385 15.5165 7.14 14.8412 6.83269Z" fill="#929292" stroke="#929292" stroke-width="1.3" stroke-linecap="round" stroke-linejoin="round"/>
<path d="M4.29722 9.40332L1.12024 10.8325C0.444945 11.1402 0.444945 11.6441 1.12024 11.9518L6.7989 14.5475C7.44696 14.8437 8.51363 14.8437 9.16168 14.5475L14.8403 11.9518C15.5195 11.6441 15.5195 11.1402 14.8442 10.8325L11.6641 9.40332" stroke="#929292" stroke-width="1.3" stroke-linecap="round" stroke-linejoin="round"/>
<g clip-path="url(#clip1)">
<path d="M4.37717 3.09322C3.75332 3.76506 4.22978 4.85769 5.14661 4.85769L6.78333 4.85769L6.78333 7.5C6.78333 8.0799 7.25343 8.55 7.83333 8.55L8.16667 8.55C8.74656 8.55 9.21667 8.0799 9.21667 7.5L9.21667 4.85769L10.8534 4.85769C11.7702 4.85769 12.2467 3.76506 11.6228 3.09322L8.76943 0.0203335C8.35402 -0.427036 7.64598 -0.427035 7.23057 0.0203319L7.6336 0.394581L7.23057 0.0203329L4.37717 3.09322Z" fill="#929292" stroke="#424242" stroke-width="1.1"/>
</g>
</g>
<defs>
<clipPath id="clip0">
<rect width="16" height="16" fill="white"/>
</clipPath>
<clipPath id="clip1">
<rect width="16" height="16" fill="white" transform="translate(16 16) rotate(-180)"/>
</clipPath>
</defs>
</svg>
