<svg width="35" height="35" viewBox="0 0 35 35" fill="none" xmlns="http://www.w3.org/2000/svg">
<path d="M7.65625 16.4062H6.5625V14.2188H7.65625C8.26 14.2188 8.75 13.7287 8.75 13.125C8.75 12.5213 8.26 12.0312 7.65625 12.0312H5.46875C4.865 12.0312 4.375 12.5213 4.375 13.125V21.875C4.375 22.4788 4.865 22.9688 5.46875 22.9688C6.0725 22.9688 6.5625 22.4788 6.5625 21.875V18.5938H7.65625C8.26 18.5938 8.75 18.1037 8.75 17.5C8.75 16.8963 8.26 16.4062 7.65625 16.4062Z" fill="#23CA47"/>
<path d="M22.9688 18.5938C23.5725 18.5938 24.0625 18.1037 24.0625 17.5C24.0625 16.8963 23.5725 16.4062 22.9688 16.4062H21.875V14.2188H22.9688C23.5725 14.2188 24.0625 13.7287 24.0625 13.125C24.0625 12.5213 23.5725 12.0312 22.9688 12.0312H20.7812C20.1775 12.0312 19.6875 12.5213 19.6875 13.125V21.875C19.6875 22.4788 20.1775 22.9688 20.7812 22.9688H22.9688C23.5725 22.9688 24.0625 22.4788 24.0625 21.875C24.0625 21.2712 23.5725 20.7812 22.9688 20.7812H21.875V18.5938H22.9688Z" fill="#23CA47"/>
<path d="M29.5312 18.5938C30.135 18.5938 30.625 18.1037 30.625 17.5C30.625 16.8963 30.135 16.4062 29.5312 16.4062H28.4375V14.2188H29.5312C30.135 14.2188 30.625 13.7287 30.625 13.125C30.625 12.5213 30.135 12.0312 29.5312 12.0312H27.3438C26.74 12.0312 26.25 12.5213 26.25 13.125V21.875C26.25 22.4788 26.74 22.9688 27.3438 22.9688H29.5312C30.135 22.9688 30.625 22.4788 30.625 21.875C30.625 21.2712 30.135 20.7812 29.5312 20.7812H28.4375V18.5938H29.5312Z" fill="#23CA47"/>
<path d="M15.19 18.4297C16.5222 18.0141 17.5 16.7825 17.5 15.3125C17.5 13.5034 16.0278 12.0312 14.2188 12.0312H12.0312C11.4275 12.0312 10.9375 12.5213 10.9375 13.125V21.875C10.9375 22.4788 11.4275 22.9688 12.0312 22.9688C12.635 22.9688 13.125 22.4788 13.125 21.875V19.3222L15.5312 22.5312C15.7456 22.8178 16.0738 22.9688 16.4062 22.9688C16.6337 22.9688 16.8634 22.8966 17.0603 22.75C17.5437 22.3869 17.6422 21.7022 17.2791 21.2188L15.19 18.4297ZM14.2188 16.4062H13.125V14.2188H14.2188C14.8225 14.2188 15.3125 14.7088 15.3125 15.3125C15.3125 15.9162 14.8225 16.4062 14.2188 16.4062Z" fill="#23CA47"/>
<path d="M17.5 0C7.85094 0 0 7.85094 0 17.5C0 27.1491 7.85094 35 17.5 35C27.1491 35 35 27.1491 35 17.5C35 7.85094 27.1491 0 17.5 0ZM17.5 32.8125C9.05625 32.8125 2.1875 25.9438 2.1875 17.5C2.1875 9.05625 9.05625 2.1875 17.5 2.1875C25.9438 2.1875 32.8125 9.05625 32.8125 17.5C32.8125 25.9438 25.9438 32.8125 17.5 32.8125Z" fill="#23CA47"/>
<path d="M26.7815 8.21846C21.6627 3.09971 13.3371 3.09971 8.22056 8.21846C7.79399 8.64502 7.79399 9.33846 8.22056 9.76502C8.64712 10.1916 9.33837 10.1938 9.76493 9.76502C14.0284 5.50158 20.9693 5.50158 25.2327 9.76502C25.4471 9.97939 25.7271 10.0844 26.0071 10.0844C26.2871 10.0844 26.5671 9.97721 26.7815 9.76502C27.2081 9.33846 27.2081 8.64502 26.7815 8.21846Z" fill="#23CA47"/>
<path d="M26.7837 25.235C26.3571 24.8085 25.6615 24.8063 25.2349 25.235C20.9715 29.4985 14.0306 29.4985 9.76712 25.235C9.34056 24.8085 8.64712 24.8085 8.22056 25.235C7.79399 25.6616 7.79399 26.355 8.22056 26.7816C10.7799 29.341 14.1399 30.6185 17.5021 30.6185C20.8643 30.6185 24.2243 29.341 26.7837 26.7816C27.2102 26.355 27.2102 25.6616 26.7837 25.235Z" fill="#23CA47"/>
</svg>
