<svg width="30" height="30" viewBox="0 0 30 30" fill="none" xmlns="http://www.w3.org/2000/svg">
<path fill-rule="evenodd" clip-rule="evenodd" d="M2.8125 15C2.8125 11.7677 4.09654 8.66774 6.38214 6.38214C8.66774 4.09654 11.7677 2.8125 15 2.8125C18.2323 2.8125 21.3323 4.09654 23.6179 6.38214C25.9035 8.66774 27.1875 11.7677 27.1875 15C27.1875 18.2323 25.9035 21.3323 23.6179 23.6179C21.3323 25.9035 18.2323 27.1875 15 27.1875C11.7677 27.1875 8.66774 25.9035 6.38214 23.6179C4.09654 21.3323 2.8125 18.2323 2.8125 15ZM0 15C0 11.0218 1.58035 7.20644 4.3934 4.3934C7.20644 1.58035 11.0218 0 15 0C18.9782 0 22.7936 1.58035 25.6066 4.3934C28.4196 7.20644 30 11.0218 30 15C30 18.9782 28.4196 22.7936 25.6066 25.6066C22.7936 28.4196 18.9782 30 15 30C11.0218 30 7.20644 28.4196 4.3934 25.6066C1.58035 22.7936 0 18.9782 0 15ZM22.0875 11.775C22.3359 11.5084 22.4711 11.1558 22.4647 10.7915C22.4583 10.4272 22.3107 10.0796 22.053 9.82196C21.7954 9.56431 21.4478 9.41673 21.0835 9.4103C20.7192 9.40387 20.3666 9.5391 20.1 9.7875L12.6562 17.2312L9.9 14.475C9.63342 14.2266 9.28084 14.0914 8.91652 14.0978C8.55221 14.1042 8.20461 14.2518 7.94696 14.5095C7.68931 14.7671 7.54172 15.1147 7.5353 15.479C7.52887 15.8433 7.6641 16.1959 7.9125 16.4625L11.6625 20.2125C11.9262 20.4758 12.2836 20.6238 12.6562 20.6238C13.0289 20.6238 13.3863 20.4758 13.65 20.2125L22.0875 11.775Z" fill="#23CA47"/>
</svg>
