<svg width="16" height="16" viewBox="0 0 16 16" fill="none" xmlns="http://www.w3.org/2000/svg">
<path d="M11.4052 1.0682L11.3663 1.1603C12.2503 1.53424 13.0441 2.06931 13.7257 2.75088C14.4073 3.43244 14.9423 4.22618 15.3163 5.11028C15.7036 6.02603 15.9 6.99818 15.9 8.00015C15.9 9.00213 15.7036 9.97424 15.3163 10.89C14.9423 11.7741 14.4073 12.5679 13.7257 13.2494C13.0441 13.931 12.2504 14.4661 11.3663 14.84C10.4505 15.2273 9.47841 15.4237 8.47643 15.4237C7.62076 15.4237 6.78178 15.2792 5.98257 14.9942C5.21016 14.7188 4.49229 14.3188 3.84879 13.8052L3.7864 13.8833L3.84878 13.8052C3.21161 13.2967 2.66552 12.6914 2.2256 12.0063C1.77745 11.3083 1.45214 10.5467 1.25862 9.74242C1.14551 9.27235 1.43489 8.79957 1.90497 8.68647C2.37507 8.57333 2.84781 8.86275 2.96092 9.33281C3.25356 10.5491 3.95677 11.6512 4.94095 12.4367C5.43267 12.8292 5.98099 13.1348 6.57061 13.345C7.1807 13.5626 7.82198 13.6729 8.47641 13.6729C9.99143 13.6729 11.4163 13.0826 12.4876 12.0114C13.5589 10.9401 14.1491 9.51518 14.1491 8.00015C14.1491 6.48511 13.5589 5.06029 12.4876 3.98898C11.4163 2.91767 9.99139 2.32748 8.47637 2.32748C7.35692 2.32748 6.27424 2.65294 5.34571 3.26873L5.40098 3.35207L5.34571 3.26873C4.54587 3.79921 3.89783 4.51702 3.45439 5.35943L3.37723 5.50601H3.54288H4.62102C5.10449 5.50601 5.49646 5.89796 5.49646 6.38146C5.49646 6.86495 5.10449 7.25691 4.62102 7.25691H0.975447C0.49195 7.25691 0.1 6.86496 0.1 6.38146V2.6862C0.1 2.20271 0.49195 1.81075 0.975447 1.81075C1.45894 1.81075 1.85089 2.20271 1.85089 2.6862V4.25303V4.62784L2.0376 4.30285C2.61095 3.30485 3.40928 2.45204 4.37798 1.80957C5.59426 1.00294 7.01132 0.576563 8.47641 0.576563C9.47839 0.576563 10.4505 0.772963 11.3663 1.1603L11.4052 1.0682Z" fill="#929292" stroke="#424242" stroke-width="0.2"/>
</svg>
