<svg width="85" height="98" viewBox="0 0 85 98" fill="none" xmlns="http://www.w3.org/2000/svg">
<path fill-rule="evenodd" clip-rule="evenodd" d="M2.29553 47.225C1.17071 46.089 0.538816 44.5485 0.538816 42.9422C0.538816 41.3359 1.17071 39.7954 2.29553 38.6594L38.2955 2.31325C39.4207 1.1776 40.9465 0.539641 42.5375 0.53964C44.1285 0.53964 45.6544 1.1776 46.7795 2.31325L82.7795 38.6594C83.8725 39.8019 84.4773 41.3321 84.4636 42.9204C84.4499 44.5087 83.8189 46.028 82.7064 47.1512C81.594 48.2743 80.0891 48.9114 78.5159 48.9252C76.9428 48.939 75.4272 48.3284 74.2955 47.225L48.5375 21.2193L48.5375 91.4037C48.5375 93.0103 47.9054 94.5511 46.7802 95.6872C45.655 96.8232 44.1288 97.4614 42.5375 97.4614C40.9462 97.4614 39.4201 96.8232 38.2949 95.6872C37.1697 94.5511 36.5375 93.0103 36.5375 91.4037L36.5375 21.2193L10.7795 47.225C9.65437 48.3606 8.12852 48.9986 6.53753 48.9986C4.94655 48.9986 3.4207 48.3606 2.29553 47.225Z" fill="#353535"/>
</svg>
