<svg width="16" height="16" viewBox="0 0 16 16" fill="none" xmlns="http://www.w3.org/2000/svg">
<g clip-path="url(#clip0)">
<path d="M8.00005 0.000976562C3.5888 0.000976562 0 3.58973 0 8.00092C0 12.4121 3.5888 16.0009 8.00005 16.0009C12.4112 16.0009 16 12.4121 16 8.00092C16 3.58973 12.4112 0.000976562 8.00005 0.000976562ZM8.00005 14.6894C4.31195 14.6894 1.31147 11.689 1.31147 8.00092C1.31147 4.31287 4.31195 1.31244 8.00005 1.31244C11.6881 1.31244 14.6885 4.31287 14.6885 8.00092C14.6885 11.689 11.6881 14.6894 8.00005 14.6894Z" fill="#929292"/>
<path d="M8.92733 8.00011L11.1899 5.73762C11.446 5.48152 11.446 5.06636 11.1899 4.81025C10.9338 4.55415 10.5186 4.5542 10.2625 4.81025L7.99997 7.0728L5.73737 4.8102C5.48127 4.55415 5.06611 4.55415 4.81001 4.8102C4.55396 5.06631 4.55396 5.48146 4.81001 5.73757L7.07255 8.00011L4.80996 10.2627C4.55391 10.5188 4.55391 10.934 4.80996 11.1901C4.93801 11.3181 5.10582 11.3821 5.27364 11.3821C5.44146 11.3821 5.60927 11.3181 5.73732 11.1901L7.99992 8.92747L10.2625 11.1901C10.3906 11.3181 10.5584 11.3821 10.7262 11.3821C10.894 11.3821 11.0618 11.3181 11.1899 11.1901C11.446 10.934 11.446 10.5188 11.1899 10.2627L8.92733 8.00011Z" fill="#929292"/>
</g>
<defs>
<clipPath id="clip0">
<rect width="16" height="16" fill="white"/>
</clipPath>
</defs>
</svg>
