<svg width="84" height="84" viewBox="0 0 84 84" fill="none" xmlns="http://www.w3.org/2000/svg">
<g clip-path="url(#clip0)">
<path d="M77.3362 11.9073C72.9879 7.19119 67.0215 4.59375 60.5346 4.59375C55.6858 4.59375 51.2452 6.12671 47.3359 9.14969C45.3633 10.6756 43.5759 12.5424 42 14.7214C40.4247 12.5431 38.6367 10.6756 36.6635 9.14969C32.7548 6.12671 28.3142 4.59375 23.4654 4.59375C16.9785 4.59375 11.0114 7.19119 6.66312 11.9073C2.36673 16.5684 0 22.9361 0 29.8382C0 36.9423 2.64743 43.4452 8.3313 50.3037C13.416 56.4388 20.7238 62.6667 29.1865 69.8784C32.0761 72.3413 35.3516 75.1329 38.7527 78.1066C39.6512 78.8936 40.8041 79.3268 42 79.3268C43.1952 79.3268 44.3488 78.8936 45.246 78.1078C48.6471 75.1336 51.9245 72.3407 54.8155 69.8765C63.2769 62.6661 70.5847 56.4388 75.6693 50.3031C81.3532 43.4452 84 36.9423 84 29.8376C84 22.9361 81.6333 16.5684 77.3362 11.9073Z" fill="#353535"/>
</g>
<defs>
<clipPath id="clip0">
<rect width="84" height="84" fill="white"/>
</clipPath>
</defs>
</svg>
