<svg width="16" height="16" viewBox="0 0 16 16" fill="none" xmlns="http://www.w3.org/2000/svg">
<g clip-path="url(#clip0)">
<path d="M7.80009 14.3376C8.12685 14.6031 8.61538 14.3705 8.61538 13.9495L8.61538 9.66667C8.61538 9.39052 8.83924 9.16667 9.11538 9.16667L15.5 9.16667C15.7761 9.16667 16 8.94281 16 8.66667L16 7.33333C16 7.05719 15.7761 6.83333 15.5 6.83333L9.11538 6.83333C8.83924 6.83333 8.61538 6.60948 8.61538 6.33333L8.61538 2.05049C8.61538 1.62947 8.12685 1.39694 7.80009 1.66243L0.477607 7.61194C0.231336 7.81204 0.231336 8.18796 0.477607 8.38806L7.80009 14.3376Z" fill="#929292"/>
</g>
<defs>
<clipPath id="clip0">
<rect width="16" height="16" fill="white" transform="translate(16) rotate(90)"/>
</clipPath>
</defs>
</svg>
