<svg width="16" height="16" viewBox="0 0 16 16" fill="none" xmlns="http://www.w3.org/2000/svg">
<g clip-path="url(#clip0)">
<path d="M8.19991 1.66243C7.87315 1.39694 7.38462 1.62947 7.38462 2.05049L7.38462 6.33333C7.38462 6.60948 7.16076 6.83333 6.88462 6.83333L0.5 6.83333C0.223858 6.83333 9.4717e-08 7.05719 9.14241e-08 7.33333L7.55242e-08 8.66667C7.22313e-08 8.94281 0.223858 9.16667 0.5 9.16667L6.88462 9.16667C7.16076 9.16667 7.38462 9.39052 7.38462 9.66667L7.38462 13.9495C7.38462 14.3705 7.87315 14.6031 8.19991 14.3376L15.5224 8.38806C15.7687 8.18796 15.7687 7.81204 15.5224 7.61194L8.19991 1.66243Z" fill="#929292"/>
</g>
<defs>
<clipPath id="clip0">
<rect width="16" height="16" fill="white" transform="translate(0 16) rotate(-90)"/>
</clipPath>
</defs>
</svg>
