<svg width="84" height="97" viewBox="0 0 84 97" fill="none" xmlns="http://www.w3.org/2000/svg">
<g clip-path="url(#clip0)">
<path fill-rule="evenodd" clip-rule="evenodd" d="M82.243 50.3136C83.3679 51.4496 83.9998 52.9901 83.9998 54.5964C83.9998 56.2027 83.3679 57.7432 82.243 58.8792L46.243 95.2253C45.1179 96.361 43.592 96.9989 42.001 96.9989C40.41 96.9989 38.8842 96.361 37.759 95.2253L1.75903 58.8792C0.666082 57.7367 0.061315 56.2065 0.0749869 54.6182C0.0886589 53.0299 0.719679 51.5105 1.83212 50.3874C2.94457 49.2642 4.44945 48.6272 6.02263 48.6134C7.59581 48.5996 9.11142 49.2101 10.243 50.3136L36.001 76.3193L36.001 6.13484C36.001 4.52824 36.6332 2.98744 37.7584 1.8514C38.8836 0.715366 40.4097 0.0771465 42.001 0.0771466C43.5923 0.0771467 45.1185 0.715366 46.2437 1.8514C47.3689 2.98744 48.001 4.52824 48.001 6.13484L48.001 76.3193L73.759 50.3136C74.8842 49.178 76.4101 48.54 78.001 48.54C79.592 48.54 81.1179 49.178 82.243 50.3136Z" fill="#353535"/>
</g>
<defs>
<clipPath id="clip0">
<rect width="96.9231" height="84" fill="white" transform="translate(84 0.0771484) rotate(90)"/>
</clipPath>
</defs>
</svg>
