<svg width="16" height="16" viewBox="0 0 16 16" fill="none" xmlns="http://www.w3.org/2000/svg">
<path d="M13.5999 11V12C13.5999 13.1042 13.2353 14.0469 12.5062 14.8281C11.777 15.6094 10.8971 16 9.86657 16H3.33324C3.07074 16 2.84956 15.901 2.66969 15.7031C2.48983 15.5052 2.3999 15.2708 2.3999 15V1C2.3999 0.729167 2.48983 0.494792 2.66969 0.296875C2.84956 0.0989583 3.07074 0 3.33324 0H9.86657C10.8971 0 11.777 0.390625 12.5062 1.17188C13.2353 1.95312 13.5999 2.89583 13.5999 4V4.5C13.5999 5.08333 13.4857 5.63542 13.2572 6.15625C13.0287 6.67708 12.72 7.125 12.3312 7.5C12.7006 7.85417 13.0044 8.36979 13.2426 9.04688C13.4808 9.72396 13.5999 10.375 13.5999 11ZM9.3999 3H5.66657C5.54018 3 5.43081 3.04948 5.33844 3.14844C5.24608 3.2474 5.1999 3.36458 5.1999 3.5V5.5C5.1999 5.63542 5.24608 5.7526 5.33844 5.85156C5.43081 5.95052 5.54018 6 5.66657 6H9.3999C9.77907 6 10.1072 5.85417 10.3843 5.5625C10.6614 5.27083 10.7999 4.91667 10.7999 4.5C10.7999 4.08333 10.6614 3.72917 10.3843 3.4375C10.1072 3.14583 9.77907 3 9.3999 3ZM8.93324 9H5.66657C5.54018 9 5.43081 9.04948 5.33844 9.14844C5.24608 9.2474 5.1999 9.36458 5.1999 9.5V12.5C5.1999 12.6354 5.24608 12.7526 5.33844 12.8516C5.43081 12.9505 5.54018 13 5.66657 13H8.93324C9.44851 13 9.88844 12.8047 10.253 12.4141C10.6176 12.0234 10.7999 11.5521 10.7999 11C10.7999 10.4479 10.6176 9.97656 10.253 9.58594C9.88844 9.19531 9.44851 9 8.93324 9Z" fill="#888888"/>
</svg>
