<svg width="84" height="84" viewBox="0 0 84 84" fill="none" xmlns="http://www.w3.org/2000/svg">
<path d="M81.5391 5.08594H2.46094C1.1025 5.08594 0 6.18844 0 7.54688V61.6875C0 63.0459 1.1025 64.1484 2.46094 64.1484H81.5391C82.8975 64.1484 84 63.0459 84 61.6875V7.54688C84 6.18844 82.8975 5.08594 81.5391 5.08594ZM55.4991 36.768L33.3506 49.0727C31.7149 49.9833 29.6953 48.7955 29.6953 46.9219V22.3125C29.6953 20.4389 31.7133 19.2511 33.3506 20.1616L55.4991 32.4663C57.184 33.4015 57.1856 35.8312 55.4991 36.768ZM34.6172 42.7399L49.2368 34.6172L34.6172 26.4945V42.7399Z" fill="#353535"/>
<path d="M58.507 74.7124L52.8649 69.0703H31.1365L25.4944 74.7124C23.9456 76.2628 25.0498 78.9141 27.2351 78.9141H56.7663C58.9549 78.9141 60.0525 76.2595 58.507 74.7124Z" fill="#353535"/>
</svg>
