<svg width="84" height="84" viewBox="0 0 84 84" fill="none" xmlns="http://www.w3.org/2000/svg">
<g clip-path="url(#clip0)">
<path d="M56.4214 6.75122L18.3029 26.2672L3.15137 18.8122L40.5979 0.321715C41.4379 -0.105285 42.4459 -0.105285 43.3279 0.321715L56.4214 6.75122Z" fill="#353535"/>
<path d="M80.8075 18.8121L42.0205 38.0271L27.4955 30.8696L25.3955 29.8021L63.556 10.2896L65.656 11.3536L80.8075 18.8121Z" fill="#353535"/>
<path d="M38.913 43.5646L38.871 84.0001L1.722 64.6136C0.672 64.0606 0 62.9511 0 61.7576V24.3496L15.743 32.1056V45.7416C15.743 47.4881 17.171 48.9371 18.893 48.9371C20.615 48.9371 22.043 47.4881 22.043 45.7416V35.2591L24.143 36.2811L38.913 43.5646Z" fill="#353535"/>
<path d="M83.9589 24.3921L45.2139 43.5231L45.1719 83.9586L84.0009 63.6831L83.9589 24.3921Z" fill="#353535"/>
</g>
<defs>
<clipPath id="clip0">
<rect width="84" height="84" fill="white"/>
</clipPath>
</defs>
</svg>
