<svg width="17" height="19" viewBox="0 0 17 19" fill="none" xmlns="http://www.w3.org/2000/svg">
<path d="M5.29722 6.40332L2.12024 7.83255C1.44494 8.14024 1.44494 8.64409 2.12024 8.95178L7.7989 11.5475C8.44696 11.8437 9.51363 11.8437 10.1617 11.5475L15.8403 8.95178C16.5195 8.64409 16.5195 8.14024 15.8442 7.83255L12.6641 6.40332" fill="#929292"/>
<path d="M5.29722 6.40332L2.12024 7.83255C1.44494 8.14024 1.44494 8.64409 2.12024 8.95178L7.7989 11.5475C8.44696 11.8437 9.51363 11.8437 10.1617 11.5475L15.8403 8.95178C16.5195 8.64409 16.5195 8.14024 15.8442 7.83255L12.6641 6.40332" stroke="#929292" stroke-width="1.3" stroke-linecap="round" stroke-linejoin="round"/>
<path d="M15.8412 3.83269L10.1103 1.21346C9.48914 0.928846 8.47235 0.928846 7.85115 1.21346L2.12415 3.83269C1.44885 4.14038 1.44885 4.64385 2.12415 4.95154L7.80281 7.54769C8.45087 7.84385 9.51753 7.84385 10.1656 7.54769L15.8442 4.95154C16.5165 4.64385 16.5165 4.14 15.8412 3.83269Z" fill="#424242" stroke="#929292" stroke-width="1.3" stroke-linecap="round" stroke-linejoin="round"/>
<path d="M12.6228 14.9068C13.2467 14.2349 12.7702 13.1423 11.8534 13.1423H10.2167V10.5C10.2167 9.9201 9.74657 9.45 9.16667 9.45H8.83333C8.25344 9.45 7.78333 9.9201 7.78333 10.5V13.1423H6.14661C5.22978 13.1423 4.75332 14.2349 5.37717 14.9068L8.23057 17.9797C8.64598 18.427 9.35402 18.427 9.76943 17.9797L9.3664 17.6054L9.76943 17.9797L12.6228 14.9068Z" fill="#929292" stroke="#424242" stroke-width="1.1"/>
</svg>
