<svg width="84" height="84" viewBox="0 0 84 84" fill="none" xmlns="http://www.w3.org/2000/svg">
<g clip-path="url(#clip0)">
<path d="M62.6268 42H43.9107C43.4062 40.8801 40.3094 33.4481 43.054 25.6593C43.2542 25.7842 43.4602 25.9018 43.6774 26.0035C43.697 26.0125 43.7165 26.0214 43.7362 26.0301L50.9739 29.2012C52.5107 29.8745 54.1326 30.1989 55.7396 30.1989C59.2648 30.1989 62.7163 28.6377 65.0296 25.7748L69.9959 19.6286C70.0095 19.6118 70.0228 19.5949 70.0358 19.5779C71.1207 18.1658 71.5025 16.3696 71.0833 14.6503C70.6641 12.9309 69.4986 11.5119 67.8856 10.7574C67.8661 10.7484 67.8465 10.7395 67.8269 10.7308L60.5891 7.55967C55.681 5.40931 49.9011 6.81844 46.5334 10.9863L44.2316 13.8349L43.8948 11.3237C43.1825 6.01273 38.9758 1.80602 33.6649 1.09383L25.8331 0.0433391C25.8119 0.040386 25.7906 0.0379251 25.7693 0.0356282C23.9989 -0.158785 22.2659 0.4489 21.0146 1.70053C19.7631 2.95183 19.1563 4.68498 19.3497 6.45521C19.352 6.47653 19.3546 6.49786 19.3574 6.51903L20.4079 14.3508C21.1203 19.6619 25.327 23.8686 30.6378 24.5808L37.5937 25.5138C35.676 32.3768 37.1356 38.6642 38.2764 42H20.6269C16.2847 42 12.752 45.5328 12.752 49.875C12.752 54.2172 16.2847 57.75 20.6269 57.75H62.6268C66.969 57.75 70.5017 54.2172 70.5017 49.875C70.5017 45.5328 66.969 42 62.6268 42Z" fill="#353535"/>
<path d="M18.0005 63.8203V64.9687C18.0005 75.4793 26.521 83.9999 37.0317 83.9999H46.2191C56.7297 83.9999 65.2503 75.4793 65.2503 64.9687V63.8203C65.2503 63.3673 64.883 63 64.43 63H18.8208C18.3678 63 18.0005 63.3672 18.0005 63.8203Z" fill="#353535"/>
</g>
<defs>
<clipPath id="clip0">
<rect width="84" height="84" fill="white"/>
</clipPath>
</defs>
</svg>
