<svg width="14" height="14" viewBox="0 0 14 14" fill="none" xmlns="http://www.w3.org/2000/svg">
<path d="M1.55573 12.2183H7.12054C7.03586 12.4443 6.93707 12.6736 6.82762 12.9101C6.6476 13.2913 6.80991 13.7466 7.19111 13.9264C7.29697 13.9758 7.40654 14.0004 7.51945 14.0004C7.80532 14.0004 8.08054 13.8381 8.21116 13.5629C8.42992 13.1006 8.60634 12.6524 8.74043 12.2183H12.4456C12.8691 12.2183 13.2078 11.8762 13.2078 11.4562C13.2078 11.0365 12.8655 10.6942 12.4456 10.6942H9.03669C9.10366 9.74509 8.92724 8.88749 8.49677 8.12881C8.17562 7.56053 7.74155 7.10902 7.26515 6.74912L12.8899 1.30055C13.1864 1.00069 13.1827 0.517232 12.8827 0.220714C12.5828 -0.0759325 12.0994 -0.0722116 11.803 0.227771L5.89572 5.96195C4.7348 5.46438 3.67973 5.35506 3.6021 5.34787C3.18215 5.30913 2.8116 5.61257 2.76926 6.03239C2.72692 6.45234 3.03396 6.82636 3.45378 6.8687C3.46443 6.8687 4.02552 6.93234 4.72068 7.15483L1.01209 10.9197C0.796789 11.1385 0.733277 11.4667 0.84978 11.7525C0.970004 12.0347 1.24856 12.2183 1.55573 12.2183ZM6.18544 7.84615C6.57357 8.11444 6.92654 8.45663 7.16994 8.8871C7.4594 9.39866 7.56859 10.0021 7.50175 10.6903H3.37987L6.18544 7.84615Z" fill="#606060"/>
</svg>
