<svg width="84" height="84" viewBox="0 0 84 84" fill="none" xmlns="http://www.w3.org/2000/svg">
<g clip-path="url(#clip0)">
<path d="M81.8647 39.2011C83.8008 37.3136 84.4846 34.5438 83.649 31.9721C82.8133 29.4004 80.6321 27.5614 77.9563 27.1725L57.5396 24.2057C57.5022 24.2003 57.4702 24.1768 57.4536 24.1433L48.3235 5.64298C47.1271 3.21814 44.7038 1.71143 41.9995 1.71143C39.2952 1.71143 36.8723 3.21814 35.6759 5.64298L26.5454 24.1433C26.5288 24.1768 26.4968 24.1999 26.4595 24.2057L6.04312 27.1725C3.36735 27.5614 1.1861 29.4004 0.350455 31.9721C-0.485193 34.5438 0.198589 37.3136 2.13469 39.2011L16.9081 53.6018C16.9351 53.628 16.9474 53.6658 16.9409 53.7028L13.4533 74.037C12.9962 76.702 14.0716 79.345 16.259 80.9342C18.4468 82.5242 21.2925 82.7292 23.6858 81.4711L41.9467 71.8708C41.9799 71.8531 42.0199 71.8535 42.0531 71.8708L60.314 81.4711C61.3551 82.0185 62.4814 82.2887 63.6023 82.2887C65.0581 82.2887 66.5047 81.8323 67.7404 80.9342C69.9278 79.345 71.0028 76.702 70.5461 74.0366L67.0586 53.7028C67.052 53.6658 67.0647 53.628 67.0913 53.6018L81.8647 39.2011ZM60.22 54.8753L63.7075 75.2092C63.7167 75.2631 63.7194 75.2793 63.662 75.321C63.6046 75.3626 63.5899 75.3549 63.5417 75.3294L45.2804 65.7287C43.226 64.6491 40.7726 64.6491 38.7174 65.7287L20.4565 75.329C20.4083 75.3541 20.3937 75.3622 20.3363 75.3206C20.2788 75.2789 20.2815 75.2627 20.2908 75.2092L23.7783 54.8749C24.1707 52.5869 23.4125 50.2538 21.7501 48.633L6.97744 34.2327C6.93851 34.1946 6.92656 34.1834 6.94853 34.1159C6.9705 34.0485 6.98669 34.0462 7.04065 34.0381L27.457 31.0713C29.7546 30.7375 31.7397 29.2955 32.7669 27.2137L41.8974 8.71306C41.9216 8.6645 41.9286 8.64947 41.9995 8.64947C42.0704 8.64947 42.0778 8.6645 42.1017 8.71306L51.2321 27.2137C52.2597 29.2955 54.2444 30.7379 56.542 31.0713L76.9584 34.0381C77.0123 34.0462 77.0285 34.0485 77.0505 34.1159C77.0725 34.1834 77.0605 34.1949 77.0216 34.2327L62.2482 48.6334C60.5861 50.2538 59.828 52.5873 60.22 54.8753Z" fill="#353535"/>
<path d="M60.22 54.8753L63.7075 75.2092C63.7167 75.2631 63.7194 75.2793 63.662 75.321C63.6046 75.3626 63.5899 75.3549 63.5417 75.3294L45.2804 65.7287C43.226 64.6491 40.7726 64.6491 38.7174 65.7287L20.4565 75.329C20.4083 75.3541 20.3937 75.3622 20.3363 75.3206C20.2788 75.2789 20.2815 75.2627 20.2908 75.2092L23.7783 54.8749C24.1707 52.5869 23.4125 50.2538 21.7501 48.633L6.97744 34.2327C6.93851 34.1946 6.92656 34.1834 6.94853 34.1159C6.9705 34.0485 6.98669 34.0462 7.04065 34.0381L27.457 31.0713C29.7546 30.7375 31.7397 29.2955 32.7669 27.2137L41.8974 8.71306C41.9216 8.6645 41.9286 8.64947 41.9995 8.64947C42.0704 8.64947 42.0778 8.6645 42.1017 8.71306L51.2321 27.2137C52.2597 29.2955 54.2444 30.7379 56.542 31.0713L76.9584 34.0381C77.0123 34.0462 77.0285 34.0485 77.0505 34.1159C77.0725 34.1834 77.0605 34.1949 77.0216 34.2327L62.2482 48.6334C60.5861 50.2538 59.828 52.5873 60.22 54.8753Z" fill="#353535"/>
</g>
<defs>
<clipPath id="clip0">
<rect width="84" height="84" fill="white"/>
</clipPath>
</defs>
</svg>
