<svg width="16" height="16" viewBox="0 0 16 16" fill="none" xmlns="http://www.w3.org/2000/svg">
<path fill-rule="evenodd" clip-rule="evenodd" d="M15 2.28571H1C0.734784 2.28571 0.48043 2.16531 0.292893 1.95098C0.105357 1.73665 0 1.44596 0 1.14286C0 0.839753 0.105357 0.549063 0.292893 0.334735C0.48043 0.120408 0.734784 0 1 0H15C15.2652 0 15.5196 0.120408 15.7071 0.334735C15.8946 0.549063 16 0.839753 16 1.14286C16 1.44596 15.8946 1.73665 15.7071 1.95098C15.5196 2.16531 15.2652 2.28571 15 2.28571ZM11 6.85714H1C0.734784 6.85714 0.48043 6.73674 0.292893 6.52241C0.105357 6.30808 0 6.01739 0 5.71429C0 5.41118 0.105357 5.12049 0.292893 4.90616C0.48043 4.69184 0.734784 4.57143 1 4.57143H11C11.2652 4.57143 11.5196 4.69184 11.7071 4.90616C11.8946 5.12049 12 5.41118 12 5.71429C12 6.01739 11.8946 6.30808 11.7071 6.52241C11.5196 6.73674 11.2652 6.85714 11 6.85714ZM15 11.4286H1C0.734784 11.4286 0.48043 11.3082 0.292893 11.0938C0.105357 10.8795 0 10.5888 0 10.2857C0 9.98261 0.105357 9.69192 0.292893 9.47759C0.48043 9.26327 0.734784 9.14286 1 9.14286H15C15.2652 9.14286 15.5196 9.26327 15.7071 9.47759C15.8946 9.69192 16 9.98261 16 10.2857C16 10.5888 15.8946 10.8795 15.7071 11.0938C15.5196 11.3082 15.2652 11.4286 15 11.4286ZM11 16H1C0.734784 16 0.48043 15.8796 0.292893 15.6653C0.105357 15.4509 0 15.1602 0 14.8571C0 14.554 0.105357 14.2633 0.292893 14.049C0.48043 13.8347 0.734784 13.7143 1 13.7143H11C11.2652 13.7143 11.5196 13.8347 11.7071 14.049C11.8946 14.2633 12 14.554 12 14.8571C12 15.1602 11.8946 15.4509 11.7071 15.6653C11.5196 15.8796 11.2652 16 11 16Z" fill="#929292"/>
</svg>
