<svg width="35" height="35" viewBox="0 0 35 35" fill="none" xmlns="http://www.w3.org/2000/svg">
<g clip-path="url(#clip0)">
<path d="M34.8272 12.8163L29.1083 3.62787C28.8994 3.29236 28.5323 3.08838 28.1372 3.08838H6.86292C6.46795 3.08838 6.10079 3.29236 5.89182 3.62787L0.172917 12.8163C-0.101613 13.2574 -0.0448065 13.8278 0.311685 14.2056L16.6678 31.5525C16.8839 31.7817 17.1851 31.9117 17.5 31.9117C17.815 31.9117 18.1162 31.7817 18.3323 31.5522L34.6884 14.2056C35.0445 13.8273 35.1018 13.2574 34.8272 12.8163ZM17.5001 29.1007L2.58058 13.2772L7.49846 5.37594H27.502L32.4196 13.2772L17.5001 29.1007Z" fill="#21AEFE"/>
<path d="M33.8562 12.2768H1.14401V14.5644H33.8562V12.2768Z" fill="#21AEFE"/>
<path d="M11.7491 13.3112L13.5129 4.45568L11.2691 4.00882L9.4391 13.1972C9.39603 13.4145 9.41661 13.6395 9.49898 13.8454L16.438 31.1927L18.5619 30.3433L11.7491 13.3112Z" fill="#21AEFE"/>
<path d="M25.6339 13.1053L23.7276 4.18383L21.4908 4.66193L23.3242 13.2414L16.4395 30.341L18.5612 31.195L25.5768 13.7718C25.6613 13.5602 25.6816 13.328 25.6339 13.1053Z" fill="#21AEFE"/>
</g>
<defs>
<clipPath id="clip0">
<rect width="35" height="35" fill="white"/>
</clipPath>
</defs>
</svg>
