<svg width="84" height="84" viewBox="0 0 84 84" fill="none" xmlns="http://www.w3.org/2000/svg">
<g clip-path="url(#clip0)">
<path d="M73.7497 19.2542C73.8232 18.6945 73.8601 18.1268 73.8601 17.5529C73.8601 7.15085 62.5493 1.56666 54.4033 6.396C48.3041 -2.11622 35.7167 -2.14755 29.5946 6.39535C20.7642 1.15814 8.79389 8.1769 10.2478 19.2542C1.51099 23.2295 2.47666 35.9912 11.7396 38.5729L16.0415 80.9129C16.22 82.6647 17.6949 84 19.4584 84H33.7539V68.626C26.8421 63.2418 26.8582 52.8145 33.7539 47.4418V38.9526H50.2433V47.4418C57.1528 52.826 57.139 63.2533 50.2433 68.626V84H64.5387C66.3022 84 67.777 82.6649 67.9556 80.9129L72.2575 38.5729C81.508 35.9948 82.5022 23.2369 73.7497 19.2542ZM69.5482 32.0792C69.2138 32.037 14.874 32.0255 14.449 32.0792C12.5783 32.0496 11.065 30.5209 11.065 28.6434C11.065 26.7222 12.6454 25.1856 14.5251 25.2063C17.0841 25.2405 18.7835 22.5386 17.6383 20.2393C17.2201 19.3998 17.008 18.4958 17.008 17.5526C17.008 11.7369 24.4628 9.30992 27.908 13.9668C29.5942 16.2465 33.1746 15.6096 33.9681 12.8839C35.0002 9.33781 38.3028 6.86112 41.9987 6.86112C45.6948 6.86112 48.9971 9.33781 50.0292 12.8839C50.8221 15.6065 54.401 16.2491 56.0893 13.9668C59.5266 9.32074 66.9893 11.7282 66.9893 17.5526C66.9893 18.4956 66.7772 19.3994 66.359 20.2389C65.2135 22.5383 66.9093 25.2668 69.5324 25.2049C71.4106 25.2256 72.9322 26.7599 72.9322 28.6432C72.9323 30.5211 71.4188 32.0496 69.5482 32.0792Z" fill="#353535"/>
</g>
<defs>
<clipPath id="clip0">
<rect width="84" height="84" fill="white"/>
</clipPath>
</defs>
</svg>
