<svg width="84" height="84" viewBox="0 0 84 84" fill="none" xmlns="http://www.w3.org/2000/svg">
<g clip-path="url(#clip0)">
<path d="M71.6854 12.3049C55.2801 -4.1004 28.7274 -4.10286 12.3198 12.3049C-0.872284 25.497 -3.365 45.1122 4.43415 60.7341L0.11006 79.7536C-0.451959 82.2258 1.76394 84.4429 4.23663 83.8802L23.2561 79.5563C50.9092 93.3618 83.9809 73.378 83.9809 41.9877C83.9807 30.7754 79.6142 20.2338 71.6854 12.3049ZM34.2309 52.4411H24.4889C22.5846 52.4411 21.0409 50.8974 21.0409 48.9931C21.0409 47.0889 22.5846 45.5452 24.4889 45.5452H34.2309C36.1351 45.5452 37.6788 47.0889 37.6788 48.9931C37.6788 50.8974 36.1351 52.4411 34.2309 52.4411ZM40.3059 38.4302H24.4889C22.5846 38.4302 21.0409 36.8865 21.0409 34.9822C21.0409 33.0779 22.5846 31.5342 24.4889 31.5342H40.3059C42.2101 31.5342 43.7538 33.0779 43.7538 34.9822C43.7538 36.8865 42.2101 38.4302 40.3059 38.4302ZM62.5098 26.1848L48.4989 50.7038C47.8625 51.8175 46.6989 52.4418 45.502 52.4418C42.8986 52.4418 41.1851 49.6039 42.5114 47.2824L56.5223 22.7634C57.4671 21.11 59.5733 20.5357 61.2267 21.4804C62.8802 22.4253 63.4546 24.5314 62.5098 26.1848Z" fill="#353535"/>
<path d="M40.3059 38.4302H24.4889C22.5846 38.4302 21.0409 36.8865 21.0409 34.9822C21.0409 33.0779 22.5846 31.5342 24.4889 31.5342H40.3059C42.2101 31.5342 43.7538 33.0779 43.7538 34.9822C43.7538 36.8865 42.2101 38.4302 40.3059 38.4302Z" fill="#353535"/>
<path d="M34.2309 52.4411H24.4889C22.5846 52.4411 21.0409 50.8974 21.0409 48.9931C21.0409 47.0889 22.5846 45.5452 24.4889 45.5452H34.2309C36.1351 45.5452 37.6788 47.0889 37.6788 48.9931C37.6788 50.8974 36.1351 52.4411 34.2309 52.4411Z" fill="#353535"/>
<path d="M62.5098 26.1848L48.4989 50.7038C47.8625 51.8175 46.6989 52.4418 45.502 52.4418C42.8986 52.4418 41.1851 49.6039 42.5114 47.2824L56.5223 22.7634C57.4671 21.11 59.5733 20.5357 61.2267 21.4804C62.8802 22.4253 63.4546 24.5314 62.5098 26.1848Z" fill="#353535"/>
</g>
<defs>
<clipPath id="clip0">
<rect width="84" height="84" fill="white"/>
</clipPath>
</defs>
</svg>
