<svg width="16" height="16" viewBox="0 0 16 16" fill="none" xmlns="http://www.w3.org/2000/svg">
<g clip-path="url(#clip0)">
<path d="M1.66243 7.80009C1.39694 8.12684 1.62947 8.61538 2.05049 8.61538L6.33333 8.61538C6.60948 8.61538 6.83333 8.83924 6.83333 9.11538L6.83333 15.5C6.83333 15.7761 7.05719 16 7.33333 16L8.66667 16C8.94281 16 9.16667 15.7761 9.16667 15.5L9.16667 9.11538C9.16667 8.83924 9.39053 8.61538 9.66667 8.61538L13.9495 8.61538C14.3705 8.61538 14.6031 8.12685 14.3376 7.80009L8.38806 0.477607C8.18796 0.231336 7.81204 0.231336 7.61194 0.477607L1.66243 7.80009Z" fill="#929292"/>
</g>
<defs>
<clipPath id="clip0">
<rect x="16" y="16" width="16" height="16" transform="rotate(-180 16 16)" fill="white"/>
</clipPath>
</defs>
</svg>
