<svg width="35" height="35" viewBox="0 0 35 35" fill="none" xmlns="http://www.w3.org/2000/svg">
<g clip-path="url(#clip0)">
<path d="M17.5503 18.7514C16.1716 17.9436 14.3665 18.1306 13.1851 19.3119C11.7819 20.7151 11.7819 22.9985 13.1851 24.4017L16.825 28.0416C17.0253 28.2419 17.2878 28.342 17.55 28.342C17.8125 28.342 18.075 28.2419 18.275 28.0416L21.9149 24.4017C23.3181 22.9985 23.3181 20.7151 21.9149 19.3119C20.7338 18.1308 18.9289 17.9436 17.5503 18.7514ZM20.4649 22.9518L17.5503 25.8664L14.6354 22.9518C14.0316 22.348 14.0316 21.3656 14.6354 20.7621C15.2391 20.1584 16.2212 20.1584 16.825 20.7621C17.2255 21.1624 17.8747 21.1624 18.2752 20.7621C18.8787 20.1584 19.8611 20.1584 20.4649 20.7621C21.0686 21.3656 21.0686 22.348 20.4649 22.9518Z" fill="#21AEFE"/>
<path d="M21.8417 13.8343C23.8468 12.4612 25.1654 10.1554 25.1654 7.54678C25.1654 3.34775 21.7493 -0.0683594 17.5502 -0.0683594C13.3509 -0.0683594 9.93482 3.34775 9.93482 7.54678C9.93482 10.1554 11.2534 12.4615 13.2588 13.8345C5.37235 16.5734 4.44336 23.9165 4.44336 26.218V30.0766C4.44336 32.7536 6.62125 34.9317 9.29849 34.9317H25.8017C28.4789 34.9317 30.6568 32.7536 30.6568 30.0766V26.2169C30.6568 23.8666 29.5997 16.5286 21.8417 13.8343ZM11.9856 7.54678C11.9856 4.47862 14.4818 1.98243 17.5502 1.98243C20.6184 1.98243 23.1146 4.47862 23.1146 7.54678C23.1146 10.6152 20.6184 13.1114 17.5502 13.1114C14.4818 13.1114 11.9856 10.6152 11.9856 7.54678ZM28.606 30.0766C28.606 31.623 27.3481 32.8809 25.8017 32.8809H21.9148C21.283 32.8809 20.7722 32.3706 20.7722 31.7372C20.7722 31.0731 21.3095 30.5385 21.9709 30.5385H25.2383C25.8046 30.5385 26.2637 30.0793 26.2637 29.5132V25.1197C26.2637 24.5536 25.8046 24.0943 25.2383 24.0943C24.6719 24.0943 24.2129 24.5536 24.2129 25.1197V28.4878H21.9709C20.1762 28.4878 18.7214 29.9396 18.7214 31.7383C18.7214 32.1351 18.7943 32.5207 18.9321 32.8809H16.1577C16.3 32.5178 16.3788 32.1228 16.3788 31.7097C16.3788 29.9092 14.9165 28.4878 13.1568 28.4878H10.8873V25.12C10.8873 24.5536 10.4283 24.0946 9.86192 24.0946C9.29555 24.0946 8.83653 24.5536 8.83653 25.12V29.5132C8.83653 30.0795 9.29555 30.5385 9.86192 30.5385H13.1568C13.7995 30.5385 14.328 31.0579 14.328 31.7108C14.328 32.3559 13.803 32.8809 13.1579 32.8809H9.29849C7.75212 32.8809 6.49414 31.623 6.49414 30.0766V26.2183C6.49414 20.1009 11.4449 15.1622 17.5513 15.1622C23.6668 15.1622 28.606 20.1119 28.606 26.2172V30.0766Z" fill="#21AEFE"/>
</g>
<defs>
<clipPath id="clip0">
<rect width="35" height="35" fill="white"/>
</clipPath>
</defs>
</svg>
