<svg width="16" height="16" viewBox="0 0 16 16" fill="none" xmlns="http://www.w3.org/2000/svg">
<path d="M4.59478 1.0682L4.63374 1.1603C3.74965 1.53424 2.95591 2.06931 2.27433 2.75088C1.59275 3.43244 1.05768 4.22618 0.683723 5.11028C0.296402 6.02603 0.100002 6.99818 0.100002 8.00015C0.100002 9.00213 0.296402 9.97424 0.683722 10.89C1.0577 11.7741 1.59275 12.5679 2.27433 13.2494C2.95591 13.931 3.74962 14.4661 4.63372 14.84C5.54946 15.2273 6.52159 15.4237 7.52357 15.4237C8.37924 15.4237 9.21822 15.2792 10.0174 14.9942C10.7898 14.7188 11.5077 14.3188 12.1512 13.8052L12.2136 13.8833L12.1512 13.8052C12.7884 13.2967 13.3345 12.6914 13.7744 12.0063C14.2225 11.3083 14.5479 10.5467 14.7414 9.74242C14.8545 9.27235 14.5651 8.79957 14.095 8.68647C13.6249 8.57333 13.1522 8.86275 13.0391 9.33281C12.7464 10.5491 12.0432 11.6512 11.059 12.4367C10.5673 12.8292 10.019 13.1348 9.42939 13.345C8.8193 13.5626 8.17802 13.6729 7.52359 13.6729C6.00857 13.6729 4.58374 13.0826 3.51241 12.0114C2.44109 10.9401 1.85091 9.51518 1.85091 8.00015C1.85091 6.48511 2.44114 5.06029 3.51241 3.98898C4.58372 2.91767 6.00861 2.32748 7.52363 2.32748C8.64308 2.32748 9.72576 2.65294 10.6543 3.26873L10.599 3.35207L10.6543 3.26873C11.4541 3.79921 12.1022 4.51702 12.5456 5.35943L12.6228 5.50601H12.4571H11.379C10.8955 5.50601 10.5035 5.89796 10.5035 6.38146C10.5035 6.86495 10.8955 7.25691 11.379 7.25691H15.0246C15.5081 7.25691 15.9 6.86496 15.9 6.38146V2.6862C15.9 2.20271 15.5081 1.81075 15.0246 1.81075C14.5411 1.81075 14.1491 2.20271 14.1491 2.6862V4.25303V4.62784L13.9624 4.30285C13.3891 3.30485 12.5907 2.45204 11.622 1.80957C10.4057 1.00294 8.98868 0.576563 7.52359 0.576563C6.52161 0.576563 5.54948 0.772963 4.63374 1.1603L4.59478 1.0682Z" fill="#929292" stroke="#424242" stroke-width="0.2"/>
</svg>
