<svg width="14" height="18" viewBox="0 0 14 18" fill="none" xmlns="http://www.w3.org/2000/svg">
<path d="M13.1951 4.44748L9.81937 1.07175C9.70774 0.960114 9.55752 0.9 9.4043 0.9H4.51868C4.19477 0.9 3.93186 1.16291 3.93186 1.48682V4.18198H1.23682C0.912927 4.18198 0.65 4.44476 0.65 4.7688V16.5132C0.65 16.8371 0.912911 17.1 1.23682 17.1H9.49805C9.82206 17.1 10.085 16.8371 10.085 16.5132V13.818H12.78C13.1039 13.818 13.3668 13.5552 13.3668 13.2312V4.86255C13.3668 4.71348 13.3096 4.56194 13.1951 4.44748ZM12.1932 12.6444H10.085V8.14453C10.085 7.99264 10.0259 7.84211 9.91312 7.72934L6.53755 4.35377C6.42694 4.24301 6.27702 4.18186 6.12244 4.18186H5.10562V2.07363H8.81748V4.86255C8.81748 5.18645 9.08039 5.44937 9.4043 5.44937H12.1932V12.6444ZM8.91123 15.9264H1.82363V5.35562H5.5355V8.14453C5.5355 8.46845 5.79843 8.73135 6.12244 8.73135H8.91123V15.9264ZM6.70925 7.55759V6.18539L8.08145 7.55759H6.70925ZM11.3633 4.27573H9.99111V2.90353L11.3633 4.27573Z" fill="#929292" stroke="#929292" stroke-width="0.2"/>
</svg>
