<svg width="16" height="16" viewBox="0 0 16 16" fill="none" xmlns="http://www.w3.org/2000/svg">
<g clip-path="url(#clip0)">
<path d="M5.00002 0C4.44773 0 4.00002 0.447715 4.00002 1C4.00002 1.55228 4.44773 2 5.00002 2H6.97366C7.10738 2 7.19605 2.13859 7.14002 2.26L3.14002 12.26L2.70714 13.3804C2.55822 13.7658 2.18756 14.02 1.77434 14.02H1.02002C0.467735 14.02 0.0200195 14.4677 0.0200195 15.02C0.0200195 15.5723 0.467735 16.02 1.02002 16.02H9.02002C9.5723 16.02 10.02 15.5723 10.02 15.02C10.02 14.4677 9.5723 14.02 9.02002 14.02H7.04638C6.91266 14.02 6.82399 13.8814 6.88002 13.76L10.88 3.76L11.3129 2.6396C11.4618 2.25415 11.8325 2 12.2457 2H13C13.5523 2 14 1.55228 14 1C14 0.447715 13.5523 0 13 0H5.00002Z" fill="#888888"/>
</g>
<defs>
<clipPath id="clip0">
<rect width="16" height="16" fill="white"/>
</clipPath>
</defs>
</svg>
