<svg width="13" height="13" viewBox="0 0 13 13" fill="none" xmlns="http://www.w3.org/2000/svg">
<path d="M6.84149 10.4953C6.38043 10.4953 5.92884 10.4177 5.49928 10.2645C5.08407 10.1164 4.69795 9.90121 4.3516 9.62479C3.65839 9.07152 3.16311 8.2952 2.95707 7.43882C2.86672 7.06334 2.48909 6.83214 2.11357 6.92252C1.73807 7.01287 1.50692 7.39052 1.59727 7.76602C1.73789 8.3504 1.97428 8.90383 2.29988 9.41096C2.6195 9.90876 3.01626 10.3485 3.47917 10.7179C3.94668 11.091 4.4683 11.3817 5.02954 11.5818C5.6103 11.7889 6.21993 11.8939 6.8415 11.8939C7.56935 11.8939 8.27579 11.7512 8.9412 11.4698C9.58356 11.1981 10.1603 10.8093 10.6554 10.3141C11.1506 9.81902 11.5394 9.24226 11.8111 8.59989C12.0925 7.93447 12.2352 7.22804 12.2352 6.50019C12.2352 5.77235 12.0925 5.0659 11.8111 4.40049C11.5394 3.75812 11.1506 3.18136 10.6554 2.68623C10.1603 2.19111 9.58354 1.80229 8.94118 1.5306C8.27577 1.24914 7.56934 1.10645 6.84149 1.10645C5.77711 1.10645 4.74741 1.41625 3.86365 2.00235C3.15991 2.46909 2.57986 3.0887 2.16327 3.81384V2.69056C2.16327 2.30434 1.85018 1.99125 1.46396 1.99125C1.07774 1.99125 0.764648 2.30434 0.764648 2.69056V5.33973C0.764648 5.72595 1.07774 6.03904 1.46396 6.03904H4.07751C4.46371 6.03904 4.77682 5.72595 4.77682 5.33973C4.77682 4.95352 4.46371 4.64042 4.07751 4.64042H3.30458C3.61687 4.04716 4.07326 3.5416 4.63668 3.16793C5.29054 2.73429 6.05293 2.50508 6.84146 2.50508C7.90858 2.50508 8.91187 2.92064 9.66645 3.67523C10.421 4.42982 10.8366 5.43306 10.8366 6.50019C10.8366 7.56732 10.4211 8.5706 9.66645 9.32518C8.91185 10.0798 7.9086 10.4953 6.84149 10.4953Z" fill="#23CA47"/>
</svg>
