<svg width="97" height="84" viewBox="0 0 97 84" fill="none" xmlns="http://www.w3.org/2000/svg">
<path fill-rule="evenodd" clip-rule="evenodd" d="M46.6866 82.2433C45.5507 83.3681 44.0101 84 42.4039 84C40.7976 84 39.2571 83.3681 38.1211 82.2433L1.77492 46.2433C0.639278 45.1181 0.00131579 43.5923 0.00131593 42.0013C0.00131607 40.4103 0.639279 38.8844 1.77492 37.7593L38.1211 1.75927C39.2636 0.666323 40.7938 0.0615567 42.3821 0.0752287C43.9704 0.0889007 45.4897 0.71992 46.6129 1.83236C47.736 2.94481 48.3731 4.4497 48.3869 6.02287C48.4007 7.59605 47.7901 9.11166 46.6867 10.2433L20.681 36.0013L90.8654 36.0013C92.472 36.0013 94.0128 36.6334 95.1488 37.7586C96.2849 38.8839 96.9231 40.41 96.9231 42.0013C96.9231 43.5926 96.2849 45.1187 95.1488 46.2439C94.0128 47.3691 92.472 48.0013 90.8654 48.0013L20.681 48.0013L46.6867 73.7593C47.8223 74.8844 48.4603 76.4103 48.4603 78.0013C48.4603 79.5923 47.8223 81.1181 46.6866 82.2433Z" fill="#353535"/>
</svg>
