<svg width="84" height="82" viewBox="0 0 84 82" fill="none" xmlns="http://www.w3.org/2000/svg">
<path d="M81.8647 38.2011C83.8008 36.3136 84.4846 33.5438 83.649 30.9721C82.8133 28.4004 80.6321 26.5614 77.9563 26.1725L57.5396 23.2057C57.5022 23.2003 57.4702 23.1768 57.4536 23.1433L48.3235 4.64298C47.1271 2.21814 44.7038 0.711426 41.9995 0.711426C39.2952 0.711426 36.8723 2.21814 35.6759 4.64298L26.5454 23.1433C26.5288 23.1768 26.4968 23.1999 26.4595 23.2057L6.04312 26.1725C3.36735 26.5614 1.1861 28.4004 0.350455 30.9721C-0.485193 33.5438 0.198589 36.3136 2.13469 38.2011L16.9081 52.6018C16.9351 52.628 16.9474 52.6658 16.9409 52.7028L13.4533 73.037C12.9962 75.702 14.0716 78.345 16.259 79.9342C18.4468 81.5242 21.2925 81.7292 23.6858 80.4711L41.9467 70.8708C41.9799 70.8531 42.0199 70.8535 42.0531 70.8708L60.314 80.4711C61.3551 81.0185 62.4814 81.2887 63.6023 81.2887C65.0581 81.2887 66.5047 80.8323 67.7404 79.9342C69.9278 78.345 71.0028 75.702 70.5461 73.0366L67.0586 52.7028C67.052 52.6658 67.0647 52.628 67.0913 52.6018L81.8647 38.2011ZM60.22 53.8753L63.7075 74.2092C63.7167 74.2631 63.7194 74.2793 63.662 74.321C63.6046 74.3626 63.5899 74.3549 63.5417 74.3294L45.2804 64.7287C43.226 63.6491 40.7726 63.6491 38.7174 64.7287L20.4565 74.329C20.4083 74.3541 20.3937 74.3622 20.3363 74.3206C20.2788 74.2789 20.2815 74.2627 20.2908 74.2092L23.7783 53.8749C24.1707 51.5869 23.4125 49.2538 21.7501 47.633L6.97744 33.2327C6.93851 33.1946 6.92656 33.1834 6.94853 33.1159C6.9705 33.0485 6.98669 33.0462 7.04065 33.0381L27.457 30.0713C29.7546 29.7375 31.7397 28.2955 32.7669 26.2137L41.8974 7.71306C41.9216 7.6645 41.9286 7.64947 41.9995 7.64947C42.0704 7.64947 42.0778 7.6645 42.1017 7.71306L51.2321 26.2137C52.2597 28.2955 54.2444 29.7379 56.542 30.0713L76.9584 33.0381C77.0123 33.0462 77.0285 33.0485 77.0505 33.1159C77.0725 33.1834 77.0605 33.1949 77.0216 33.2327L62.2482 47.6334C60.5861 49.2538 59.828 51.5873 60.22 53.8753Z" fill="#353535"/>
<path d="M60.22 53.8753L63.7075 74.2092C63.7167 74.2631 63.7194 74.2793 63.662 74.321C63.6046 74.3626 63.5899 74.3549 63.5417 74.3294L45.2804 64.7287C43.226 63.6491 40.7726 63.6491 38.7174 64.7287L20.4565 74.329C20.4083 74.3541 20.3937 74.3622 20.3363 74.3206C20.2788 74.2789 20.2815 74.2627 20.2908 74.2092L23.7783 53.8749C24.1707 51.5869 23.4125 49.2538 21.7501 47.633L6.97744 33.2327C6.93851 33.1946 6.92656 33.1834 6.94853 33.1159C6.9705 33.0485 6.98669 33.0462 7.04065 33.0381L27.457 30.0713C29.7546 29.7375 31.7397 28.2955 32.7669 26.2137L41.8974 7.71306C41.9216 7.6645 41.9286 7.64947 41.9995 7.64947C42.0704 7.64947 42.0778 7.6645 42.1017 7.71306L51.2321 26.2137C52.2597 28.2955 54.2444 29.7379 56.542 30.0713L76.9584 33.0381C77.0123 33.0462 77.0285 33.0485 77.0505 33.1159C77.0725 33.1834 77.0605 33.1949 77.0216 33.2327L62.2482 47.6334C60.5861 49.2538 59.828 51.5873 60.22 53.8753Z" fill="#353535"/>
</svg>
