<svg width="84" height="84" viewBox="0 0 84 84" fill="none" xmlns="http://www.w3.org/2000/svg">
<g clip-path="url(#clip0)">
<path d="M81.8132 71.4207L48.8752 38.4825L10.3927 0H7.38529L6.7712 1.5604C5.15043 5.67902 4.45792 9.89149 4.76882 13.7419C5.12319 18.1309 6.79056 21.9307 9.59094 24.7311L39.6324 54.7726L43.5949 50.8102L71.3682 81.866C74.131 84.6289 78.8864 84.7929 81.8132 81.866C84.6932 78.9861 84.6932 74.3005 81.8132 71.4207Z" fill="#353535"/>
<path d="M25.714 47.8149L2.1856 71.3433C-0.694027 74.2229 -0.694027 78.9087 2.1856 81.7883C4.92118 84.5239 9.65356 84.7654 12.6306 81.7883L36.1592 58.2598L25.714 47.8149Z" fill="#353535"/>
<path d="M80.4331 13.986L67.0865 27.3325L63.6046 23.8508L76.9512 10.5041L73.4695 7.02239L60.123 20.3689L56.6413 16.8871L69.9879 3.54065L66.5064 0.059082L49.0977 17.4678C46.968 19.5974 45.6963 22.4252 45.5165 25.4305C45.4711 26.1919 45.2985 26.9409 45.0122 27.6532L56.3209 38.9619C57.0332 38.6753 57.7823 38.5029 58.5436 38.4574C61.5489 38.2781 64.3767 37.0061 66.5064 34.8764L83.915 17.4679L80.4331 13.986Z" fill="#353535"/>
</g>
<defs>
<clipPath id="clip0">
<rect width="84" height="84" fill="white"/>
</clipPath>
</defs>
</svg>
