<svg width="35" height="35" viewBox="0 0 35 35" fill="none" xmlns="http://www.w3.org/2000/svg">
<g clip-path="url(#clip0)">
<path d="M24.7508 17.5L34.0992 8.15158C34.6803 7.5706 35.0002 6.79807 35.0002 5.97646C35.0002 5.15471 34.6802 4.38225 34.0992 3.80126L31.199 0.901045C30.618 0.31999 29.8454 0 29.0238 0C28.2022 0 27.4297 0.31999 26.8486 0.901045L17.5002 10.2494L7.55113 0.300371C7.35884 0.108008 7.09805 0 6.82611 0C6.55411 0 6.29339 0.108008 6.1011 0.300371L0.30053 6.10087C-0.0998511 6.50125 -0.0998511 7.15053 0.30053 7.55098L10.2496 17.5L3.26917 24.4804C3.15775 24.5919 3.07353 24.7274 3.02294 24.8767L0.054436 33.6458C-0.0706616 34.0153 0.0247681 34.4238 0.300666 34.6996C0.496174 34.8951 0.758196 35.0001 1.02582 35C1.13581 35 1.24683 34.9823 1.35449 34.9459L10.1236 31.9772C10.2728 31.9267 10.4084 31.8424 10.5198 31.731L17.5002 24.7506L27.4493 34.6997C27.6416 34.892 27.9024 35.0001 28.1743 35.0001C28.4463 35.0001 28.7071 34.8921 28.8994 34.6997L34.6999 28.8991C35.1002 28.4987 35.1002 27.8495 34.6999 27.449L24.7508 17.5ZM21.8505 14.5997L27.0219 9.42833L28.472 10.8784L23.3007 16.0498L21.8505 14.5997ZM28.2987 2.35115C28.4924 2.15749 28.7499 2.05078 29.0238 2.05078C29.2978 2.05078 29.5552 2.15749 29.7489 2.35115L32.6491 5.25137C32.8428 5.44496 32.9494 5.70254 32.9494 5.97646C32.9494 6.25037 32.8428 6.50781 32.6491 6.70147L29.9222 9.4284L25.5718 5.07801L28.2987 2.35115ZM24.1217 6.52812L25.5719 7.97829L20.4005 13.1497L18.9503 11.6995L24.1217 6.52812ZM13.1499 20.4003L6.89454 26.6556L5.44437 25.2055L11.6997 18.9501L13.1499 20.4003ZM4.43627 27.0977L7.90264 30.564L2.66228 32.338L4.43627 27.0977ZM9.79476 29.5559L8.34458 28.1057L14.6 21.8503L16.0501 23.3004L9.79476 29.5559ZM28.1743 32.5245L26.5548 30.9049L27.7632 29.6965C28.1637 29.2961 28.1637 28.6468 27.7632 28.2464C27.3628 27.846 26.7136 27.846 26.3131 28.2464L25.1047 29.4548L23.5534 27.9036L24.7619 26.6952C25.1624 26.2948 25.1624 25.6455 24.7619 25.2451C24.3615 24.8447 23.7122 24.8447 23.3118 25.2451L22.1033 26.4535L20.5521 24.9023L21.7606 23.6938C22.161 23.2935 22.161 22.6442 21.7606 22.2437C21.3602 21.8434 20.7109 21.8434 20.3105 22.2437L19.102 23.4522L17.5508 21.901L18.7593 20.6925C19.1597 20.2921 19.1597 19.6429 18.7593 19.2424C18.3589 18.842 17.7096 18.842 17.3092 19.2424L16.1007 20.4509L14.5495 18.8997L15.758 17.6912C16.1584 17.2908 16.1584 16.6415 15.758 16.2411C15.3576 15.8407 14.7083 15.8407 14.3078 16.2411L13.0994 17.4496L11.5482 15.8983L12.7566 14.6899C13.1571 14.2895 13.1571 13.6402 12.7566 13.2398C12.3563 12.8394 11.707 12.8394 11.3065 13.2398L10.0981 14.4482L8.54686 12.897L9.75531 11.6886C10.1558 11.2882 10.1558 10.6389 9.75531 10.2385C9.35493 9.83808 8.70566 9.83808 8.30521 10.2385L7.09661 11.4468L5.5454 9.89557L6.75386 8.68711C7.15431 8.28673 7.15431 7.63745 6.75386 7.237C6.35348 6.83662 5.7042 6.83662 5.30375 7.237L4.09529 8.44546L2.47572 6.82596L6.82605 2.4755L32.5247 28.1741L28.1743 32.5245Z" fill="#23CA47"/>
</g>
<defs>
<clipPath id="clip0">
<rect width="35" height="35" fill="white"/>
</clipPath>
</defs>
</svg>
