<svg width="16" height="16" viewBox="0 0 16 16" fill="none" xmlns="http://www.w3.org/2000/svg">
<g clip-path="url(#clip0)">
<path d="M0.416263 9.95019L15.0817 15.9497C15.5202 16.1291 16.0007 15.8065 16.0007 15.3327L16.0007 9.33321C16.0007 8.96505 15.7023 8.66661 15.3341 8.66661L0.668648 8.66661C-0.0624155 8.66661 -0.260399 9.6734 0.416263 9.95019ZM14.6675 9.99981L14.6675 14.3398L4.05871 9.99981L14.6675 9.99981Z" fill="#929292"/>
<path d="M15.0809 0.0504163L0.415508 6.04992C-0.261123 6.32671 -0.0631393 7.3335 0.667893 7.3335L15.3333 7.3335C15.7015 7.3335 15.9999 7.03505 15.9999 6.6669L15.9999 0.667397C16 0.193562 15.5195 -0.129006 15.0809 0.0504163ZM14.6667 6.00026L4.05795 6.00026L14.6667 1.66031L14.6667 6.00026Z" fill="#929292"/>
</g>
<defs>
<clipPath id="clip0">
<rect width="16" height="16" fill="white" transform="translate(0 16) rotate(-90)"/>
</clipPath>
</defs>
</svg>
