<svg width="95" height="49" viewBox="0 0 95 49" fill="none" xmlns="http://www.w3.org/2000/svg">
<g clip-path="url(#clip0)">
<path d="M94.2398 4.93199C93.9855 2.84747 92.4415 1.18606 90.4752 0.862595C81.8569 0.862595 12.9117 0.862595 4.29333 0.862595C2.13956 1.21709 0.491211 3.17583 0.491211 5.53644C0.491211 9.33139 0.491211 39.6844 0.491211 43.4777C0.491211 46.0916 2.50803 48.2104 4.99767 48.2104C13.4742 48.2104 81.2944 48.2104 89.7709 48.2104C92.0632 48.2104 93.9562 46.4118 94.2398 44.0838C94.2398 36.2538 94.2398 8.84619 94.2398 4.93199Z" fill="#F6C700"/>
<path d="M11.7981 10.3769H19.2377V39.0718H11.7981V10.3769Z" fill="black"/>
<path d="M33.2951 23.5947C32.6559 19.2214 32.3005 16.7906 32.2304 16.3054C31.919 13.9644 31.6223 11.9272 31.3386 10.189C30.6946 10.189 27.481 10.189 21.6931 10.189V38.8839H28.2098L28.2326 19.937L30.975 38.8839H35.6168L38.2173 19.5155L38.2417 38.8839H44.7373V10.189H35.0184L33.2951 23.5947Z" fill="black"/>
<path d="M57.0191 16.1584C57.1007 16.5243 57.1431 17.3542 57.1431 18.6513C57.1431 19.7638 57.1431 28.6639 57.1431 29.7764C57.1431 31.6861 57.0191 32.8558 56.7729 33.2871C56.5251 33.7184 55.8664 33.9324 54.7985 33.9324C54.7985 32.0488 54.7985 16.9801 54.7985 15.0965C55.6088 15.0965 56.1615 15.1831 56.455 15.353C56.7485 15.5245 56.9376 15.7924 57.0191 16.1584ZM60.3794 38.5915C61.2647 38.3971 62.0082 38.0541 62.6114 37.5656C63.2131 37.0755 63.6353 36.3975 63.8766 35.5301C64.1196 34.6643 64.2631 32.944 64.2631 30.371C64.2631 29.3647 64.2631 21.3027 64.2631 20.2947C64.2631 17.5796 64.1571 15.7598 63.9924 14.8351C63.8261 13.9088 63.4136 13.0675 62.7533 12.3128C62.0913 11.558 61.1261 11.0157 59.8577 10.6857C58.5876 10.3557 56.517 10.189 52.9154 10.189C52.5453 10.189 50.6964 10.189 47.3655 10.189V38.8839H56.3784C58.4555 38.8186 59.7892 38.7222 60.3794 38.5915Z" fill="black"/>
<path d="M76.2662 34.3032C76.1292 34.6675 75.5292 34.8521 75.076 34.8521C74.6325 34.8521 74.3374 34.6757 74.1874 34.3212C74.0374 33.9683 73.964 33.1629 73.964 31.9018C73.964 31.1438 73.964 25.0764 73.964 24.3184C73.964 23.0115 74.0293 22.1963 74.1613 21.8712C74.2918 21.5494 74.5787 21.386 75.0222 21.386C75.4754 21.386 76.0836 21.5706 76.2401 21.9415C76.395 22.3123 76.4732 23.1046 76.4732 24.3184C76.4732 24.8085 76.4732 27.259 76.4732 31.6714C76.426 33.1825 76.3575 34.0598 76.2662 34.3032ZM66.7968 38.634H73.4945C73.7733 37.5378 73.9265 36.9285 73.9575 36.806C74.564 37.5411 75.2309 38.0933 75.9629 38.4592C76.6917 38.8268 77.7825 39.0097 78.627 39.0097C79.8025 39.0097 80.8167 38.701 81.6726 38.0818C82.527 37.4643 83.0715 36.7324 83.303 35.8911C83.5346 35.0482 83.6503 33.7674 83.6503 32.0455C83.6503 31.2401 83.6503 24.8003 83.6503 23.9949C83.6503 22.2633 83.6112 21.1328 83.5346 20.6019C83.4579 20.0709 83.2297 19.5302 82.8498 18.9764C82.4699 18.4226 81.9172 17.9929 81.1933 17.6858C80.4694 17.3787 79.615 17.2251 78.6303 17.2251C77.7743 17.2251 76.6787 17.3967 75.9483 17.7348C75.2195 18.073 74.5575 18.586 73.964 19.2737C73.964 18.6513 73.964 15.5409 73.964 9.9391H66.7968V38.634Z" fill="black"/>
</g>
<defs>
<clipPath id="clip0">
<rect width="93.7486" height="47.3478" fill="white" transform="translate(0.491211 0.862595)"/>
</clipPath>
</defs>
</svg>
