<svg width="151" height="44" viewBox="0 0 151 44" fill="none" xmlns="http://www.w3.org/2000/svg">
    <path fill-rule="evenodd" clip-rule="evenodd" d="M34.9491 35.6207L24.5245 26.7862C24.5245 26.7862 23.1123 25.3928 21.5284 25.3928C19.9285 25.3928 18.5163 26.7862 18.5163 26.7862L8.09494 35.6207L8.06154 35.5902L16.8051 25.0553C16.8051 25.0553 18.1807 23.633 18.1807 22.013C18.1807 20.4091 16.8051 18.9852 16.8051 18.9852L8.06154 8.44231L8.09494 8.40534L18.5163 17.2495C18.5163 17.2495 19.9285 18.6461 21.5284 18.6461C23.1123 18.6461 24.5245 17.2495 24.5245 17.2495L34.9491 8.40534L34.992 8.45195L26.2309 18.9852C26.2309 18.9852 24.8649 20.4091 24.8649 22.013C24.8649 23.633 26.2309 25.0553 26.2309 25.0553L34.992 35.5869L34.9491 35.6207ZM39.8266 22.013V22.0098C39.8266 19.1539 39.9411 16.5937 42.0371 12.0969C42.643 10.7887 43.9837 8.88266 42.0085 6.65838C40.4039 5.04159 38.5814 5.30677 37.3536 6.02195C38.0597 4.78124 38.3221 2.93141 36.7191 1.3082C34.5197 -0.681443 32.6272 0.670164 31.339 1.2857C26.8846 3.40874 24.3639 3.52606 21.5284 3.52606C18.6817 3.52606 16.1579 3.40874 11.7129 1.2857C10.4184 0.670164 8.51796 -0.681443 6.32491 1.3082C4.72187 2.93141 4.99222 4.78124 5.69833 6.02195C4.46742 5.30356 2.64173 5.04159 1.03551 6.65838C-0.938075 8.88266 0.408925 10.7887 1.0037 12.0969C3.11247 16.5937 3.22856 19.1539 3.22856 22.013C3.22856 24.8802 3.11247 27.4468 1.0037 31.9403C0.408925 33.2389 -0.938075 35.1578 1.03551 37.3805C2.64173 38.9925 4.46742 38.7257 5.69833 38.0186C4.99222 39.2625 4.72187 41.1075 6.32491 42.7146C8.51796 44.7187 10.4184 43.3639 11.7129 42.7484C16.161 40.627 18.6817 40.5145 21.5284 40.5145C24.3639 40.5145 26.8846 40.627 31.3375 42.7484C32.6272 43.3639 34.5197 44.7187 36.7191 42.7146C38.3221 41.1075 38.0534 39.2625 37.3505 38.0186C38.5814 38.7257 40.4039 39.0021 42.0085 37.3805C43.9837 35.1578 42.643 33.2389 42.0371 31.9403C39.9411 27.4403 39.8266 24.8802 39.8266 22.013Z" fill="#FF3333"/>
    <path fill-rule="evenodd" clip-rule="evenodd" d="M73.8371 38.8704C77.4106 37.5766 81.8332 31.4148 81.1001 21.7109C80.394 12.3236 76.8524 4.9484 67.4218 4.25572C67.4218 4.25572 65.6358 4.12554 64.1394 4.11911C62.5347 4.10786 62.1912 4.05322 62.0719 5.78572C61.8668 9.02733 61.808 34.2739 62.0131 37.9173C62.037 38.4171 62.091 39.6161 64.1489 39.8266C67.9116 40.1946 71.0238 39.8989 73.8371 38.8704ZM70.1889 2.65661C78.1691 2.61965 88.67 8.14822 88.6287 21.96C88.6016 33.9734 80.0171 41.3727 72.0894 41.3727L51.9575 41.3775L51.983 40.9484C53.1153 40.7443 54.3875 40.0307 54.599 39.2689C55.2654 36.3745 55.1143 9.89197 54.7104 5.53018C54.5831 4.16572 53.5176 3.28661 52.2247 3.07126L52.1849 2.65661C52.1849 2.65661 68.4014 2.66626 70.1889 2.65661ZM114.328 31.8825C114.487 23.5623 108.452 21.3557 102.202 21.0102C102.072 21.0005 102.121 20.6888 102.218 20.6727C104.249 20.5907 112.323 19.6457 111.995 11.8511C111.668 4.25572 105.966 4.08536 103.881 4.05322C102.18 4.03072 101.809 4.03072 101.09 4.06608C99.8802 4.11911 99.578 4.20911 99.5844 5.53661C99.5844 5.70536 99.3188 19.2198 99.1598 28.7213C99.085 33.885 99.0643 37.8611 99.0643 37.8611C99.0946 38.8077 98.9785 39.7672 101.284 39.8764C103.665 39.9938 106.734 40.0934 108.883 39.6321C110.85 39.2079 114.195 37.7518 114.328 31.8825ZM111.858 20.6968C121.246 23.048 121.812 29.8961 121.682 31.8214C121.252 40.3955 114.058 41.3775 111.16 41.3775H89.0135L89.039 40.9452C90.6484 40.7218 91.8554 39.8314 91.8554 36.9739L91.9858 7.4459C92.0224 4.24447 91.1891 3.26572 89.435 3.05679L89.3952 2.65661H106.141C109.215 2.65661 118.473 2.03947 119.261 10.6393C119.888 17.5211 112.406 20.3963 111.858 20.6968ZM147.97 2.77393L148.35 2.77072L148.48 9.67019L148.062 9.66697C147.389 6.85768 144.718 4.20911 139.36 3.93268C133.032 3.59679 130.297 7.40733 130.255 11.0138C130.219 15.8063 133.919 16.7963 139.401 18.1479C141.984 18.7859 151.554 20.0475 150.788 30.915C150.257 38.5055 143.771 42.1152 134.589 41.8291C134.589 41.8291 130.774 41.7005 125.445 40.2075C124.459 39.9246 124.196 40.2605 123.8 40.995L123.364 41.0175L123.379 33.578L123.8 33.5989C124.01 34.3527 124.069 35.7557 125.421 36.945C126.405 37.8225 128.719 39.9889 133.794 40.0452C138.775 40.1127 142.903 37.988 143.456 32.3405C143.608 30.8218 143.449 27.3455 140.09 25.7609C137.463 24.5202 130.168 23.7021 126.633 20.5698C126.633 20.5698 122.439 17.6175 123.1 12.1066C124.029 4.3184 130.462 2.37054 136.241 2.25161C136.241 2.25161 141.411 2.20018 145.53 3.27536C145.53 3.27536 146.539 3.55179 147.373 3.23036C147.712 3.11626 147.871 2.90251 147.97 2.77393Z" fill="black"/>
</svg>
