<svg width="105" height="37" viewBox="0 0 105 37" fill="none" xmlns="http://www.w3.org/2000/svg">
<g clip-path="url(#clip0)">
<path d="M0.694824 1.18252H5.42052V11.4042C6.5387 9.32979 8.91749 8.43018 11.2633 8.46193C14.3298 8.46193 16.2409 9.50971 17.3963 11.2348C18.5868 12.96 18.946 15.299 18.946 17.9554V28.8026H14.2267V18.1555C14.2267 16.6484 13.9823 15.355 13.3233 14.4216C12.643 13.487 11.5588 12.8764 9.90069 12.8764C8.02996 12.8764 6.91391 13.631 6.26553 14.6015C5.61716 15.571 5.43646 16.7553 5.43646 17.7607V28.7888H0.694824V1.18146V1.18252ZM35.9792 16.8992C35.7985 15.0322 33.8151 12.4096 30.3521 12.4456C26.853 12.4456 24.9419 14.9603 24.7612 16.8992H35.9792ZM24.6889 20.4913C24.9058 23.6516 27.7182 25.4127 30.4233 25.3756C32.7299 25.3756 34.2817 24.3342 35.1852 22.7191H40.0533C39.1073 24.9099 37.7043 26.561 36.0461 27.6744C34.388 28.8238 32.4322 29.3995 30.3808 29.3995C24.2797 29.3995 19.9218 24.4781 19.9218 18.9831C19.9218 13.3791 24.3222 8.45876 30.3064 8.45876C33.2613 8.45876 35.8548 9.57321 37.6936 11.4751C40.1086 13.9548 41.0099 17.0421 40.6166 20.4923H24.673L24.6889 20.4913ZM46.1852 19.018C46.1852 21.4607 47.9539 25.0158 52.2087 25.0158C54.8426 25.0158 56.5741 23.6505 57.4755 21.8555C57.9453 20.994 58.161 20.0595 58.2333 19.09C58.2695 18.1565 58.0888 17.1871 57.6912 16.3245C56.8622 14.4576 55.0233 12.8425 52.1747 12.8425C48.3504 12.8425 46.1852 15.9297 46.1852 18.981V19.018ZM62.9218 28.7867H58.1982V25.9503C56.9334 28.2491 54.3016 29.3985 51.5232 29.3985C45.1776 29.3985 41.4606 24.4771 41.4606 18.9101C41.4606 12.6975 45.9695 8.45876 51.5242 8.45876C55.1381 8.45876 57.3383 10.3638 58.1993 11.9429V9.06943H62.9292V28.7867H62.9218ZM75.4748 28.7867H70.8575L63.4979 9.06943H68.4043L73.1661 22.8599L77.928 9.06943H82.8322L75.4748 28.7867Z" fill="#0D0D0D"/>
<path d="M89.2161 28.0332L81.7502 9.06944H86.7991L91.6332 22.1783L96.395 9.07578H101.444L91.0188 35.682H85.97L89.2161 28.0332ZM104.288 25.4031C104.288 27.3717 102.928 28.6841 100.975 28.6841C99.0619 28.6841 97.6981 27.2944 97.6981 25.4031C97.6981 23.5119 99.0608 22.1222 100.975 22.1222C102.927 22.1222 104.288 23.5119 104.288 25.4031Z" fill="#0D0D0D"/>
</g>
<defs>
<clipPath id="clip0">
<rect width="104.165" height="35.9843" fill="white" transform="translate(0.694824 0.544327)"/>
</clipPath>
</defs>
</svg>
