<svg width="107" height="36" viewBox="0 0 107 36" fill="none" xmlns="http://www.w3.org/2000/svg">
<g clip-path="url(#clip0)">
<path d="M13.3369 9.28314C5.96582 9.28314 0 15.1357 0 22.3669C0 29.5981 5.96582 35.4506 13.3369 35.4506C20.708 35.4506 26.6739 29.5981 26.6739 22.3669C26.6739 15.1357 20.708 9.28314 13.3369 9.28314ZM13.3369 28.9218C9.65137 28.9218 6.65521 25.9825 6.65521 22.3669C6.65521 18.7513 9.65137 15.812 13.3369 15.812C17.0225 15.812 20.0186 18.7513 20.0186 22.3669C20.0186 25.9825 17.0225 28.9218 13.3369 28.9218Z" fill="#007DC1"/>
<path d="M36.7759 26.7628C36.7759 25.7224 38.0486 25.2281 38.7911 25.9565C42.1319 29.2859 47.647 35.0084 47.6735 35.0344C47.7531 35.1125 47.8326 35.2425 48.1508 35.3466C48.2834 35.3986 48.4955 35.3986 48.7341 35.3986H54.753C55.8401 35.3986 56.1582 34.1761 55.6545 33.5518L45.6849 23.5374L45.1546 23.0172C44.0145 21.6906 44.147 21.1704 45.4463 19.8178L53.3477 11.156C53.8514 10.5317 53.5333 9.33517 52.4197 9.33517H46.9576C46.7455 9.33517 46.5864 9.33517 46.4273 9.38719C46.1091 9.49124 45.9766 9.59528 45.897 9.69933C45.8705 9.72534 41.4956 14.3554 38.7911 17.1906C38.0486 17.971 36.7229 17.4507 36.7229 16.3843V1.53174C36.7229 0.777413 36.0866 0.491287 35.5828 0.491287H31.1283C30.3594 0.491287 29.9882 0.985504 29.9882 1.4277V34.3581C29.9882 35.1125 30.6245 35.3206 31.1548 35.3206H35.6093C36.2987 35.3206 36.7494 34.8264 36.7494 34.3321V33.994V26.7628H36.7759Z" fill="#007DC1"/>
<path d="M73.1543 34.2021L72.677 29.8322C72.624 29.2339 72.0407 28.8177 71.4308 28.9218C71.0861 28.9738 70.7414 28.9998 70.3967 28.9998C66.8438 28.9998 63.9537 26.2686 63.7415 22.8091C63.7415 22.705 63.7415 22.575 63.7415 22.4449V17.0866C63.7415 16.3843 64.2718 15.812 64.9877 15.812H70.9536C71.3778 15.812 72.0142 15.4478 72.0142 14.6935V10.5577C72.0142 9.75135 71.4839 9.33517 71.0066 9.33517H64.9877C64.2984 9.33517 63.7415 8.84095 63.715 8.16465V1.53174C63.715 1.11556 63.3968 0.491287 62.5749 0.491287H58.1469C57.5901 0.491287 57.0598 0.829436 57.0598 1.50573C57.0598 1.50573 57.0598 22.705 57.0598 22.8091C57.2454 29.8842 63.1582 35.5287 70.3967 35.5287C71.0066 35.5287 71.5899 35.4766 72.1732 35.3986C72.8096 35.3206 73.2338 34.8003 73.1543 34.2021Z" fill="#007DC1"/>
<path d="M105.29 28.7137C101.525 28.7137 100.942 27.3871 100.942 22.4189C100.942 22.3929 100.942 22.3929 100.942 22.3669V10.4276C100.942 10.0115 100.624 9.30916 99.775 9.30916H95.3206C94.7638 9.30916 94.1539 9.75135 94.1539 10.4276V10.9739C92.2183 9.88141 89.9646 9.25713 87.5783 9.25713C80.2071 9.25713 74.2413 15.1097 74.2413 22.3409C74.2413 29.572 80.2071 35.4246 87.5783 35.4246C90.8926 35.4246 93.9153 34.2281 96.2486 32.2772C97.4948 34.1501 99.5099 35.3986 102.665 35.4246C103.195 35.4246 106.059 35.5287 106.059 34.2021V29.546C106.059 29.1559 105.741 28.7137 105.29 28.7137ZM87.6048 28.9218C83.9192 28.9218 80.9231 25.9825 80.9231 22.3669C80.9231 18.7513 83.9192 15.812 87.6048 15.812C91.2903 15.812 94.2865 18.7513 94.2865 22.3669C94.26 25.9825 91.2638 28.9218 87.6048 28.9218Z" fill="#007DC1"/>
</g>
<defs>
<clipPath id="clip0">
<rect width="106.059" height="35.0374" fill="white" transform="translate(0 0.491287)"/>
</clipPath>
</defs>
</svg>
