<svg width="174" height="45" viewBox="0 0 174 45" fill="none" xmlns="http://www.w3.org/2000/svg">
<path d="M20.5169 1.98643C21.6116 0.889898 23.3884 0.889898 24.4831 1.98643C25.3166 2.82134 26.5838 3.04478 27.6526 2.5453C29.0563 1.8893 30.7259 2.497 31.3795 3.90181C31.8772 4.97144 32.9916 5.6148 34.1667 5.51099C35.7102 5.37465 37.0713 6.51675 37.205 8.0604C37.3068 9.23575 38.1339 10.2214 39.2737 10.5258C40.7707 10.9256 41.6591 12.4643 41.2568 13.9606C40.9505 15.0999 41.3906 16.309 42.3576 16.9849C43.6275 17.8725 43.9361 19.6223 43.0463 20.8908C42.3688 21.8566 42.3688 23.1434 43.0463 24.1092C43.9361 25.3777 43.6275 27.1275 42.3576 28.0151C41.3906 28.691 40.9505 29.9001 41.2568 31.0394C41.6591 32.5357 40.7707 34.0744 39.2737 34.4742C38.1339 34.7786 37.3068 35.7643 37.205 36.9396C37.0713 38.4832 35.7102 39.6254 34.1667 39.489C32.9916 39.3852 31.8772 40.0286 31.3795 41.0982C30.7259 42.503 29.0563 43.1107 27.6526 42.4547C26.5838 41.9552 25.3166 42.1787 24.4831 43.0136C23.3884 44.1101 21.6116 44.1101 20.5169 43.0136C19.6834 42.1787 18.4162 41.9552 17.3474 42.4547C15.9437 43.1107 14.2741 42.503 13.6205 41.0982C13.1228 40.0286 12.0084 39.3852 10.8333 39.489C9.28985 39.6254 7.92874 38.4832 7.795 36.9396C7.69317 35.7643 6.86608 34.7786 5.72627 34.4742C4.2293 34.0744 3.3409 32.5357 3.74318 31.0394C4.04949 29.9001 3.6094 28.691 2.64244 28.0151C1.37247 27.1275 1.06393 25.3777 1.95372 24.1092C2.63121 23.1434 2.63121 21.8566 1.95372 20.8908C1.06393 19.6223 1.37247 17.8725 2.64244 16.9849C3.6094 16.309 4.04949 15.0999 3.74318 13.9606C3.3409 12.4643 4.2293 10.9256 5.72627 10.5258C6.86608 10.2214 7.69317 9.23575 7.795 8.0604C7.92874 6.51675 9.28985 5.37465 10.8333 5.51099C12.0084 5.6148 13.1228 4.97144 13.6205 3.90181C14.2741 2.497 15.9437 1.8893 17.3474 2.5453C18.4162 3.04478 19.6834 2.82134 20.5169 1.98643Z" fill="#959595"/>
<ellipse cx="28.7243" cy="21.9898" rx="4.93647" ry="7.97429" transform="rotate(0.180268 28.7243 21.9898)" fill="#F5F5F5"/>
<ellipse cx="15.8814" cy="22.3252" rx="3.7121" ry="3.66497" transform="rotate(-23.9868 15.8814 22.3252)" fill="#F5F5F5"/>
<path d="M63.0142 21H59.8867V6.00879H68.4795V8.61328H63.0142V12.479H68.1001V15.0732H63.0142V21ZM74.5908 12.6636H75.6162C76.6211 12.6636 77.3628 12.4961 77.8413 12.1611C78.3198 11.8262 78.5591 11.2998 78.5591 10.582C78.5591 9.87109 78.313 9.36523 77.8208 9.06445C77.3354 8.76367 76.5801 8.61328 75.5547 8.61328H74.5908V12.6636ZM74.5908 15.2476V21H71.4121V6.00879H75.7803C77.8174 6.00879 79.3247 6.38135 80.3022 7.12646C81.2798 7.86475 81.7686 8.98926 81.7686 10.5C81.7686 11.3818 81.5259 12.168 81.0405 12.8584C80.5552 13.542 79.8682 14.0786 78.9795 14.4683C81.2354 17.8384 82.7051 20.0156 83.3887 21H79.8613L76.2827 15.2476H74.5908ZM93.9092 21H85.2754V6.00879H93.9092V8.61328H88.4541V11.9048H93.5298V14.5093H88.4541V18.375H93.9092V21ZM105.681 21H97.0469V6.00879H105.681V8.61328H100.226V11.9048H105.301V14.5093H100.226V18.375H105.681V21ZM114.273 21V6.00879H117.452V18.375H123.533V21H114.273ZM139.754 13.4839C139.754 15.9653 139.139 17.8726 137.909 19.2056C136.678 20.5386 134.915 21.2051 132.618 21.2051C130.321 21.2051 128.557 20.5386 127.327 19.2056C126.096 17.8726 125.481 15.9585 125.481 13.4634C125.481 10.9683 126.096 9.06445 127.327 7.75195C128.564 6.43262 130.334 5.77295 132.638 5.77295C134.942 5.77295 136.702 6.43604 137.919 7.76221C139.143 9.08838 139.754 10.9956 139.754 13.4839ZM128.813 13.4839C128.813 15.1587 129.131 16.4199 129.767 17.2676C130.403 18.1152 131.353 18.5391 132.618 18.5391C135.154 18.5391 136.422 16.854 136.422 13.4839C136.422 10.1069 135.161 8.41846 132.638 8.41846C131.374 8.41846 130.42 8.8457 129.777 9.7002C129.135 10.5479 128.813 11.8091 128.813 13.4839ZM148.552 12.5815H154.5V20.354C153.536 20.6685 152.626 20.8872 151.772 21.0103C150.924 21.1401 150.056 21.2051 149.167 21.2051C146.905 21.2051 145.175 20.542 143.979 19.2158C142.79 17.8828 142.195 15.9722 142.195 13.4839C142.195 11.064 142.885 9.17725 144.266 7.82373C145.654 6.47021 147.575 5.79346 150.029 5.79346C151.567 5.79346 153.05 6.10107 154.479 6.71631L153.423 9.25928C152.329 8.7124 151.191 8.43896 150.008 8.43896C148.634 8.43896 147.534 8.90039 146.707 9.82324C145.879 10.7461 145.466 11.9868 145.466 13.5454C145.466 15.1724 145.797 16.4165 146.46 17.2778C147.13 18.1323 148.101 18.5596 149.373 18.5596C150.036 18.5596 150.709 18.4912 151.393 18.3545V15.2271H148.552V12.5815ZM171.685 13.4839C171.685 15.9653 171.07 17.8726 169.839 19.2056C168.609 20.5386 166.845 21.2051 164.548 21.2051C162.251 21.2051 160.488 20.5386 159.257 19.2056C158.027 17.8726 157.412 15.9585 157.412 13.4634C157.412 10.9683 158.027 9.06445 159.257 7.75195C160.495 6.43262 162.265 5.77295 164.569 5.77295C166.873 5.77295 168.633 6.43604 169.85 7.76221C171.073 9.08838 171.685 10.9956 171.685 13.4839ZM160.744 13.4839C160.744 15.1587 161.062 16.4199 161.698 17.2676C162.333 18.1152 163.284 18.5391 164.548 18.5391C167.084 18.5391 168.353 16.854 168.353 13.4839C168.353 10.1069 167.091 8.41846 164.569 8.41846C163.304 8.41846 162.351 8.8457 161.708 9.7002C161.065 10.5479 160.744 11.8091 160.744 13.4839ZM72.1709 32.3608C72.1709 34.8354 71.4839 36.729 70.1099 38.0415C68.7358 39.3472 66.7568 40 64.1729 40H59.979V25.0088H64.6138C66.9995 25.0088 68.8555 25.6514 70.1816 26.9365C71.5078 28.2217 72.1709 30.0298 72.1709 32.3608ZM69.5869 32.4429C69.5869 28.854 67.9087 27.0596 64.5522 27.0596H62.4297V37.939H64.1729C67.7822 37.939 69.5869 36.1069 69.5869 32.4429ZM83.8809 40H75.4009V25.0088H83.8809V27.0801H77.8516V31.1611H83.5015V33.2119H77.8516V37.9185H83.8809V40ZM95.7754 35.9292C95.7754 37.2622 95.2935 38.3081 94.3296 39.0669C93.3657 39.8257 92.0361 40.2051 90.3408 40.2051C88.6455 40.2051 87.2578 39.9419 86.1777 39.4155V37.0981C86.8613 37.4194 87.5859 37.6724 88.3516 37.8569C89.124 38.0415 89.8418 38.1338 90.5049 38.1338C91.4756 38.1338 92.1899 37.9492 92.6479 37.5801C93.1128 37.2109 93.3452 36.7153 93.3452 36.0933C93.3452 35.5327 93.1333 35.0576 92.7095 34.668C92.2856 34.2783 91.4106 33.8169 90.0845 33.2837C88.7173 32.73 87.7534 32.0977 87.1929 31.3867C86.6323 30.6758 86.3521 29.8213 86.3521 28.8232C86.3521 27.5723 86.7964 26.5879 87.6851 25.8701C88.5737 25.1523 89.7666 24.7935 91.2637 24.7935C92.6992 24.7935 94.1279 25.1079 95.5498 25.7368L94.7705 27.7363C93.4375 27.1758 92.248 26.8955 91.2021 26.8955C90.4092 26.8955 89.8076 27.0698 89.3975 27.4185C88.9873 27.7603 88.7822 28.2148 88.7822 28.7822C88.7822 29.1719 88.8643 29.5068 89.0283 29.7871C89.1924 30.0605 89.4624 30.3203 89.8384 30.5664C90.2144 30.8125 90.8911 31.1372 91.8687 31.5405C92.9692 31.9985 93.7759 32.4258 94.2886 32.8223C94.8013 33.2188 95.1772 33.6665 95.4165 34.1655C95.6558 34.6646 95.7754 35.2524 95.7754 35.9292ZM98.6772 40V25.0088H101.128V40H98.6772ZM111.228 31.8687H116.745V39.395C115.842 39.689 114.974 39.8975 114.14 40.0205C113.313 40.1436 112.417 40.2051 111.454 40.2051C109.184 40.2051 107.434 39.5352 106.204 38.1953C104.973 36.8486 104.358 34.9517 104.358 32.5044C104.358 30.0913 105.052 28.2046 106.439 26.8442C107.827 25.4771 109.738 24.7935 112.171 24.7935C113.737 24.7935 115.22 25.0942 116.622 25.6958L115.76 27.7363C114.543 27.1758 113.327 26.8955 112.11 26.8955C110.51 26.8955 109.246 27.3979 108.316 28.4028C107.386 29.4077 106.921 30.7817 106.921 32.5249C106.921 34.3569 107.338 35.7515 108.172 36.7085C109.013 37.6587 110.22 38.1338 111.792 38.1338C112.585 38.1338 113.433 38.0347 114.335 37.8364V33.9707H111.228V31.8687ZM132.843 40H129.839L122.466 28.0542H122.384L122.436 28.7207C122.531 29.9922 122.579 31.1543 122.579 32.207V40H120.354V25.0088H123.328L130.68 36.8931H130.741C130.728 36.7358 130.7 36.165 130.659 35.1807C130.618 34.1895 130.598 33.417 130.598 32.8633V25.0088H132.843V40Z" fill="#959595"/>
</svg>
