<svg width="149" height="70" viewBox="0 0 149 70" fill="none" xmlns="http://www.w3.org/2000/svg">
    <path d="M110.633 43.9165L123.04 29.9781L110.633 16.0377H123.723L129.868 22.809L135.786 16.0377H148.42L136.072 29.9205L148.589 43.9165H135.445L129.355 37.0896L123.324 43.9165H110.633Z" fill="#FF6600"/>
    <path d="M110.633 9.78833H96.5809V16.0377H110.633V25.4561H96.5809V34.101H110.633V43.9165H86.2529V0H110.633V9.78833Z" fill="#FF6600"/>
    <path d="M75.9681 0V17.9728H75.8549C73.578 15.3561 70.7333 14.4468 67.4325 14.4468C60.6711 14.4468 55.5779 19.0425 53.7901 25.1185C51.7513 18.4235 46.4931 14.3213 38.6962 14.3213C32.3643 14.3213 27.3643 17.163 24.755 21.7937V16.0384H11.6669V9.78962H25.9497V0H0V43.9172H11.6669V25.4561H23.2957C22.949 26.8123 22.764 28.2642 22.764 29.7964C22.764 38.9574 29.7634 45.3853 38.6962 45.3853C46.2079 45.3853 51.1581 41.8593 53.7765 35.4307H43.7784C42.4258 37.3619 41.4 37.9355 38.6962 37.9355C35.561 37.9355 32.8579 35.2005 32.8579 31.9584H53.2163C54.0993 39.2348 59.7681 45.5101 67.5476 45.5101C70.9034 45.5101 73.9758 43.8596 75.8549 41.0728H75.9681V43.9159H86.2527V0H75.9681ZM33.1826 25.5874C33.8314 22.798 35.995 20.9749 38.6962 20.9749C41.6697 20.9749 43.7234 22.7418 44.2635 25.5874C44.4912 25.5874 33.1826 25.5874 33.1826 25.5874ZM69.7268 37.2299C65.9357 37.2299 63.5799 33.6981 63.5799 30.0104C63.5799 26.0686 65.6291 22.2781 69.7268 22.2781C73.9758 22.2781 75.6686 26.0686 75.6686 30.0104C75.668 33.7486 73.8743 37.2299 69.7268 37.2299Z" fill="#652C8F"/>
    <path d="M6.75941 64.958C8.34738 64.958 10.0641 64.0235 10.3914 62.3504H11.9554C11.3914 64.7627 9.30276 66.1312 6.71736 66.1312C1.93468 66.1312 0 62.4371 0 58.005C0 53.5723 1.93468 49.8768 6.71736 49.8768C9.3034 49.8768 11.3914 51.2447 11.9554 53.6589H10.3914C10.0647 51.9839 8.34738 51.0526 6.75941 51.0526C2.82472 51.0526 1.49936 54.6374 1.49936 58.0063C1.49936 61.3719 2.82537 64.958 6.75941 64.958Z" fill="#652C8F"/>
    <path d="M18.4771 66.1312C15.1278 66.1312 13.3257 63.5455 13.3257 60.3727C13.3257 57.2004 15.1278 54.6141 18.4771 54.6141C21.8232 54.6141 23.6285 57.2004 23.6285 60.3727C23.6285 63.5455 21.8232 66.1312 18.4771 66.1312ZM18.4771 65.1313C21.1071 65.1313 22.2151 62.7423 22.2151 60.3727C22.2151 58.005 21.1071 55.6133 18.4771 55.6133C15.8464 55.6133 14.7371 58.005 14.7371 60.3727C14.7371 62.7417 15.8458 65.1313 18.4771 65.1313Z" fill="#652C8F"/>
    <path d="M30.5372 55.8947C28.3437 55.8947 27.5831 57.7437 27.5831 59.6542V65.8725H26.2571V58.113C26.2571 57.0498 26.2351 55.96 26.1924 54.8741H27.4945L27.5831 56.4593C28.237 55.2007 29.3211 54.6129 30.7771 54.6129C30.9731 54.6129 31.1911 54.6348 31.3877 54.6555V55.9826C31.0811 55.9406 30.8431 55.8947 30.5372 55.8947Z" fill="#652C8F"/>
    <path d="M34.2048 70H32.8781V58.1557C32.8781 57.0691 32.8781 55.96 32.8115 54.8754H34.1162L34.1602 56.5285C34.9849 55.2214 36.0729 54.6141 37.7042 54.6141C41.0936 54.6141 42.5503 57.419 42.5503 60.3727C42.5503 63.3295 41.0936 66.1312 37.7042 66.1312C36.1815 66.1312 34.9868 65.5478 34.2048 64.2854V70ZM41.1382 60.372C41.1382 58.0263 40.1589 55.7213 37.5509 55.7213C35.0961 55.7213 34.2048 57.7443 34.2048 60.372C34.2048 63.0029 35.0961 65.022 37.5509 65.022C40.1589 65.0227 41.1382 62.721 41.1382 60.372Z" fill="#652C8F"/>
    <path d="M49.3771 66.1312C46.0278 66.1312 44.2251 63.5455 44.2251 60.3727C44.2251 57.2004 46.0278 54.6141 49.3771 54.6141C52.7226 54.6141 54.5285 57.2004 54.5285 60.3727C54.5279 63.5455 52.7219 66.1312 49.3771 66.1312ZM49.3771 65.1313C52.0059 65.1313 53.1152 62.7423 53.1152 60.3727C53.1152 58.005 52.0059 55.6133 49.3771 55.6133C46.7452 55.6133 45.6371 58.005 45.6371 60.3727C45.6365 62.7417 46.7445 65.1313 49.3771 65.1313Z" fill="#652C8F"/>
    <path d="M61.4413 55.8947C59.2446 55.8947 58.4852 57.7437 58.4852 59.6542V65.8725H57.1586V58.113C57.1586 57.0498 57.1372 55.96 57.0913 54.8741H58.3979L58.4852 56.4593C59.1366 55.2007 60.2239 54.6129 61.6793 54.6129C61.8772 54.6129 62.092 54.6348 62.2873 54.6555V55.9826C61.9853 55.9406 61.7427 55.8947 61.4413 55.8947Z" fill="#652C8F"/>
    <path d="M70.0985 65.8725C70.0099 65.348 69.9685 64.98 69.9258 64.3934C69.0765 65.674 67.9698 66.1312 66.2492 66.1312C64.2498 66.1312 62.4238 65.1113 62.4238 62.8943C62.4238 59.6994 65.7932 59.2215 68.4898 59.2215C69.0105 59.2215 69.4465 59.2428 69.7706 59.2629V58.437C69.7706 56.5705 69.0093 55.6121 67.0746 55.6121C65.6638 55.6121 64.6638 56.156 64.4898 57.7198H63.1625C63.1845 55.3527 65.2492 54.6129 67.0746 54.6129C69.7932 54.6129 71.0985 55.3527 71.0985 58.0684V61.8058C71.0985 63.5029 71.1626 64.5021 71.3599 65.8725H70.0985ZM69.7732 60.2634C69.4032 60.2427 69.0998 60.2226 68.7298 60.2226C66.9038 60.2226 63.8391 60.3293 63.8391 62.8503C63.8391 64.3721 65.0991 65.1301 66.4931 65.1301C68.7098 65.1301 69.7732 63.8282 69.7732 61.2865V60.2634Z" fill="#652C8F"/>
    <path d="M76.8372 66.1312C75.2512 66.1312 74.5112 65.1986 74.5112 63.6115V55.8747H72.7266V54.8748H74.5112V52.6358L75.8365 52.0499V54.8748H78.2725V55.8747H75.8365V63.0262C75.8365 64.5681 76.0966 65.0234 77.2046 65.0234C77.6205 65.0234 78.1399 64.8733 78.3799 64.7407V65.8732C77.9232 66.0019 77.5325 66.1312 76.8372 66.1312Z" fill="#652C8F"/>
    <path d="M80.0269 51.8093V50.1569H81.6129V51.8093H80.0269ZM80.1569 65.8725V54.8748H81.4829V65.8732L80.1569 65.8725Z" fill="#652C8F"/>
    <path d="M89.2663 66.1312C85.9183 66.1312 84.1143 63.5455 84.1143 60.3727C84.1143 57.2004 85.9183 54.6141 89.2663 54.6141C92.6143 54.6141 94.4177 57.2004 94.4177 60.3727C94.417 63.5455 92.6137 66.1312 89.2663 66.1312ZM89.2663 65.1313C91.8963 65.1313 93.0044 62.7423 93.0044 60.3727C93.0044 58.005 91.8963 55.6133 89.2663 55.6133C86.6369 55.6133 85.5276 58.005 85.5276 60.3727C85.5269 62.7417 86.6363 65.1313 89.2663 65.1313Z" fill="#652C8F"/>
    <path d="M98.283 54.8748L98.3264 56.5279C99.089 55.2434 100.281 54.6135 101.892 54.6135C104.826 54.6135 105.805 56.2207 105.805 58.9822V65.8732H104.478V59.5022C104.478 57.4605 104.001 55.7201 101.674 55.7201C99.1976 55.7201 98.3716 57.9164 98.3716 60.0888V65.8719H97.045V58.1557C97.045 57.0692 97.0236 55.96 96.981 54.8755H98.283V54.8748Z" fill="#652C8F"/>
</svg>
