<svg width="98" height="97" viewBox="0 0 98 97" fill="none" xmlns="http://www.w3.org/2000/svg">
    <path d="M27.8866 26.4048C25.4769 28.7875 24.0963 32.0816 23.8879 35.4408C21.7648 32.993 19.0817 31.1442 16.3464 29.4515C15.4737 32.0035 14.5229 34.5424 13.1292 36.86C16.4506 37.6152 20.0195 37.8365 23.0803 39.438C19.8762 40.6358 16.5027 41.2348 13.1422 41.8077C14.4838 44.1383 15.4998 46.6511 16.3204 49.2161C19.1077 47.6146 21.7388 45.6616 23.927 43.2789C23.927 49.5156 23.927 55.7392 23.927 61.9758C23.927 64.046 24.4349 66.1162 25.3597 67.9651C27.5479 72.3789 32.25 75.4256 37.1995 75.5038C45.8481 75.5558 54.5097 75.5168 63.1583 75.5298C66.7272 75.5819 70.3091 74.2278 72.875 71.7279C75.5321 69.2411 77.0821 65.6475 77.1081 62.0149C77.1081 53.3565 77.1081 44.6981 77.1081 36.0397C77.1081 33.0581 76.1052 30.0765 74.2687 27.7329C71.82 24.5169 67.8734 22.4727 63.8356 22.4207C55.0698 22.4207 46.317 22.4337 37.5511 22.4207C33.9432 22.3425 30.4004 23.8529 27.8866 26.4048ZM34.2167 32.4983C35.0634 32.2899 35.936 32.1337 36.8217 32.1207C45.822 32.1207 54.8223 32.1337 63.8226 32.1077C66.1411 32.1207 68.5246 32.8238 70.257 34.4252C72.1977 36.1048 73.2657 38.6698 73.2267 41.2348C73.2006 44.0081 73.2527 46.7944 73.2006 49.5677C73.0704 52.8748 70.8822 55.9736 67.8343 57.2495C63.8747 58.825 59.3159 57.2886 56.0467 54.8408C54.7181 53.5779 53.2854 52.2368 51.3967 51.9634C49.3127 51.5467 47.3069 52.6664 45.8871 54.0987C43.2821 56.5464 39.7263 58.0958 36.1184 57.9005C32.6537 57.8615 29.4105 55.4528 28.2382 52.2107C27.3656 49.9192 27.7824 47.4193 27.6782 45.0366C27.7693 42.7321 27.3916 40.3494 28.1601 38.136C29.0979 35.4017 31.4294 33.2144 34.2167 32.4983ZM37.3297 37.2636C36.3398 37.7714 36.6133 39.3989 37.7205 39.5552C40.5339 39.8546 43.3603 40.1932 46.1737 40.3885C47.4762 40.3234 47.6325 38.2401 46.356 37.9927C43.9985 37.6672 41.628 37.524 39.2704 37.2376C38.6192 37.2115 37.9419 37.0162 37.3297 37.2636ZM60.5533 37.3417C58.4954 37.6021 56.4114 37.6803 54.3664 38.0188C53.1942 38.4615 53.5459 40.4536 54.8223 40.3754C57.6357 40.1541 60.4361 39.8416 63.2365 39.5421C64.3436 39.3599 64.4869 37.5501 63.4188 37.1985C62.481 37.0423 61.5041 37.2766 60.5533 37.3417ZM41.12 41.4301C39.9738 41.7035 38.9969 42.5758 38.5541 43.6565C37.6553 45.7267 39.1141 48.3047 41.3284 48.6432C43.4905 49.1119 45.7308 47.237 45.6657 45.0236C45.7439 42.7321 43.3342 40.8311 41.12 41.4301ZM57.6748 41.5472C56.5416 41.9509 55.6299 42.9534 55.3433 44.1252C54.7572 46.2475 56.4244 48.6042 58.6386 48.6953C60.8268 48.9297 62.8587 46.8725 62.5852 44.6981C62.468 42.3675 59.8369 40.7009 57.6748 41.5472ZM97.0364 48.5C97.0364 75.2824 75.3107 97 48.5182 97C21.7257 97 0 75.2824 0 48.5C0 21.7176 21.7257 0 48.5182 0C75.3107 0 97.0364 21.7176 97.0364 48.5Z" fill="#FFD300"/>
    <path d="M63.5879 22.3295H37.5248C30.1397 22.3295 24.07 28.2797 23.8876 35.6361C21.8818 33.2274 19.1075 31.3264 16.4243 29.5948C16.3983 29.5817 16.3722 29.5687 16.3462 29.5687C16.3071 29.5687 16.281 29.5687 16.242 29.5817C16.1768 29.6078 16.1378 29.6468 16.1247 29.7119C15.3823 32.1207 14.3924 34.4773 13.155 36.6777C13.129 36.7298 13.116 36.8079 13.155 36.86C13.1811 36.9121 13.2462 36.9642 13.3113 36.9642C16.7369 37.3287 20.1104 38.123 23.3406 39.3599C20.1104 40.5838 16.7369 41.391 13.3113 41.7556C13.2462 41.7556 13.1811 41.7946 13.155 41.8597C13.129 41.9118 13.129 41.9899 13.155 42.042C14.3794 44.2424 15.3823 46.5991 16.1247 49.0078C16.1378 49.0729 16.1899 49.1119 16.242 49.138C16.281 49.151 16.3071 49.151 16.3462 49.151C16.3722 49.151 16.3983 49.138 16.4243 49.125C19.0944 47.4063 21.8688 45.5054 23.8746 43.0966V62.054C23.8746 69.5536 30.0094 75.6991 37.5248 75.6991H63.5879C71.0903 75.6991 77.2381 69.5666 77.2381 62.054V35.9616C77.2251 28.462 71.0903 22.3295 63.5879 22.3295Z" fill="black"/>
    <path d="M73.2397 49.6067C73.2397 54.4372 69.2801 58.3953 64.4479 58.3953H36.3138C31.4816 58.3953 27.522 54.4372 27.522 49.6067V41.3519C27.522 36.5215 31.4816 32.5634 36.3138 32.5634H64.4479C69.2801 32.5634 73.2397 36.5215 73.2397 41.3519V49.6067Z" fill="#FFD300"/>
    <path d="M45.6659 45.5184C45.6659 47.5235 44.0378 49.151 42.0319 49.151C40.0261 49.151 38.3979 47.5235 38.3979 45.5184C38.3979 43.5133 40.0261 41.8858 42.0319 41.8858C44.0378 41.8858 45.6659 43.5133 45.6659 45.5184Z" fill="black" stroke="black" stroke-miterlimit="10"/>
    <path d="M62.7025 45.5184C62.7025 47.5235 61.0744 49.151 59.0685 49.151C57.0627 49.151 55.4346 47.5235 55.4346 45.5184C55.4346 43.5133 57.0627 41.8858 59.0685 41.8858C61.0744 41.8858 62.7025 43.5133 62.7025 45.5184Z" fill="black" stroke="black" stroke-miterlimit="10"/>
    <path d="M62.9891 37.6282C63.6403 37.5631 64.2134 38.0058 64.2916 38.6698C64.3567 39.3208 63.8878 39.9067 63.2366 39.9718L55.1611 40.7921C54.4968 40.8572 53.9497 40.3884 53.8846 39.7244C53.8195 39.0864 54.2754 38.5136 54.9266 38.4485L62.9891 37.6282Z" fill="black" stroke="black" stroke-miterlimit="10"/>
    <path d="M46.2127 38.4485C46.864 38.5136 47.3198 39.0865 47.2547 39.7244C47.1896 40.3754 46.6295 40.8572 45.9783 40.7921L37.8897 39.9718C37.2254 39.9067 36.7565 39.3338 36.8347 38.6698C36.8998 38.0188 37.4729 37.5631 38.1372 37.6282L46.2127 38.4485Z" fill="black" stroke="black" stroke-miterlimit="10"/>
    <path d="M36.2485 58.5385C36.2485 58.5385 41.5367 59.0463 46.2648 54.4893C50.9929 49.9322 55.213 54.4893 55.213 54.4893C55.213 54.4893 58.6906 58.4995 65.7111 58.5906L36.2485 58.5385Z" fill="black"/>
</svg>
