<svg width="126" height="33" viewBox="0 0 126 33" fill="none" xmlns="http://www.w3.org/2000/svg">
<path d="M15.0457 1.45672C15.8485 0.652591 17.1515 0.652591 17.9543 1.45672C18.5655 2.06899 19.4948 2.23284 20.2785 1.86655C21.3079 1.38548 22.5323 1.83113 23.0117 2.86133C23.3766 3.64573 24.1938 4.11752 25.0556 4.04139C26.1874 3.94141 27.1856 4.77895 27.2837 5.91096C27.3583 6.77288 27.9649 7.49571 28.8007 7.71893C29.8985 8.01209 30.55 9.14051 30.255 10.2378C30.0304 11.0733 30.3531 11.96 31.0622 12.4556C31.9935 13.1065 32.2198 14.3897 31.5673 15.3199C31.0704 16.0282 31.0704 16.9718 31.5673 17.6801C32.2198 18.6103 31.9935 19.8935 31.0622 20.5444C30.3531 21.04 30.0304 21.9267 30.255 22.7622C30.55 23.8595 29.8985 24.9879 28.8007 25.2811C27.9649 25.5043 27.3583 26.2271 27.2837 27.089C27.1856 28.221 26.1874 29.0586 25.0556 28.9586C24.1938 28.8825 23.3766 29.3543 23.0117 30.1387C22.5323 31.1689 21.3079 31.6145 20.2785 31.1335C19.4948 30.7672 18.5655 30.931 17.9543 31.5433C17.1515 32.3474 15.8485 32.3474 15.0457 31.5433C14.4345 30.931 13.5052 30.7672 12.7215 31.1335C11.6921 31.6145 10.4677 31.1689 9.98833 30.1387C9.62336 29.3543 8.80619 28.8825 7.9444 28.9586C6.81255 29.0586 5.81441 28.221 5.71633 27.089C5.64165 26.2271 5.03513 25.5043 4.19927 25.2811C3.10149 24.9879 2.44999 23.8595 2.745 22.7622C2.96962 21.9267 2.6469 21.04 1.93779 20.5444C1.00648 19.8935 0.780218 18.6103 1.43273 17.6801C1.92955 16.9718 1.92955 16.0282 1.43273 15.3199C0.780218 14.3897 1.00648 13.1065 1.93779 12.4556C2.6469 11.96 2.96962 11.0733 2.745 10.2378C2.44999 9.1405 3.10149 8.01209 4.19927 7.71893C5.03513 7.49571 5.64165 6.77288 5.71633 5.91096C5.81441 4.77895 6.81255 3.94141 7.9444 4.04139C8.80619 4.11752 9.62336 3.64573 9.98833 2.86133C10.4677 1.83113 11.6921 1.38548 12.7215 1.86655C13.5052 2.23284 14.4345 2.06899 15.0457 1.45672Z" fill="#363636"/>
<ellipse cx="21.0646" cy="16.1263" rx="3.62008" ry="5.84782" transform="rotate(0.180268 21.0646 16.1263)" fill="white"/>
<ellipse cx="11.6464" cy="16.3718" rx="2.72221" ry="2.68764" transform="rotate(-23.9868 11.6464 16.3718)" fill="white"/>
<path d="M46.2822 15.5288H44V4.75302H50.2705V6.62514H46.2822V9.40384H49.9936V11.2686H46.2822V15.5288Z" fill="#363636"/>
<path d="M54.7301 9.53651H55.4784C56.2117 9.53651 56.7529 9.41613 57.1021 9.17536C57.4513 8.93459 57.6259 8.55623 57.6259 8.04029C57.6259 7.52926 57.4463 7.16565 57.0872 6.94945C56.733 6.73324 56.1818 6.62514 55.4335 6.62514H54.7301V9.53651ZM54.7301 11.3939V15.5288H52.4105V4.75302H55.5981C57.0847 4.75302 58.1846 5.02082 58.898 5.55641C59.6113 6.08709 59.968 6.8954 59.968 7.98133C59.968 8.61519 59.7909 9.18027 59.4367 9.67656C59.0825 10.1679 58.5812 10.5537 57.9327 10.8337C59.5789 13.2562 60.6514 14.8212 61.1502 15.5288H58.5762L55.9648 11.3939H54.7301Z" fill="#363636"/>
<path d="M68.8274 15.5288H62.527V4.75302H68.8274V6.62514H64.8467V8.99109H68.5506V10.8632H64.8467V13.6419H68.8274V15.5288Z" fill="#363636"/>
<path d="M77.4175 15.5288H71.1171V4.75302H77.4175V6.62514H73.4367V8.99109H77.1407V10.8632H73.4367V13.6419H77.4175V15.5288Z" fill="#363636"/>
<path d="M83.688 15.5288V4.75302H86.0076V13.6419H90.4448V15.5288H83.688Z" fill="#363636"/>
<path d="M102.282 10.1262C102.282 11.9098 101.833 13.2808 100.935 14.2389C100.038 15.1971 98.7506 15.6762 97.0744 15.6762C95.3983 15.6762 94.1113 15.1971 93.2134 14.2389C92.3155 13.2808 91.8665 11.9049 91.8665 10.1114C91.8665 8.31791 92.3155 6.94945 93.2134 6.00601C94.1163 5.05767 95.4083 4.5835 97.0894 4.5835C98.7705 4.5835 100.055 5.06013 100.943 6.01339C101.836 6.96664 102.282 8.33757 102.282 10.1262ZM94.2984 10.1262C94.2984 11.33 94.5303 12.2366 94.9943 12.8459C95.4582 13.4552 96.1516 13.7598 97.0744 13.7598C98.9251 13.7598 99.8505 12.5486 99.8505 10.1262C99.8505 7.69879 98.9301 6.4851 97.0894 6.4851C96.1665 6.4851 95.4707 6.79221 95.0017 7.40642C94.5328 8.01572 94.2984 8.9223 94.2984 10.1262Z" fill="#363636"/>
<path d="M108.702 9.47755H113.042V15.0644C112.339 15.2905 111.676 15.4477 111.052 15.5362C110.433 15.6295 109.8 15.6762 109.151 15.6762C107.5 15.6762 106.238 15.1996 105.365 14.2463C104.497 13.2881 104.063 11.9147 104.063 10.1262C104.063 8.38671 104.567 7.03052 105.575 6.05761C106.587 5.08469 107.989 4.59824 109.78 4.59824C110.902 4.59824 111.985 4.81935 113.027 5.26159L112.257 7.08949C111.459 6.69639 110.628 6.49984 109.765 6.49984C108.762 6.49984 107.959 6.83152 107.356 7.49487C106.752 8.15822 106.45 9.05006 106.45 10.1704C106.45 11.3398 106.692 12.2341 107.176 12.8533C107.665 13.4675 108.373 13.7746 109.301 13.7746C109.785 13.7746 110.276 13.7255 110.775 13.6272V11.3792H108.702V9.47755Z" fill="#363636"/>
<path d="M125.583 10.1262C125.583 11.9098 125.134 13.2808 124.236 14.2389C123.339 15.1971 122.052 15.6762 120.375 15.6762C118.699 15.6762 117.412 15.1971 116.514 14.2389C115.616 13.2808 115.167 11.9049 115.167 10.1114C115.167 8.31791 115.616 6.94945 116.514 6.00601C117.417 5.05767 118.709 4.5835 120.39 4.5835C122.071 4.5835 123.356 5.06013 124.244 6.01339C125.137 6.96664 125.583 8.33757 125.583 10.1262ZM117.599 10.1262C117.599 11.33 117.831 12.2366 118.295 12.8459C118.759 13.4552 119.453 13.7598 120.375 13.7598C122.226 13.7598 123.151 12.5486 123.151 10.1262C123.151 7.69879 122.231 6.4851 120.39 6.4851C119.468 6.4851 118.772 6.79221 118.303 7.40642C117.834 8.01572 117.599 8.9223 117.599 10.1262Z" fill="#363636"/>
<path d="M52.9642 23.695C52.9642 25.4738 52.4629 26.8349 51.4602 27.7783C50.4575 28.7168 49.0134 29.1861 47.1277 29.1861H44.0673V18.4103H47.4495C49.1905 18.4103 50.5448 18.8722 51.5126 19.796C52.4803 20.7198 52.9642 22.0194 52.9642 23.695ZM51.0786 23.754C51.0786 21.1743 49.8539 19.8844 47.4046 19.8844H45.8557V27.7046H47.1277C49.7616 27.7046 51.0786 26.3877 51.0786 23.754Z" fill="#363636"/>
<path d="M61.5094 29.1861H55.3212V18.4103H61.5094V19.8992H57.1096V22.8327H61.2325V24.3068H57.1096V27.6899H61.5094V29.1861Z" fill="#363636"/>
<path d="M70.1893 26.26C70.1893 27.2181 69.8376 27.9699 69.1342 28.5154C68.4309 29.0608 67.4606 29.3335 66.2235 29.3335C64.9863 29.3335 63.9737 29.1443 63.1855 28.766V27.1002C63.6844 27.3312 64.2131 27.513 64.7718 27.6456C65.3355 27.7783 65.8593 27.8446 66.3432 27.8446C67.0516 27.8446 67.5728 27.712 67.9071 27.4466C68.2463 27.1813 68.4159 26.825 68.4159 26.3779C68.4159 25.975 68.2612 25.6335 67.952 25.3534C67.6427 25.0733 67.0042 24.7416 66.0364 24.3584C65.0387 23.9604 64.3354 23.5058 63.9263 22.9948C63.5172 22.4838 63.3127 21.8696 63.3127 21.1522C63.3127 20.253 63.637 19.5454 64.2855 19.0294C64.934 18.5135 65.8044 18.2555 66.8969 18.2555C67.9445 18.2555 68.9871 18.4816 70.0247 18.9336L69.456 20.3709C68.4832 19.968 67.6152 19.7665 66.852 19.7665C66.2734 19.7665 65.8344 19.8918 65.5351 20.1424C65.2358 20.3881 65.0861 20.7149 65.0861 21.1227C65.0861 21.4028 65.146 21.6435 65.2657 21.845C65.3854 22.0416 65.5825 22.2283 65.8568 22.4052C66.1312 22.5821 66.625 22.8155 67.3384 23.1054C68.1415 23.4346 68.7302 23.7417 69.1043 24.0267C69.4784 24.3117 69.7528 24.6335 69.9274 24.9922C70.102 25.3509 70.1893 25.7735 70.1893 26.26Z" fill="#363636"/>
<path d="M72.3069 29.1861V18.4103H74.0952V29.1861H72.3069Z" fill="#363636"/>
<path d="M81.4656 23.3412H85.4913V28.7512C84.8328 28.9625 84.1993 29.1124 83.5907 29.2008C82.9871 29.2893 82.3336 29.3335 81.6302 29.3335C79.9741 29.3335 78.697 28.852 77.7991 27.8889C76.9012 26.9209 76.4523 25.5573 76.4523 23.7982C76.4523 22.0637 76.9586 20.7075 77.9712 19.7297C78.9839 18.7469 80.3782 18.2555 82.154 18.2555C83.2964 18.2555 84.3789 18.4717 85.4015 18.9041L84.773 20.3709C83.885 19.968 82.9971 19.7665 82.1091 19.7665C80.9418 19.7665 80.019 20.1277 79.3406 20.85C78.6621 21.5723 78.3229 22.5599 78.3229 23.8129C78.3229 25.1298 78.6272 26.1322 79.2358 26.8201C79.8494 27.5031 80.7298 27.8446 81.8772 27.8446C82.4558 27.8446 83.0744 27.7734 83.7329 27.6309V24.8522H81.4656V23.3412Z" fill="#363636"/>
<path d="M97.2391 29.1861H95.0466L89.6666 20.5994H89.6068L89.6442 21.0785C89.714 21.9924 89.7489 22.8277 89.7489 23.5845V29.1861H88.1252V18.4103H90.2952L95.6602 26.9528H95.7051C95.6951 26.8398 95.6752 26.4295 95.6453 25.7219C95.6153 25.0094 95.6004 24.4542 95.6004 24.0562V18.4103H97.2391V29.1861Z" fill="#363636"/>
</svg>
