<svg width="122" height="71" viewBox="0 0 122 71" fill="none" xmlns="http://www.w3.org/2000/svg">
    <path fill-rule="evenodd" clip-rule="evenodd" d="M1.95582 52.0302C5.08229 43.8488 13.7407 40.9615 21.434 45.8951L54.7381 69.1139H14.3507C5.93813 69.1139 -0.675343 61.4131 1.9686 52.0284" fill="black"/>
    <path fill-rule="evenodd" clip-rule="evenodd" d="M1.95582 52.0302C5.08229 43.8488 13.7407 40.9615 21.434 45.8951L54.7381 69.1139H14.3507C5.93813 69.1139 -0.675343 61.4131 1.9686 52.0284" fill="black"/>
    <path fill-rule="evenodd" clip-rule="evenodd" d="M35.6222 25.2377L52.8152 64.5845L17.3477 40.2806C8.449 34.3822 10.2535 24.2783 15.1808 19.8235C22.1549 13.9251 32.015 15.9641 35.6222 25.2305" fill="black"/>
    <path fill-rule="evenodd" clip-rule="evenodd" d="M59.3066 16.2571L53.0555 60.2954L35.2616 18.4236C31.4141 7.95561 40.0688 1.09956 45.841 0.977583C52.4545 0.25666 60.7505 5.3104 59.3084 16.259" fill="black"/>
    <path fill-rule="evenodd" clip-rule="evenodd" d="M86.4819 18.3926L68.8065 60.3864L63.1581 22.4833C62.6755 16.7123 66.2827 16.5903 67.6065 15.5071C67.3643 14.6642 65.5599 14.6642 65.5599 14.6642H62.1948C61.8343 4.79704 69.5293 0.464217 75.7823 0.946653C82.5141 1.18696 90.0873 9.00788 86.4819 18.3926Z" fill="black"/>
    <path fill-rule="evenodd" clip-rule="evenodd" d="M104.407 40.3553L68.9395 64.7811L85.6498 25.9168C90.7028 13.6429 102.484 16.0496 106.692 20.7429C111.263 25.3124 112.583 34.5788 104.407 40.3553Z" fill="black"/>
    <path fill-rule="evenodd" clip-rule="evenodd" d="M108.249 68.9974H67.2515L100.556 45.7749C108.732 40.3589 117.388 45.2907 119.671 52.3925C122.088 60.3299 116.667 68.9956 108.254 68.9956" fill="black"/>
</svg>
