<svg width="120" height="95" viewBox="0 0 120 95" fill="none" xmlns="http://www.w3.org/2000/svg">
<path fill-rule="evenodd" clip-rule="evenodd" d="M119.91 76.6459C119.91 76.5142 119.817 76.3634 119.705 76.3068C119.442 76.1561 119.048 76.0622 118.243 76.0622C116.425 76.0622 114.832 76.966 114.139 78.4914V76.6459C114.139 76.4952 114.008 76.3634 113.839 76.3634H111.14C110.99 76.3634 110.859 76.4765 110.859 76.6459V89.1496C110.859 89.3001 110.99 89.4319 111.159 89.4319L114.008 89.4321C114.157 89.4321 114.289 89.3001 114.289 89.1496V83.5193C114.289 81.0147 116.031 79.7718 118.261 79.7718C118.786 79.7718 119.311 79.8657 119.573 79.9602C119.761 80.0167 119.929 79.8847 119.929 79.6777V76.627L119.91 76.6459ZM101.77 76.0433C105.762 76.0433 108.742 78.8115 108.742 82.8975C108.742 86.9651 105.762 89.752 101.789 89.752C97.8159 89.752 94.8551 86.9841 94.8551 82.8975C94.8366 78.8115 97.7974 76.0433 101.77 76.0433V76.0433ZM101.77 86.3627C103.719 86.3627 105.218 84.9879 105.218 82.8975C105.218 80.8074 103.719 79.4141 101.77 79.4141C99.8402 79.4141 98.3406 80.8074 98.3406 82.8975C98.3598 84.9879 99.8587 86.3627 101.77 86.3627ZM85.9913 76.0433C89.983 76.0433 92.9438 78.8115 92.9438 82.8975C92.9438 86.9651 89.9645 89.752 86.0098 89.752C82.0187 89.752 79.0387 86.9841 79.0387 82.8975C79.0387 78.8115 81.9995 76.0433 85.9913 76.0433ZM85.9913 86.3627C87.9402 86.3627 89.4391 84.9879 89.4391 82.8975C89.4391 80.8074 87.9402 79.4141 86.0098 79.4141C84.08 79.4141 82.5804 80.8074 82.5804 82.8975C82.5619 85.0068 84.0608 86.3815 85.9913 86.3627V86.3627ZM76.6404 71.1471C76.7904 71.1471 76.9212 71.2602 76.9212 71.4296V89.1496C76.9212 89.3001 76.8089 89.4319 76.6404 89.4319L73.7913 89.4321C73.6412 89.4321 73.5104 89.3001 73.5104 89.1496V87.6056C72.5547 88.9613 71.0929 89.7709 69.2192 89.7709C66.0145 89.7709 63.3348 87.3231 63.3348 82.8978C63.3348 78.4727 66.0145 76.0246 69.1631 76.0246C71.1867 76.0246 72.6301 76.9849 73.5104 78.2465V71.4299C73.5104 71.2791 73.6412 71.1284 73.8104 71.1284L76.6404 71.1471V71.1471ZM70.2311 86.4191C72.1424 86.4191 73.6234 85.0634 73.6234 82.9165C73.6234 80.7511 72.1424 79.4141 70.2311 79.4141C68.3006 79.4141 66.8394 80.8074 66.8394 82.9165C66.8394 85.0444 68.3006 86.4191 70.2311 86.4191ZM61.4608 85.4963C61.4608 88.4718 59.3245 89.752 55.8763 89.752C53.5151 89.752 51.4538 89.0931 50.2921 87.775C50.1981 87.6619 50.1981 87.5112 50.2921 87.3983L51.9221 85.2328C52.0346 85.082 52.2406 85.082 52.3532 85.2138C53.2152 86.1179 54.5643 86.664 56.2137 86.664C57.1694 86.664 57.9563 86.4001 57.9563 85.6657C57.9563 84.9503 57.2443 84.7995 55.0706 84.3289C53.1589 83.9333 50.7789 83.0482 50.7789 80.2048C50.7789 77.5497 52.8592 76.0433 56.2323 76.0433C58.4623 76.0433 60.0554 76.7212 61.1797 77.7946C61.2922 77.9074 61.2922 78.0768 61.1985 78.1902L59.6428 80.2427C59.5494 80.3744 59.362 80.3932 59.2308 80.299C58.4811 79.6024 57.2069 79.1879 55.9512 79.1879C54.9018 79.1879 54.3021 79.527 54.3021 80.092C54.3021 80.7511 55.0143 80.9016 57.3006 81.3914C59.568 81.8809 61.4608 82.7471 61.4608 85.4963ZM48.343 85.4963C48.343 88.4718 46.2066 89.752 42.7585 89.752C40.3785 89.752 38.3362 89.0931 37.1553 87.775C37.0802 87.6619 37.0802 87.5112 37.1553 87.3983L38.8045 85.2514C38.8979 85.1009 39.123 85.1009 39.2353 85.2328C40.0976 86.1365 41.4467 86.6826 43.0958 86.6826C44.0515 86.6826 44.8387 86.4191 44.8387 85.6846C44.8387 84.9692 44.1267 84.8184 41.9527 84.3477C40.0413 83.9523 37.6614 83.0671 37.6614 80.2235C37.6614 77.5684 39.7225 76.0622 43.1147 76.0622C45.3444 76.0622 46.9378 76.7401 48.0618 77.8135C48.1744 77.9074 48.1744 78.0958 48.0807 78.2086L46.5253 80.2427C46.4318 80.3744 46.2255 80.3932 46.1129 80.299C45.3635 79.6024 44.089 79.1879 42.8335 79.1879C41.7839 79.1879 41.1844 79.527 41.1844 80.092C41.1844 80.7511 41.8965 80.9016 44.1829 81.3914C46.4318 81.8809 48.3241 82.7471 48.343 85.4963V85.4963ZM29.0972 76.0809C32.864 76.0809 34.7565 77.7569 34.7565 81.3914V89.1873C34.7565 89.338 34.6254 89.4698 34.4568 89.4698H31.6083C31.4585 89.4698 31.3274 89.3569 31.3274 89.1873V87.6995C30.6714 88.7543 29.3786 89.7333 27.3543 89.7333C24.7869 89.7333 22.988 88.0762 22.988 85.6657C22.988 83.2931 24.7497 81.7867 27.1297 81.5608L30.6714 81.2404C31.1397 81.1841 31.3274 81.0333 31.3274 80.7135V80.5062C31.3274 79.7529 30.6151 79.2068 29.0785 79.2068C27.8417 79.2068 26.5486 79.5646 25.9866 80.6193C25.9115 80.7698 25.7241 80.7888 25.5929 80.6946L23.5315 79.1879C23.4189 79.1126 23.3815 78.9433 23.4566 78.8302C24.356 77.0037 26.3986 76.0998 29.0972 76.0998V76.0809ZM31.3274 84.1593V83.6322L28.1415 84.0278C27.092 84.1783 26.5486 84.7243 26.5486 85.459C26.5486 86.3062 27.2043 86.8522 28.3849 86.8522C30.184 86.8522 31.346 85.5905 31.3274 84.1593V84.1593ZM20.6641 71.4296V89.1496C20.6641 89.319 20.533 89.4508 20.3832 89.4508H17.5158C17.3661 89.4508 17.2161 89.319 17.2161 89.1496V71.4296C17.2161 71.2791 17.3473 71.1474 17.4972 71.1474L20.3644 71.1471C20.533 71.1471 20.6641 71.2791 20.6641 71.4296ZM14.1053 76.3447C14.2551 76.3447 14.4053 76.4765 14.4053 76.6459V88.5657C14.4053 91.9365 12.8122 94.9872 7.37766 94.9872C4.88539 94.9872 3.16114 94.2715 1.84944 93.1228C1.75572 93.0476 1.73687 92.8779 1.90571 92.5957L3.17999 90.4112C3.25511 90.2607 3.46113 90.2228 3.59227 90.3546C4.62284 91.2774 5.78482 91.7669 7.24652 91.7669C10.1325 91.7669 11.0319 90.2794 11.0319 88.3963V87.5677C10.1885 88.7917 8.74563 89.5637 6.89052 89.5637C3.44228 89.5637 0.818604 87.1911 0.818604 82.8412C0.818604 78.4722 3.57342 76.043 6.79655 76.043C8.7831 76.043 10.2825 77.0037 11.0133 78.1899V76.6646C11.0133 76.5139 11.1445 76.3634 11.3131 76.3634L14.1053 76.3447V76.3447ZM7.71511 86.4001C9.6451 86.4001 11.0693 85.0444 11.0693 82.8975C11.0693 80.7322 9.6451 79.3951 7.71511 79.3951C5.76597 79.3951 4.32312 80.7888 4.32312 82.8975C4.32312 85.0068 5.78456 86.4001 7.71511 86.4001" fill="#0DAB40"/>
<path fill-rule="evenodd" clip-rule="evenodd" d="M72.2738 49.0399H40.5098C40.5098 53.4839 44.0515 57.0618 48.4552 57.0618H72.2738C76.6588 57.0618 80.2006 53.4649 80.2006 49.0399V16.048C80.2006 15.8973 80.0697 15.7472 79.9197 15.7472H72.5547C72.4047 15.7472 72.2738 15.8787 72.2738 16.048V49.0399ZM72.2738 0.832844C76.6588 0.832844 80.2006 4.42961 80.2006 8.87376H48.4367V41.8653C48.4367 42.016 48.3055 42.1667 48.1369 42.1667H40.7721C40.6221 42.1667 40.4722 42.0347 40.4722 41.8653V8.87376C40.4722 4.42961 44.0141 0.832844 48.418 0.832844H72.2738Z" fill="#0DAB40"/>
</svg>
