<svg width="101" height="101" viewBox="0 0 101 101" fill="none" xmlns="http://www.w3.org/2000/svg">
    <path fill-rule="evenodd" clip-rule="evenodd" d="M50.2014 0.275024C22.686 0.275024 0.300781 22.6605 0.300781 50.1764C0.300781 77.6923 22.686 100.078 50.2014 100.078C77.717 100.078 100.102 77.6923 100.102 50.1764C100.102 22.6605 77.717 0.275024 50.2014 0.275024ZM50.2014 93.6143C26.2498 93.6143 6.76398 74.1281 6.76398 50.1764C6.76398 26.2244 26.2498 6.73832 50.2014 6.73832C74.1527 6.73832 93.6389 26.2245 93.6389 50.1764C93.6389 74.128 74.1528 93.6143 50.2014 93.6143ZM67.1547 35.6211H67.5485V33.7135H68.2583V33.3767H66.4466V33.7135H67.1548V35.6211H67.1547ZM68.8865 33.8869H68.8937L69.5162 35.6211H69.8369L70.4592 33.8869H70.468V35.6211H70.8379V33.3768H70.2943L69.6927 35.1322H69.6823L69.0661 33.3768H68.5136V35.6211H68.8865V33.8869ZM57.5535 33.3749H33.0049L29.2802 39.3607H53.8006L57.5535 33.3749ZM62.5703 33.432L47.5632 57.3283H30.9168L34.7573 51.3374H44.7344L48.5456 45.3494H25.4802L21.6698 51.3374H27.1339L19.5527 63.2985H51.1916L62.8776 44.869L67.1385 51.3374H63.2965L59.658 57.3283H71.0353L74.9859 63.2985H82.2435L62.5703 33.432Z" fill="black"/>
</svg>
