<svg width="129" height="76" viewBox="0 0 129 76" fill="none" xmlns="http://www.w3.org/2000/svg">
    <path d="M0 0.941574V33.7506H17.0424C23.7501 33.7506 29.9489 31.3776 29.9489 24.407C29.9489 19.6947 26.581 17.5435 22.8767 16.4175C25.1336 15.505 27.6939 13.588 27.6939 9.56942C27.6939 4.42598 22.6308 0.941574 15.8141 0.941574H0ZM10.4404 8.58283H14.2787C15.8413 8.58283 17.0328 9.81654 17.0328 11.0687C17.0328 12.232 15.7947 13.4771 14.2787 13.4771H10.4404V8.58283ZM10.4404 20.2865H15.507C17.2758 20.2865 18.76 21.6406 18.76 23.1883C18.76 24.8317 17.3719 26.1964 15.2 26.1964H10.4404V20.2865Z" fill="#1C252C"/>
    <path d="M8.44434 37.3293V70.1384H25.4867C32.1945 70.1384 38.3932 67.7653 38.3932 60.7948C38.3932 56.0824 35.0253 53.9313 31.321 52.8053C33.5779 51.8928 36.1382 49.9758 36.1382 45.9572C36.1382 40.8137 31.0752 37.3293 24.2584 37.3293H8.44434ZM18.8847 44.9706H22.7231C24.2856 44.9706 25.4771 46.2043 25.4771 47.4564C25.4771 48.6198 24.239 49.8649 22.7231 49.8649H18.8847V44.9706ZM18.8847 56.6743H23.9514C25.7201 56.6743 27.2044 58.0284 27.2044 59.576C27.2044 61.2195 25.8162 62.5842 23.6443 62.5842H18.8847V56.6743Z" fill="#1C252C"/>
    <path d="M30.7686 33.7467V0.937622H57.023V8.86132H41.1782V13.1636H54.0444V20.5921H41.1782V25.8539H57.023V33.7467H30.7686Z" fill="#1C252C"/>
    <path d="M71.2449 34.6858C78.6351 34.6858 84.5462 30.4368 84.5462 23.5512C84.5462 12.4387 70.2043 14.1487 70.2043 10.6888C70.2043 9.35233 71.5987 8.6431 73.0287 8.6431C75.4932 8.6431 77.2738 10.2797 77.2738 10.2797L83.444 4.35772C80.9761 1.99034 77.0784 0 71.8279 0C63.9425 0 58.7836 4.71748 58.7836 10.4082C58.7836 21.6619 72.9188 20.0286 72.9188 23.5597C72.9188 24.7975 71.7374 26.0427 69.5946 26.0427C67.1618 26.0427 65.2346 24.5624 63.7347 23.3064L57.5283 29.2706C60.0274 31.7243 64.0396 34.6858 71.2449 34.6858Z" fill="#1C252C"/>
    <path d="M92.5813 33.7467V8.83037H83.9834V0.937622H111.62V8.83037H103.022V33.7467H92.5813Z" fill="#1C252C"/>
    <path d="M38.7524 37.3062H49.1621V56.9606C49.1621 58.9565 51.1327 60.7957 53.1873 60.7957C55.1254 60.7957 57.0845 59.1348 57.0845 56.8557V37.3062H67.4635V56.7219C67.4635 64.4262 61.1176 70.5718 52.9122 70.5718C44.6601 70.5718 38.7524 63.8836 38.7524 56.3022V37.3062Z" fill="#1C252C"/>
    <path d="M80.2989 70.1152V58.3916L68.064 37.3062H78.5961L85.5191 48.6036L92.466 37.3062H103.022L90.7393 58.5121V70.1152H80.2989Z" fill="#1C252C"/>
    <path d="M103.022 55.2622L96.8804 61.4526V69.8097L103.022 76H129V55.2622H103.022Z" fill="#FFED31"/>
    <path d="M102.013 65.6271C102.013 66.3964 101.394 67.0199 100.631 67.0199C99.8682 67.0199 99.2495 66.3964 99.2495 65.6271C99.2495 64.8579 99.8682 64.2343 100.631 64.2343C101.394 64.2343 102.013 64.8579 102.013 65.6271Z" fill="#1C252C"/>
</svg>
