<svg width="100" height="100" viewBox="0 0 100 100" fill="none" xmlns="http://www.w3.org/2000/svg">
    <g clip-path="url(#clip0)">
        <path d="M32.0135 32.193L62.2587 1.89371C64.5149 -0.366523 67.0759 -0.794135 69.82 1.89371L97.9309 30.055C99.9431 32.0709 99.7602 35.1252 97.9309 36.9578L36.7698 98.1674C34.5746 100.367 31.7086 100.733 29.1476 98.1674L1.64642 70.617C-0.548787 68.4178 -0.365853 64.9359 1.64642 62.92L32.0135 32.193Z" fill="white"/>
        <path d="M32.5013 35.3085L64.149 67.0128L35.3673 95.8461C33.5989 97.6176 31.7696 97.6787 29.9403 95.8461L3.59772 69.4563C1.95131 67.807 2.07326 65.9744 3.59772 64.4472L32.5013 35.3085Z" fill="#006491"/>
        <path d="M66.1613 65.1191L34.5137 33.4148L63.2953 4.58154C65.0637 2.81001 66.8931 2.74892 68.7224 4.58154L95.0649 30.9713C96.7113 32.6206 96.5894 34.4533 95.0649 35.9804L66.1613 65.1191Z" fill="#E31837"/>
        <path d="M65.9785 41.295C70.2892 41.295 73.7837 37.7943 73.7837 33.4759C73.7837 29.1574 70.2892 25.6567 65.9785 25.6567C61.6678 25.6567 58.1733 29.1574 58.1733 33.4759C58.1733 37.7943 61.6678 41.295 65.9785 41.295Z" fill="white"/>
        <path d="M44.0869 74.832C48.3976 74.832 51.8921 71.3312 51.8921 67.0128C51.8921 62.6944 48.3976 59.1936 44.0869 59.1936C39.7762 59.1936 36.2817 62.6944 36.2817 67.0128C36.2817 71.3312 39.7762 74.832 44.0869 74.832Z" fill="white"/>
        <path d="M21.2813 74.832C25.592 74.832 29.0865 71.3312 29.0865 67.0128C29.0865 62.6944 25.592 59.1936 21.2813 59.1936C16.9706 59.1936 13.4761 62.6944 13.4761 67.0128C13.4761 71.3312 16.9706 74.832 21.2813 74.832Z" fill="white"/>
    </g>
    <defs>
        <clipPath id="clip0">
            <rect width="99.3333" height="100" fill="white"/>
        </clipPath>
    </defs>
</svg>
