<svg width="94" height="49" viewBox="0 0 94 49" fill="none" xmlns="http://www.w3.org/2000/svg">
<g clip-path="url(#clip0)">
<path d="M23.6347 13.4559V23.2513H29.1239L37.8758 1.72961H32.6148L29.0005 10.4736V1.69887H23.2029L14.4202 23.2513H19.6689L23.6347 13.4559Z" fill="#000105"/>
<path d="M37.0309 23.2452L45.789 1.69272L40.417 1.69887L31.665 23.2513L37.0309 23.2452Z" fill="#000105"/>
<path d="M78.9095 17.6926L66.7098 20.9639L67.4499 19.0823H61.0972L63.077 13.9601H68.2147L69.7566 10.1292H64.6683C64.6683 10.08 66.6049 5.49284 66.6049 5.49284H71.7611L73.3092 1.67427H62.7625L54.2018 22.7471L52.9682 12.1707L62.6268 1.71731H56.8724L51.1056 7.73725L53.5726 1.68657H48.2623L39.498 23.2083H44.8392L48.2438 14.5996C48.2438 14.5996 48.3055 15.2145 49.1011 23.2083H54.0352H58.2786L50.1434 25.3297C41.0153 27.7033 34.422 29.4127 30.1478 30.3781C20.4091 32.6533 17.7076 32.7455 14.963 30.9131C12.8228 29.4865 11.8792 27.0576 12.0457 23.485C12.1545 22.035 12.4574 20.606 12.9462 19.236C13.2469 18.3496 13.6032 17.4829 14.0132 16.6411C14.1304 16.389 14.3401 15.9893 14.3401 15.9893C14.3401 15.9893 13.3841 16.8748 12.57 17.7479C12.0889 18.2583 11.8977 18.4366 10.584 19.9185C9.13456 21.5542 7.50013 23.3866 5.83485 25.6802C3.56515 28.7978 1.59766 31.9707 0.99323 35.9123C0.678678 38.0029 0.993229 40.7577 1.69634 42.1966C5.53881 49.7292 13.3594 48.1182 28.3839 41.9568C36.7411 38.5379 93.2308 13.4866 93.2308 13.4866L78.9095 17.6926Z" fill="#000105"/>
<path d="M66.7961 37.4126C66.5001 36.7485 65.3837 35.9737 65.0445 35.7093L62.8303 34.1659C62.0593 33.4957 62.047 33.4588 62.5219 32.2659C62.6514 31.8387 62.9214 31.4674 63.2884 31.212C63.6554 30.9565 64.0981 30.8317 64.5449 30.8577C65.9203 30.8577 65.6613 31.4726 65.3159 32.3519L64.8039 33.6248H68.8993L69.6641 31.7247C70.8359 28.7978 68.5169 27.7524 65.9635 27.7524C63.5519 27.7524 62.195 28.0845 61.2144 28.6871C59.6108 29.6771 58.8891 31.2636 58.3711 32.5549C57.6926 34.2397 57.4953 35.2974 59.0618 36.5272C59.0618 36.5272 59.876 37.1052 61.8435 38.3719C62.7378 38.9069 62.7254 39.368 62.2505 40.5548C61.6338 42.0982 61.4426 42.5778 59.8821 42.5778C58.3217 42.5778 58.6486 41.8215 59.0495 40.7885L59.8451 38.8023H55.719L54.6335 41.5202C53.5356 44.2873 54.9418 45.7508 58.6918 45.7508C61.4611 45.7508 62.9721 45.4249 64.3105 44.1213C65.3467 43.119 65.8093 41.9875 66.4322 40.4318C66.9935 39.0298 67.1353 38.169 66.7961 37.4126Z" fill="#000105"/>
<path d="M81.5985 28.6502C80.9818 28.2505 80.1368 28.1644 78.6997 28.1644H73.0995L66.2349 45.3203H72.6986C73.9027 45.3968 75.1087 45.2013 76.2265 44.7485C78.0089 43.906 78.3913 42.7193 79.0019 41.4218L79.6187 39.9153C80.3095 38.1874 80.4945 37.2282 79.0019 36.7424C80.7967 36.3611 81.2593 35.5126 81.9563 33.7601L82.5113 32.063C82.9863 30.704 82.9184 29.5357 81.5985 28.6502ZM75.7084 39.7923L75.3383 40.7208C74.7709 42.129 74.3268 42.2765 72.8158 42.2765H71.4835L73.0871 38.2797H74.4749C76.0045 38.2797 76.2142 38.5379 75.7084 39.7923ZM78.5024 32.8377L78.1508 33.7232C77.6512 34.953 76.8803 35.1436 75.5727 35.1436H74.3392L75.9058 31.282H76.8309C78.342 31.2513 79.0451 31.3558 78.5024 32.8377Z" fill="#000105"/>
</g>
<defs>
<clipPath id="clip0">
<rect width="93.7486" height="47.3478" fill="white" transform="translate(0.098877 0.862595)"/>
</clipPath>
</defs>
</svg>
