<svg width="68" height="72" viewBox="0 0 68 72" fill="none" xmlns="http://www.w3.org/2000/svg">
<g clip-path="url(#clip0)">
<path d="M45.6328 19.6544C45.9647 19.5823 46.1123 19.6905 46.3151 19.9067C47.4586 21.1501 51.1102 25.5111 52.1061 26.7004C52.2906 26.9167 52.1615 27.1509 52.0139 27.2771C44.6368 32.8994 36.4298 40.8645 31.856 46.5589C31.7638 46.6851 31.8376 46.6851 31.9114 46.667C39.8786 43.3152 58.598 37.9632 67.0263 36.4675V26.0337L34.0323 0.534752L0.98291 26.0156V37.4226C11.2186 31.4758 34.8991 22.2674 45.6328 19.6544Z" fill="#006AFF"/>
<path d="M18.7803 63.4805C18.5036 63.6247 18.2823 63.5886 18.061 63.3724L11.9011 56.2003C11.7352 56.002 11.7167 55.8939 11.938 55.5876C16.6962 48.7759 26.4156 38.1618 32.6123 33.6747C32.723 33.6027 32.6861 33.5125 32.557 33.5666C26.102 35.6209 7.75152 43.3337 0.9646 47.0819V71.4455H67.008V47.983C58.008 49.4786 31.0447 57.3175 18.7803 63.4805Z" fill="#006AFF"/>
</g>
<defs>
<clipPath id="clip0">
<rect width="66.2869" height="71.0217" fill="white" transform="translate(0.9646 0.499123)"/>
</clipPath>
</defs>
</svg>
