<svg width="112" height="100" viewBox="0 0 112 100" fill="none" xmlns="http://www.w3.org/2000/svg">
    <g clip-path="url(#clip0)">
        <path d="M64.1667 3.62295C63.0422 2.47582 61.7002 1.56453 60.2192 0.942423C58.7383 0.320312 57.1481 -0.00012207 55.5417 -0.00012207C53.9354 -0.00012207 52.3452 0.320312 50.8642 0.942423C49.3832 1.56453 48.0412 2.47582 46.9167 3.62295L3.55559 47.7785C1.27503 50.1348 0 53.2855 0 56.5646C0 59.8438 1.27503 62.9945 3.55559 65.3507L34.5 96.8674C36.6556 98.773 39.4667 99.9396 42.5556 99.9396H68.5389C70.1547 99.9383 71.7539 99.6138 73.2423 98.985C74.7307 98.3563 76.0783 97.436 77.2056 96.2785L107.55 65.3785C109.833 63.0236 111.11 59.8724 111.11 56.5924C111.11 53.3124 109.833 50.1612 107.55 47.8063L64.1723 3.62295H64.1667ZM62.9667 84.2785L58.6334 88.6785C58.4729 88.8452 58.2805 88.9778 58.0677 89.0685C57.8548 89.1592 57.6259 89.206 57.3945 89.2063H53.6889C53.2661 89.2022 52.8592 89.0442 52.5445 88.7618L48.1278 84.2729C47.802 83.9362 47.6198 83.486 47.6198 83.0174C47.6198 82.5488 47.802 82.0986 48.1278 81.7618L54.3167 75.4618C54.4767 75.2974 54.668 75.1666 54.8794 75.0774C55.0907 74.9881 55.3178 74.9421 55.5473 74.9421C55.7767 74.9421 56.0038 74.9881 56.2152 75.0774C56.4265 75.1666 56.6178 75.2974 56.7778 75.4618L62.9667 81.7674C63.2938 82.1035 63.4769 82.5539 63.4769 83.023C63.4769 83.492 63.2938 83.9424 62.9667 84.2785ZM62.9667 57.8396L45.6611 75.4674C45.4994 75.6316 45.3065 75.7618 45.0938 75.8505C44.881 75.9392 44.6527 75.9846 44.4223 75.9841H40.7223C40.2971 75.9858 39.886 75.8316 39.5667 75.5507L35.1611 71.0618C34.8349 70.7242 34.6526 70.273 34.6526 69.8035C34.6526 69.334 34.8349 68.8829 35.1611 68.5452L54.3223 49.0341C54.4826 48.8703 54.6741 48.7402 54.8854 48.6513C55.0967 48.5625 55.3236 48.5167 55.5528 48.5167C55.782 48.5167 56.0089 48.5625 56.2203 48.6513C56.4316 48.7402 56.623 48.8703 56.7834 49.0341L62.9723 55.3396C63.2987 55.6738 63.4815 56.1224 63.4815 56.5896C63.4815 57.0568 63.2987 57.5054 62.9723 57.8396H62.9667ZM62.9667 31.4174L32.6889 62.2507C32.5273 62.4171 32.3338 62.5491 32.12 62.6388C31.9061 62.7286 31.6764 62.7742 31.4445 62.7729H27.7389C27.3154 62.7743 26.9062 62.6201 26.5889 62.3396L22.1778 57.8396C21.8527 57.5047 21.6708 57.0564 21.6708 56.5896C21.6708 56.1229 21.8527 55.6745 22.1778 55.3396L54.3167 22.6063C54.4771 22.4425 54.6685 22.3124 54.8798 22.2236C55.0911 22.1347 55.318 22.089 55.5473 22.089C55.7765 22.089 56.0034 22.1347 56.2147 22.2236C56.426 22.3124 56.6175 22.4425 56.7778 22.6063L62.9667 28.9063C63.2938 29.2423 63.4769 29.6928 63.4769 30.1618C63.4769 30.6308 63.2938 31.0813 62.9667 31.4174Z" fill="#2AB14C"/>
    </g>
    <defs>
        <clipPath id="clip0">
            <rect width="111.111" height="100" fill="white"/>
        </clipPath>
    </defs>
</svg>
