<svg width="151" height="40" viewBox="0 0 151 40" fill="none" xmlns="http://www.w3.org/2000/svg">
    <g clip-path="url(#clip0)">
        <path d="M32.0046 32.944C33.0893 32.944 34.1707 32.944 35.2743 32.944C35.2743 35.0934 35.2743 37.2083 35.2743 39.3447C30.1194 39.3447 24.9797 39.3447 19.8415 39.3447C19.7703 39.0987 19.7437 33.5375 19.8158 32.9491C20.888 32.9375 21.9682 32.9502 23.0405 32.942C23.1151 32.6742 23.1326 19.7754 23.062 19.3659C19.5375 19.3659 16.0094 19.3659 12.4832 19.3659C12.4086 19.6289 12.3985 32.5752 12.4776 32.94C13.734 32.94 14.9981 32.94 16.2868 32.94C16.2868 35.0883 16.2868 37.2029 16.2868 39.3419C10.9491 39.3419 5.61762 39.3419 0.264963 39.3419C0.264963 37.2146 0.264963 35.1 0.264963 32.9443C1.36126 32.9443 2.44088 32.9443 3.53887 32.9443C3.53887 28.3996 3.53887 23.8961 3.53887 19.348C2.35896 19.348 1.18838 19.348 0 19.348C0 17.1971 0 15.0905 0 12.9328C1.16832 12.9104 2.33863 12.9359 3.55836 12.9186C3.55836 12.7539 3.55921 12.6094 3.55808 12.4649C3.55045 11.4312 3.5948 10.4027 3.80073 9.38492C4.4024 6.40901 6.13681 4.37036 8.8935 3.17971C10.1406 2.64093 11.4513 2.34419 12.7965 2.18037C14.3241 1.99445 15.8529 2.00975 17.3831 2.12907C17.7003 2.15401 18.0158 2.20446 18.344 2.24443C18.344 4.57131 18.344 6.87297 18.344 9.20694C17.9246 9.17406 17.5198 9.13835 17.1147 9.11114C16.2684 9.05417 15.421 9.0485 14.5868 9.21345C14.2329 9.28346 13.877 9.40448 13.5563 9.56943C12.8869 9.91407 12.514 10.4956 12.4623 11.2461C12.425 11.7912 12.455 12.3407 12.455 12.9169C18.9452 12.9169 25.4235 12.9169 31.8696 12.9169C31.9103 12.954 31.9199 12.9608 31.9269 12.9696C31.934 12.9778 31.9397 12.9875 31.9439 12.9977C31.9481 13.0082 31.9507 13.0198 31.9521 13.0308C31.9546 13.0535 31.9572 13.0765 31.9583 13.0994C31.9597 13.1221 31.9597 13.1451 31.9597 13.168C31.96 13.191 31.9603 13.2139 31.9603 13.2369C31.9603 19.7301 31.9606 26.2232 31.9608 32.7161C31.9608 32.7391 31.9623 32.762 31.9631 32.785C31.9634 32.7963 31.9634 32.8079 31.9651 32.8193C31.9671 32.8306 31.9702 32.8417 31.9736 32.8524C31.9767 32.8635 31.9809 32.874 32.0046 32.944Z" fill="#373535"/>
        <path d="M74.5001 22.872C77.0017 22.872 79.4782 22.872 81.9708 22.872C81.9807 22.804 82.0022 22.7479 81.9942 22.6966C81.9315 22.3018 81.9044 21.8951 81.7886 21.5159C81.4773 20.4975 80.8957 19.664 79.8833 19.2573C78.4952 18.6998 77.2032 18.9892 76.067 19.9145C75.1792 20.6378 74.7535 21.6544 74.4863 22.7436C74.4789 22.774 74.4928 22.8097 74.5001 22.872ZM91.0216 36.288C90.4369 36.763 89.8344 37.1539 89.2079 37.5104C87.065 38.7303 84.7653 39.4881 82.3278 39.8095C79.6209 40.1661 76.9342 40.064 74.3394 39.1463C69.5528 37.4534 66.61 34.0725 65.5035 29.122C64.8326 26.1212 65.1055 23.1549 66.2826 20.3181C68.0071 16.1601 71.1375 13.6441 75.4995 12.6601C77.3232 12.2486 79.1698 12.1964 81.0203 12.4498C83.3857 12.7737 85.5176 13.6413 87.3042 15.267C88.9511 16.7657 90.003 18.6312 90.6002 20.7625C91.1064 22.5682 91.275 24.4093 91.1069 26.2793C91.0739 26.6449 91.0468 27.0108 91.0123 27.3759C91.0007 27.4997 90.9753 27.6224 90.9519 27.7735C85.3922 27.7735 79.8517 27.7735 74.2852 27.7735C74.2908 27.8818 74.2837 27.9589 74.3007 28.0306C74.9699 30.8543 77.0224 32.2283 79.272 32.5491C80.6064 32.7396 81.9149 32.582 83.2066 32.2283C84.7391 31.8086 86.1659 31.151 87.5085 30.3036C87.5938 30.25 87.6813 30.1993 87.7986 30.1287C88.8717 32.1793 89.9372 34.2156 91.0216 36.288Z" fill="#373535"/>
        <path d="M54.9608 39.3507C51.4762 39.3507 48.0147 39.3507 44.5021 39.3507C42.0733 32.7033 39.6384 26.0401 37.1907 19.3415C36.208 19.3415 35.2309 19.3415 34.2383 19.3415C34.2383 17.1928 34.2383 15.0865 34.2383 12.9824C34.4821 12.9121 47.7438 12.8877 48.2387 12.958C48.2387 15.0692 48.2387 17.1838 48.2387 19.3341C47.478 19.3341 46.7283 19.3341 45.9272 19.3341C45.9599 19.4724 45.9766 19.5676 46.0054 19.6589C46.9983 22.8037 47.9904 25.9488 48.9875 29.0925C49.2793 30.0131 49.466 30.9546 49.5838 31.912C49.6028 32.0653 49.6344 32.2175 49.661 32.3754C49.8903 32.3428 49.8434 32.1895 49.8567 32.0781C49.9652 31.1663 50.1174 30.2631 50.3886 29.3845C50.72 28.3123 51.0637 27.2441 51.4016 26.1739C52.0807 24.0227 52.7594 21.8713 53.4377 19.7198C53.471 19.6135 53.4976 19.5053 53.5394 19.3539C52.7575 19.3539 52.0098 19.3539 51.2375 19.3539C51.2375 17.2014 51.2375 15.0865 51.2375 12.9478C55.889 12.9478 60.5358 12.9478 65.2074 12.9478C65.2074 15.0669 65.2074 17.1812 65.2074 19.3298C64.2365 19.3298 63.2698 19.3298 62.2764 19.3298C59.8335 26.0152 57.3983 32.6798 54.9608 39.3507Z" fill="#373535"/>
        <path d="M105.612 32.9431C106.802 32.9431 107.965 32.9431 109.15 32.9431C109.15 35.0906 109.15 37.2066 109.15 39.3442C103.825 39.3442 98.5143 39.3442 93.204 39.3442C93.1379 39.099 93.1145 33.5255 93.1826 32.9513C94.345 32.9329 95.5153 32.955 96.7073 32.9391C96.7144 32.7974 96.7243 32.6863 96.7243 32.5752C96.7251 28.5832 96.7172 24.591 96.731 20.5993C96.7339 19.7397 96.3209 19.3358 95.4749 19.344C94.8232 19.3503 94.1715 19.346 93.5198 19.3443C93.4085 19.344 93.2972 19.3338 93.1693 19.3273C93.1693 17.1974 93.1693 15.0907 93.1693 12.9551C93.2512 12.9452 93.3374 12.9257 93.4235 12.9257C96.2133 12.9254 99.0027 12.9251 101.792 12.9296C102.298 12.9302 102.792 13.0124 103.275 13.1694C104.334 13.5143 104.939 14.2555 105.146 15.3362C105.196 15.5935 105.222 15.8591 105.225 16.1215C105.234 16.821 105.229 17.5208 105.218 18.2205C105.215 18.4702 105.177 18.7196 105.217 18.9912C105.264 18.8738 105.313 18.7573 105.357 18.6391C106.191 16.4219 107.608 14.6956 109.664 13.5146C110.783 12.8715 111.996 12.5314 113.283 12.4606C113.729 12.4359 114.17 12.4719 114.621 12.5688C114.621 15.4725 114.621 18.3583 114.621 21.2614C114.101 21.2248 113.593 21.1726 113.084 21.1573C112.061 21.1262 111.052 21.2322 110.076 21.5567C108.074 22.2222 106.792 23.6052 106.115 25.5838C105.747 26.6577 105.61 27.771 105.595 28.899C105.579 30.1605 105.59 31.4226 105.59 32.6843C105.59 32.7515 105.601 32.819 105.612 32.9431Z" fill="#373535"/>
        <path d="M138.079 21.2679C137.63 21.2322 137.22 21.1925 136.81 21.1687C135.776 21.1083 134.753 21.1917 133.757 21.4861C131.573 22.132 130.202 23.5999 129.514 25.7485C129.208 26.7059 129.07 27.6936 129.053 28.6938C129.03 30.0358 129.044 31.3781 129.043 32.7201C129.043 32.7765 129.054 32.8323 129.064 32.9358C130.237 32.957 131.407 32.9352 132.598 32.9488C132.598 35.0943 132.598 37.2089 132.598 39.3447C127.274 39.3447 121.964 39.3447 116.631 39.3447C116.631 37.2191 116.631 35.1042 116.631 32.9556C117.802 32.9556 118.963 32.9556 120.155 32.9556C120.166 32.8278 120.183 32.7303 120.183 32.6331C120.184 28.5949 120.184 24.557 120.184 20.5188C120.184 20.2249 120.137 19.9452 119.945 19.7122C119.697 19.4092 119.348 19.3497 118.985 19.3469C118.334 19.3415 117.682 19.3452 117.03 19.3452C116.906 19.3452 116.782 19.3452 116.633 19.3452C116.633 17.2028 116.633 15.0876 116.633 12.9464C116.733 12.939 116.832 12.9254 116.931 12.9251C119.641 12.9243 122.351 12.9246 125.06 12.9246C125.624 12.9246 126.177 12.9886 126.716 13.1641C127.816 13.5223 128.43 14.296 128.614 15.4243C128.663 15.7284 128.684 16.0402 128.684 16.3486C128.684 17.2184 128.668 18.0879 128.657 19.0096C128.705 18.8959 128.742 18.814 128.773 18.7299C129.569 16.5682 130.918 14.8547 132.885 13.6496C134.068 12.9248 135.359 12.5351 136.743 12.46C137.188 12.4359 137.629 12.4728 138.079 12.5692C138.079 15.4748 138.079 18.3606 138.079 21.2679Z" fill="#373535"/>
        <path d="M23.2857 5.82941C23.2956 3.46653 25.1958 1.56563 27.5432 1.57044C29.8971 1.57526 31.8139 3.51471 31.7998 5.87674C31.7854 8.22204 29.8586 10.1266 27.5129 10.1144C25.1588 10.1023 23.2761 8.1937 23.2857 5.82941Z" fill="#373535"/>
        <path d="M145.34 9.84487C146.183 9.85196 146.938 9.59433 147.606 9.08616C149.64 7.53783 149.767 4.29295 147.864 2.57882C146.294 1.16455 143.904 1.32072 142.532 2.92686C141.199 4.48681 141.21 7.02966 142.566 8.56608C143.3 9.39905 144.222 9.84147 145.34 9.84487ZM151 5.70438C150.968 8.51336 149.021 10.9168 146.274 11.3739C144.059 11.7429 142.242 10.9536 140.901 9.15928C139.022 6.64704 139.557 2.98978 142.04 1.11297C145.213 -1.28562 149.829 0.385145 150.775 4.28303C150.888 4.74755 150.927 5.22994 151 5.70438Z" fill="#373535"/>
        <path d="M148.016 8.36006C147.625 7.60475 147.254 6.88996 146.886 6.18056C146.897 6.16185 146.901 6.14967 146.91 6.14372C146.937 6.12388 146.966 6.10574 146.995 6.08817C147.536 5.75713 147.78 5.26284 147.74 4.6413C147.696 3.96279 147.399 3.42401 146.747 3.15958C146.498 3.05897 146.217 3.00115 145.949 2.99378C145.15 2.97196 144.35 2.98443 143.549 2.98584C143.484 2.98613 143.418 3.00427 143.335 3.01674C143.335 4.79945 143.335 6.56998 143.335 8.35553C143.897 8.35553 144.438 8.35553 145.019 8.35553C145.019 7.74363 145.019 7.15354 145.019 6.56261C145.18 6.56261 145.3 6.56261 145.429 6.56261C145.686 7.1765 145.937 7.77593 146.182 8.36006C146.795 8.36006 147.373 8.36006 148.016 8.36006Z" fill="#FEFEFE"/>
        <path d="M145.031 4.13086C145.031 4.57328 145.031 4.97659 145.031 5.40739C145.363 5.40597 145.698 5.49383 145.915 5.17357C146.081 4.92898 146.084 4.64527 145.935 4.39473C145.734 4.05717 145.386 4.14673 145.031 4.13086ZM148.016 8.36006C147.373 8.36006 146.795 8.36006 146.182 8.36006C145.937 7.77593 145.686 7.1765 145.429 6.56261C145.3 6.56261 145.18 6.56261 145.019 6.56261C145.019 7.15354 145.019 7.74363 145.019 8.35553C144.438 8.35553 143.897 8.35553 143.335 8.35553C143.335 6.56998 143.335 4.79945 143.335 3.01674C143.418 3.00427 143.484 2.98613 143.549 2.98584C144.35 2.98443 145.15 2.97196 145.949 2.99378C146.217 3.00115 146.498 3.05897 146.747 3.15958C147.399 3.42401 147.696 3.96279 147.74 4.6413C147.78 5.26284 147.536 5.75713 146.995 6.08817C146.966 6.10574 146.937 6.12388 146.91 6.14372C146.901 6.14967 146.897 6.16185 146.886 6.18056C147.254 6.88996 147.625 7.60475 148.016 8.36006Z" fill="#373535"/>
    </g>
    <defs>
        <clipPath id="clip0">
            <rect width="151" height="40" fill="white"/>
        </clipPath>
    </defs>
</svg>
