<svg width="159" height="52" viewBox="0 0 159 52" fill="none" xmlns="http://www.w3.org/2000/svg">
    <path d="M36.0586 27.7155C36.5976 27.4474 37.1905 27.1258 37.7295 26.8578C37.9451 26.7505 38.6997 26.4825 38.8075 26.2681C38.8614 26.1608 38.8075 25.8392 38.8075 25.6784V24.3918V15.2248V6.27219V5.09281C38.8075 5.0392 38.8614 4.66394 38.8075 4.61033C38.7536 4.55673 38.3224 4.61033 38.2685 4.61033H37.0827C36.6515 4.61033 36.7054 4.66394 36.4359 4.98559C35.4119 6.3258 34.3878 7.666 33.3637 9.05982C32.8786 9.70312 32.3936 10.2928 31.9624 10.9361C31.639 11.365 31.639 11.4186 31.0461 11.4186L31.2078 7.88044C31.2617 7.0227 31.2617 6.16497 31.3156 5.30724C31.3156 4.98559 31.3695 4.66394 31.3695 4.34229C31.3695 4.23508 31.3156 3.91343 31.3695 3.85982C31.4773 3.69899 32.4475 3.80621 32.7169 3.80621H52.8749C52.9827 3.80621 53.4678 3.7526 53.5756 3.80621C53.6834 3.85982 53.6295 4.18147 53.6295 4.34229C53.6834 5.0392 53.6834 5.78971 53.7373 6.48662C53.7912 8.04126 53.8451 9.54229 53.9529 11.0969V11.4186C53.6834 11.4186 53.4678 11.4722 53.2522 11.3114C53.0366 11.1505 52.8749 10.8289 52.7132 10.6145C52.0664 9.75672 51.4197 8.84538 50.719 7.98765L48.7786 5.41446C48.6708 5.25363 48.5092 4.87837 48.2936 4.77116C48.1319 4.66394 47.8085 4.71755 47.5929 4.71755H46.7305C46.6227 4.71755 46.1915 4.66394 46.0837 4.71755C46.0298 4.77116 46.0837 4.77116 46.0298 4.87838C45.922 5.30724 46.0298 5.84332 46.0298 6.27219V24.9279C46.0298 25.3031 45.922 25.8392 46.0298 26.2145C46.1376 26.5897 47 26.8578 47.3773 27.0186C47.7546 27.233 48.4014 27.3938 48.7247 27.7155C48.8325 27.8227 48.9403 28.3588 48.8325 28.5196C48.7786 28.5732 48.5092 28.5196 48.4553 28.5196H36.5976C36.4898 28.5196 36.1125 28.5732 36.0586 28.5196C36.0047 28.3052 36.0586 27.8763 36.0586 27.7155ZM56.0549 26.7505V18.9237V6.11136V4.02064C56.0549 3.69899 56.1627 3.21652 56.0549 2.89487C55.9471 2.51961 55.3003 2.466 54.9231 2.30518C54.7075 2.25157 54.0068 2.09075 53.899 1.87631V1.44745H54.0607C54.2763 1.34023 54.7075 1.34023 54.977 1.28662C55.462 1.17941 55.9471 1.1258 56.3783 1.01858C57.4563 0.804148 58.5881 0.589716 59.6661 0.428891C60.3129 0.321674 60.9597 0.16085 61.6064 0.0536332C61.7681 0.0536332 62.4149 -0.0535833 62.4688 0.0536332C62.5227 0.107241 62.4688 0.321674 62.4688 0.375283V11.4722C64.517 9.43507 68.0742 8.3093 70.9309 9.00621C73.4102 9.5959 74.2187 11.9011 74.2187 14.2598C74.2726 17.2619 74.2187 20.2103 74.2187 23.2124V25.6248C74.2187 25.8928 74.1109 26.5361 74.2187 26.8041C74.2726 26.9114 74.4881 26.965 74.5959 27.0722C74.9732 27.2866 75.4044 27.5011 75.7817 27.7155C75.8356 27.7691 75.9973 27.8227 75.9973 27.8763C76.0512 27.9299 76.0512 28.4124 75.9973 28.466C75.9434 28.5732 75.9434 28.5196 75.7817 28.5196C75.1888 28.6268 74.542 28.5196 74.0031 28.5196H66.2417C66.1878 28.5196 65.9183 28.5732 65.8644 28.5196C65.8105 28.466 65.8105 27.8763 65.8644 27.8227C66.0261 27.6083 66.6729 27.3938 66.8885 27.233C67.0502 27.1258 67.5353 26.965 67.6431 26.8041C67.7509 26.6433 67.6431 26.0536 67.6431 25.8928V23.6949C67.6431 20.5856 67.697 17.4227 67.6431 14.3134C67.6431 13.4021 67.4814 12.3299 66.5651 11.8474C66.08 11.5794 65.4332 11.5258 64.8942 11.5258C64.4631 11.5258 64.0319 11.633 63.6546 11.7402C63.3312 11.8474 62.7383 12.0619 62.5227 12.3299C62.361 12.5444 62.4688 12.866 62.4688 13.134V25.7856C62.4688 26.0536 62.361 26.5897 62.4688 26.8041C62.5227 26.9114 62.7383 27.0186 62.9 27.0722C63.2773 27.2866 63.7624 27.5011 64.1397 27.7155C64.1936 27.7691 64.3014 27.7691 64.3014 27.8227C64.3553 27.8763 64.3553 28.3588 64.3014 28.4124C64.2475 28.466 64.1936 28.466 64.0858 28.466C63.4929 28.5196 62.8461 28.466 62.2532 28.466H54.4919C54.438 28.466 54.1685 28.5196 54.1146 28.466C54.0607 28.4124 54.1146 27.8763 54.1685 27.7691C54.3302 27.5547 54.9231 27.3402 55.1386 27.233C55.5159 27.0722 55.7854 26.9114 56.0549 26.7505ZM81.6566 19.3526C81.7644 21.7114 82.519 24.3382 84.6749 25.6248C85.8068 26.2681 87.2081 26.4825 88.5017 26.3753C90.0648 26.2145 91.3583 25.4639 92.7058 24.767C92.7058 24.9815 92.7597 25.3567 92.7058 25.5712C92.598 25.7856 92.3285 26.0536 92.1668 26.2145C91.9512 26.4289 91.6817 26.6969 91.4122 26.9114C90.4959 27.6619 89.4719 28.198 88.3939 28.5732C86.3458 29.2701 83.9742 29.2165 81.8722 28.6804C80.2014 28.2516 78.6922 27.4474 77.5603 26.1608C76.4285 24.8742 75.7817 23.2124 75.5122 21.4969C74.9193 17.798 75.62 13.5629 78.6922 11.0969C81.3871 8.9526 85.699 8.52374 88.879 9.81033C92.7597 11.365 93.4065 15.7608 93.4065 19.4062H83.1119C82.6268 19.3526 82.1417 19.3526 81.6566 19.3526ZM81.5488 18.4413C82.6268 18.3877 83.7048 18.334 84.8366 18.2268C85.4834 18.1732 86.1841 18.1732 86.8309 18.1196C86.9387 18.1196 87.2081 18.1196 87.3159 18.066C87.4776 17.9588 87.3698 16.8866 87.3698 16.6722C87.3159 14.7423 87.262 12.3835 86.1302 10.7217C85.3217 9.54229 84.082 9.75673 83.3275 10.8289C81.7644 12.9196 81.5488 16.0289 81.5488 18.4413ZM-0.0532227 38.0083C-0.0532227 35.0062 0.539659 31.8969 2.21051 29.3773C3.82746 26.9114 6.41458 25.3031 9.21729 24.499C12.6129 23.534 16.3858 23.6413 19.8892 24.2846C20.6437 24.4454 21.3983 24.6062 22.099 24.8206C22.2068 24.8742 22.6919 24.9815 22.7458 25.0887V25.2495C22.9075 25.8928 22.7997 26.6969 22.7997 27.3402C22.8536 29.0021 22.8536 30.7175 22.9075 32.3794C22.6919 32.3794 22.3146 32.433 22.1529 32.3794C22.0451 32.3258 21.9373 32.0578 21.8834 31.9505C21.4522 31.3072 21.021 30.6639 20.6437 29.967C19.7275 28.5196 18.7573 27.0722 17.841 25.6248C17.3559 24.8206 16.0085 24.8206 15.1461 24.8206C14.1759 24.8206 13.2058 24.9815 12.3973 25.4639C10.5647 26.5897 9.70237 28.7876 9.21729 30.7712C8.46271 33.934 8.51661 37.2578 8.6783 40.4742C8.84 42.9402 9.05559 45.567 10.0258 47.8186C10.6186 49.2124 11.6427 50.4454 13.2058 50.767C13.6908 50.8742 14.1759 50.8742 14.7149 50.8206C15.0383 50.767 16.1702 50.7134 16.3319 50.3918C16.3858 50.2846 16.3319 50.0165 16.3319 49.9093V48.998V43.3155V41.1175C16.3319 40.7423 16.4397 40.5815 16.1163 40.367C15.739 40.1526 15.3078 39.9382 14.9305 39.6701C14.661 39.5093 14.122 39.3485 13.9603 39.134C13.8525 39.0268 13.7986 38.4371 13.9064 38.3299C13.9603 38.2227 13.9603 38.2763 14.122 38.2763C14.6071 38.1691 15.2539 38.2763 15.739 38.2763H24.0932C24.6322 38.2763 25.2251 38.2227 25.7641 38.2763H25.9797C26.0336 38.3299 26.0336 39.0804 25.9797 39.1876C25.8719 39.3485 25.3329 39.5629 25.1173 39.6701C24.74 39.8846 24.3088 40.099 23.9315 40.367C23.5003 40.5815 23.5542 40.5815 23.5542 41.0639V49.8021C23.5542 49.9093 23.6081 50.1773 23.5542 50.2846C23.4464 50.5526 22.3146 50.7134 21.9912 50.8206C21.0749 51.0887 20.1047 51.3031 19.1346 51.4639C17.2481 51.7856 15.3617 51.8928 13.4753 51.8392C10.4569 51.732 7.27695 51.0887 4.79763 49.266C2.64169 47.7114 1.24034 45.3526 0.593557 42.7794C0.108472 41.2784 -0.0532227 39.6165 -0.0532227 38.0083ZM24.7939 33.1299C24.7939 33.0227 24.74 32.5938 24.7939 32.5402C24.8478 32.4866 24.9017 32.5402 24.9556 32.4866C25.279 32.3258 25.7102 32.3258 26.0875 32.2722C27.3271 32.0578 28.5668 31.8433 29.8603 31.6289C30.8305 31.4681 31.8007 31.2536 32.7169 31.1464C32.9864 31.0928 33.3098 31.0928 33.5793 31.2C33.8488 31.2536 33.741 31.2 33.7949 31.4145C33.9027 32.0578 33.7949 32.8083 33.7949 33.4516V44.6557C33.7949 45.9959 33.4176 48.4619 34.7112 49.266C35.358 49.6949 36.2742 49.6949 37.0288 49.534C37.6217 49.4268 38.7536 48.998 38.9692 48.3547C39.0231 48.1938 38.9692 47.9794 38.9692 47.8186V46.6928V39.2413V35.8103V34.6846C38.9692 34.5773 39.0231 34.2557 38.9692 34.1485C38.8075 33.9876 38.2685 33.8268 38.1068 33.7732C37.7834 33.666 37.5139 33.5052 37.1905 33.398C37.0827 33.3443 36.7054 33.2907 36.6515 33.1835C36.5976 33.1299 36.5976 32.6474 36.6515 32.5938C36.7054 32.5402 36.7054 32.5938 36.7593 32.5402C37.0288 32.3794 37.5139 32.433 37.7834 32.3794C39.9932 32.0041 42.257 31.5217 44.5207 31.2C44.7902 31.1464 45.0597 31.1464 45.3292 31.2C45.5986 31.2536 45.4908 31.1464 45.5447 31.4145C45.6525 31.9505 45.5447 32.701 45.5447 33.2907V48.7299C45.5447 48.8907 45.4908 49.1588 45.5447 49.3732C45.5986 49.534 45.5447 49.4804 45.8142 49.5876C46.3532 49.8021 46.9461 50.0701 47.4851 50.2846C47.6468 50.3382 47.7007 50.3382 47.7546 50.4454C47.8085 50.5526 47.8085 50.9279 47.7546 50.9279C47.6468 51.0351 47.1078 50.9815 47 51.0351C45.8142 51.1959 44.6285 51.3031 43.3888 51.4639C42.3108 51.5712 41.2329 51.732 40.2088 51.8392C39.9932 51.8928 39.7776 51.8928 39.562 51.8392C39.4542 51.8392 39.1308 51.8392 39.077 51.7856C39.0231 51.6784 39.077 51.2495 39.077 51.1423V50.2309C39.077 50.0701 39.1847 49.6413 39.077 49.4804C38.9692 49.3196 38.7536 49.534 38.5919 49.6413C38.1607 50.0165 37.6756 50.3918 37.1905 50.6598C35.4119 51.732 33.202 52.2145 31.1539 51.7856C29.6447 51.4639 28.3512 50.6062 27.7044 49.1588C27.2193 48.1402 27.1115 47.0145 27.1115 45.9423V39.5629V35.9175V34.6846C27.1115 34.5773 27.1654 34.2557 27.1115 34.1485C27.0037 33.9876 26.3569 33.8268 26.1953 33.7196C25.6563 33.5052 25.2251 33.3443 24.7939 33.1299ZM75.62 31.0928C75.7278 31.0928 76.2129 31.0928 76.2668 31.2C76.3207 31.2536 76.2668 31.6289 76.2668 31.6825V36.4C76.2668 36.5608 76.2129 36.8289 76.2668 36.9897V37.0969C76.4824 37.3114 76.5363 36.6145 76.5902 36.5608C77.0753 34.5773 77.9915 32.2722 80.0397 31.4681C80.417 31.3072 80.7943 31.2536 81.1715 31.2C81.4949 31.2 82.4112 31.0928 82.5729 31.3608C82.6268 31.4681 82.5729 31.7361 82.5729 31.8433V37.3114C81.2793 37.0433 79.8241 37.0969 78.5844 37.365C77.9915 37.4722 77.4526 37.633 76.9136 37.9011C76.6441 38.0083 76.5902 37.9547 76.5363 38.1691C76.4824 38.3835 76.5363 38.7588 76.5363 38.9732V49.3196C76.5363 49.4268 76.4824 49.5876 76.5363 49.6949C76.6441 49.8557 77.0214 49.9629 77.1831 50.0165C77.4526 50.1773 77.7759 50.3382 78.0454 50.499C78.1532 50.5526 78.3149 50.6062 78.3688 50.7134C78.4227 50.767 78.4227 51.4103 78.3688 51.4639C78.3149 51.5175 77.9915 51.4639 77.8837 51.4639H68.9366C68.6671 51.4639 68.182 51.5712 67.9664 51.4639H67.8047C67.7509 51.4103 67.8047 50.8206 67.8047 50.767C67.9125 50.4454 68.6132 50.2309 68.9366 50.0701C69.1522 49.9629 69.5834 49.8021 69.6912 49.5876C69.7451 49.4804 69.6912 49.1588 69.6912 49.0516V47.9258V34.1485C69.6912 34.0949 69.7451 33.8268 69.6912 33.7732C69.6373 33.7196 69.3678 33.666 69.26 33.666C68.9366 33.5588 68.6132 33.4516 68.2898 33.398C67.9664 33.2907 67.158 33.2371 67.4275 32.701C67.4814 32.5402 67.697 32.5938 67.9125 32.5402C70.2841 32.1114 72.6017 31.6825 74.9732 31.2536C75.1888 31.1464 75.4044 31.1464 75.62 31.0928ZM95.9397 31.5753V27.2866V26.0536C95.9397 25.8928 95.9936 25.5712 95.9397 25.4103C95.8858 25.3031 95.6702 25.2495 95.5085 25.1959C95.0773 25.0351 94.6461 24.8742 94.161 24.7134C93.8376 24.6062 93.6759 24.6598 93.6759 24.2846C93.6759 23.9629 93.622 24.0701 93.8915 24.0165C94.4844 23.8021 95.1851 23.8021 95.778 23.6949C97.5566 23.3732 99.2814 23.0516 101.06 22.7299C101.437 22.6763 101.815 22.5691 102.192 22.6227C102.623 22.6763 102.677 22.5691 102.677 22.9443C102.731 23.8021 102.677 24.7134 102.677 25.5712V49.0516C102.677 49.266 102.623 49.266 102.785 49.3732C103.108 49.5876 103.647 49.6949 103.971 49.8021C104.186 49.8557 104.779 49.9629 104.887 50.1237C104.941 50.1773 104.941 50.767 104.887 50.8206C104.833 50.8742 104.51 50.8742 104.456 50.8742C103.701 50.9815 103 51.0887 102.246 51.1423C100.575 51.3567 98.9041 51.5712 97.1793 51.7856C96.9098 51.8392 96.2631 51.9464 96.1553 51.732C96.0475 51.5175 96.1553 50.8206 96.1553 50.6062C96.1553 50.4454 96.2631 49.7485 96.1553 49.6413C96.0475 49.534 94.8617 50.6062 94.7 50.7134C94.0532 51.1423 93.3526 51.4639 92.598 51.6784C91.4122 52 90.0648 52 88.879 51.732C83.7048 50.5526 82.6268 44.4413 83.058 39.9918C83.2736 37.633 84.0281 35.2742 85.6451 33.5588C87.1542 32.0041 89.2024 31.2 91.3044 31.0392C92.9214 30.8784 94.4844 30.9856 95.9397 31.5753ZM95.9397 48.6763V35.4887V33.0227C95.9397 32.701 95.8858 32.6474 95.5085 32.433C94.7539 32.0041 93.7837 31.8433 92.9753 32.165C91.7356 32.6474 91.1427 34.0949 90.8193 35.2743C90.1726 37.4186 90.1187 39.7237 90.1726 41.9753C90.2265 43.9052 90.2803 46.2639 91.3583 47.9794C92.3285 49.4804 94.5383 49.8557 95.9397 48.6763ZM113.78 31.0928C114.05 31.1464 114.373 31.0392 114.481 31.3072C114.535 31.4681 114.481 31.8433 114.481 32.0041V48.7835C114.481 48.998 114.427 49.3196 114.481 49.534C114.535 49.7485 114.75 49.8021 114.966 49.9093C115.289 50.0701 115.559 50.2309 115.882 50.3918C115.99 50.4454 116.313 50.5526 116.367 50.7134C116.367 50.767 116.421 51.4103 116.367 51.4639H116.205C115.882 51.5175 115.451 51.4639 115.074 51.4639H106.881C106.665 51.4639 106.073 51.5712 105.911 51.4639C105.803 51.4103 105.749 50.767 105.857 50.6598C105.965 50.499 106.342 50.3918 106.504 50.3382C106.827 50.1773 107.151 49.9629 107.474 49.8021C107.743 49.6413 107.69 49.6949 107.69 49.4804C107.797 48.6763 107.69 47.765 107.69 46.9608V42.7258V35.0062C107.69 34.7918 107.743 34.4165 107.69 34.2021C107.636 33.9876 107.366 33.9876 107.151 33.8804C106.773 33.7196 106.45 33.6124 106.073 33.4516C105.965 33.398 105.534 33.3443 105.426 33.1835C105.372 33.1299 105.372 32.5938 105.426 32.5402C105.48 32.4866 105.587 32.5402 105.641 32.4866C106.073 32.3258 106.558 32.3258 107.043 32.2186C107.743 32.1114 108.39 31.9505 109.091 31.8433C110.438 31.6289 111.732 31.3608 113.079 31.1464C113.349 31.2 113.564 31.1464 113.78 31.0928ZM114.535 26.1072C114.427 29.3237 110.061 30.7175 108.067 28.198C107.151 27.0186 107.097 25.4103 107.905 24.1773C108.714 22.9443 110.277 22.4083 111.732 22.7299C113.349 23.0516 114.535 24.4454 114.535 26.1072ZM138.142 49.6413V36.7217V34.2557C138.142 34.2021 138.196 33.934 138.142 33.8804C138.088 33.7732 137.765 33.7196 137.657 33.7196L136.687 33.398C136.525 33.3443 136.094 33.2907 135.986 33.1299C135.878 33.0227 135.932 32.7547 135.932 32.5938C135.932 32.2722 136.04 32.3258 136.363 32.2722L139.921 31.6289L143.478 30.9856C143.694 30.932 143.855 30.8784 144.071 30.8784C144.179 30.8784 144.718 30.8784 144.825 30.932C144.879 30.9856 144.825 31.3072 144.825 31.4145V32.433C144.825 32.5938 144.718 33.0763 144.825 33.2371C144.933 33.4516 145.149 33.2371 145.311 33.0763C145.796 32.701 146.281 32.3794 146.82 32.1114C148.76 31.0392 151.078 30.5567 153.287 30.8784C154.797 31.0928 156.036 31.8969 156.575 33.3443C156.953 34.3629 157.006 35.4351 157.006 36.5072V48.7299C157.006 48.9443 156.953 49.3196 157.006 49.534C157.06 49.7485 157.222 49.8021 157.492 49.9093C157.761 50.0701 158.084 50.2309 158.354 50.3918C158.462 50.4454 158.839 50.5526 158.893 50.7134C158.947 50.8206 158.947 51.3567 158.893 51.4103C158.839 51.5175 158.947 51.4103 158.785 51.4639C158.57 51.5712 158.084 51.4639 157.815 51.4639H150.107C149.784 51.4639 148.544 51.6248 148.383 51.4103C148.329 51.3567 148.329 50.767 148.383 50.6598C148.437 50.5526 148.76 50.4454 148.868 50.3918C149.191 50.2309 149.461 50.0701 149.784 49.9093C149.892 49.8557 150.215 49.7485 150.269 49.6413C150.323 49.534 150.269 49.3196 150.269 49.2124V48.033V44.2804V37.0433C150.269 36.1856 150.323 35.2206 149.784 34.4701C149.353 33.8268 148.598 33.666 147.844 33.6124C147.251 33.6124 146.712 33.666 146.173 33.8268C145.903 33.934 145.095 34.1485 144.933 34.4701C144.879 34.5773 144.933 34.7918 144.933 34.899V48.7835C144.933 48.9443 144.879 49.3196 144.933 49.4804C144.987 49.6949 145.311 49.7485 145.472 49.8557C145.742 50.0165 146.065 50.1773 146.335 50.3382C146.442 50.3918 146.658 50.499 146.712 50.5526C146.766 50.6062 146.766 51.2495 146.712 51.3031C146.712 51.3567 146.658 51.3031 146.604 51.3031C146.388 51.4103 145.85 51.3031 145.634 51.3031H136.579C136.31 51.3031 136.256 51.3567 136.202 51.1959C136.148 51.0887 136.148 50.6062 136.202 50.499C136.256 50.3918 136.579 50.2846 136.687 50.2309C137.226 50.1773 137.657 49.9093 138.142 49.6413ZM126.716 39.7773C126.716 38.3835 126.77 36.9361 126.662 35.4887C126.5 33.934 126.069 32.2186 124.29 31.8969C123.751 31.7897 122.781 31.6289 122.404 32.0578C122.026 32.433 121.757 32.9691 121.434 33.398L118.685 37.0969C118.523 37.3114 118.361 37.7402 118.146 37.8474C118.092 37.9011 117.553 37.9011 117.553 37.8474C117.499 37.7938 117.553 37.4186 117.553 37.3114V32.9691C117.553 32.8083 117.499 32.5402 117.553 32.3794C117.661 32.1114 118.846 31.9505 119.116 31.8433C120.625 31.4681 122.188 31.2 123.751 31.0928C125.961 30.932 128.44 30.9856 130.488 31.9505C132.105 32.701 133.13 34.0413 133.399 35.7567C133.561 36.6145 133.507 37.5794 133.507 38.4371V49.1588C133.507 49.3196 133.399 49.7485 133.507 49.8557C133.561 49.9093 133.83 49.9629 133.884 49.9629C134.315 50.0701 134.693 50.1773 135.124 50.2846C135.393 50.3382 135.447 50.3382 135.447 50.6062C135.447 50.8742 135.501 50.8742 135.178 50.9815C134.8 51.1423 134.423 51.3031 134.046 51.4103C132.052 52 128.925 52.1608 127.47 50.3382C127.362 50.1773 127.039 49.4804 126.877 49.4268C126.662 49.3732 126.015 50.2309 125.799 50.3918C124.937 51.1423 123.805 51.5712 122.673 51.732C120.571 52 118.307 51.5712 117.014 49.7485C115.936 48.1938 115.72 45.7815 116.529 44.066C117.984 40.7959 122.296 40.4742 125.422 39.9382C125.799 39.9382 126.231 39.8309 126.716 39.7773ZM126.716 48.6763V40.7423C125.099 40.8495 123.428 40.9567 122.835 42.7258C122.404 43.9052 122.404 45.299 122.565 46.532C122.673 47.3897 122.889 48.4619 123.697 48.998C124.56 49.5876 126.015 49.4804 126.716 48.6763ZM58.4803 39.7773C58.4803 38.3835 58.5342 36.9361 58.4264 35.4887C58.2647 33.934 57.8336 32.2186 56.0549 31.8969C55.5159 31.7897 54.5458 31.6289 54.1685 32.0578C53.7912 32.433 53.5217 32.9691 53.1983 33.398L50.4495 37.0969C50.2878 37.3114 50.1261 37.7402 49.9105 37.8474C49.8566 37.9011 49.3176 37.9011 49.3176 37.8474C49.2637 37.7938 49.3176 37.4186 49.3176 37.3114V33.0227C49.3176 32.8619 49.2637 32.5938 49.3176 32.433C49.4254 32.165 50.5573 32.0041 50.8807 31.8969C52.3898 31.5217 53.9529 31.2536 55.462 31.1464C57.6719 30.9856 60.1512 31.0392 62.1993 32.0041C63.8163 32.7547 64.8403 34.0949 65.1098 35.8103C65.2715 36.6681 65.2176 37.633 65.2176 38.4907V49.2124C65.2176 49.3732 65.1098 49.8021 65.2176 49.9093C65.2715 49.9629 65.541 50.0165 65.5949 50.0165C66.0261 50.1237 66.4034 50.2309 66.8346 50.3382C67.1041 50.3918 67.158 50.3918 67.158 50.6598C67.158 50.9279 67.2119 50.9279 66.8885 51.0351C66.5112 51.1959 66.1339 51.3567 65.7566 51.4639C63.7624 52.0536 60.6363 52.2145 59.181 50.3918C59.0732 50.2309 58.7498 49.534 58.5881 49.4804C58.3725 49.4268 57.7258 50.2846 57.5641 50.4454C56.7017 51.1959 55.5698 51.6248 54.438 51.7856C52.3359 52.0536 50.0722 51.6248 48.7786 49.8021C47.7007 48.2474 47.4851 45.8351 48.2936 44.1196C49.7488 40.8495 54.0607 40.5279 57.1329 39.9918C57.5641 39.9382 57.9953 39.8309 58.4803 39.7773ZM58.4803 48.6763V40.7423C56.8634 40.8495 55.1925 40.9567 54.5997 42.7258C54.1685 43.9052 54.1685 45.299 54.3302 46.532C54.438 47.3897 54.6536 48.4619 55.462 48.998C56.3244 49.5876 57.7797 49.4804 58.4803 48.6763Z" fill="#121212"/>
</svg>
