<svg width="9" height="14" viewBox="0 0 9 14" fill="none" xmlns="http://www.w3.org/2000/svg">
<path d="M0.612585 11.85L5.46258 6.99999L0.612585 2.14999C0.496857 2.03426 0.405058 1.89687 0.342427 1.74567C0.279795 1.59446 0.247559 1.4324 0.247559 1.26874C0.247559 1.10507 0.279795 0.943013 0.342427 0.791808C0.405058 0.640603 0.496857 0.503214 0.612585 0.387487C0.728312 0.27176 0.8657 0.179959 1.01691 0.117328C1.16811 0.0546971 1.33017 0.0224609 1.49383 0.0224609C1.6575 0.0224609 1.81956 0.0546971 1.97076 0.117328C2.12197 0.179959 2.25936 0.27176 2.37508 0.387487L8.11258 6.12499C8.60008 6.61249 8.60008 7.39999 8.11258 7.88749L2.37508 13.625C2.25944 13.7409 2.12208 13.8328 1.97086 13.8955C1.81965 13.9583 1.65754 13.9905 1.49383 13.9905C1.33012 13.9905 1.16802 13.9583 1.0168 13.8955C0.865588 13.8328 0.728227 13.7409 0.612585 13.625C0.137585 13.1375 0.125085 12.3375 0.612585 11.85Z" fill="#363636"/>
</svg>
