<svg width="9" height="14" viewBox="0 0 9 14" fill="none" xmlns="http://www.w3.org/2000/svg">
<path d="M8.38742 2.15001L3.53742 7.00001L8.38742 11.85C8.50314 11.9657 8.59494 12.1031 8.65757 12.2543C8.7202 12.4055 8.75244 12.5676 8.75244 12.7313C8.75244 12.8949 8.7202 13.057 8.65757 13.2082C8.59494 13.3594 8.50314 13.4968 8.38742 13.6125C8.27169 13.7282 8.1343 13.82 7.98309 13.8827C7.83189 13.9453 7.66983 13.9775 7.50617 13.9775C7.3425 13.9775 7.18044 13.9453 7.02924 13.8827C6.87803 13.82 6.74064 13.7282 6.62492 13.6125L0.887416 7.87501C0.399916 7.38751 0.399916 6.60001 0.887416 6.11251L6.62492 0.375015C6.74056 0.259136 6.87792 0.167201 7.02914 0.104475C7.18035 0.0417479 7.34246 0.00946033 7.50617 0.00946034C7.66988 0.00946035 7.83198 0.041748 7.9832 0.104475C8.13441 0.167201 8.27177 0.259136 8.38742 0.375015C8.86242 0.862515 8.87492 1.66251 8.38742 2.15001Z" fill="#363636"/>
</svg>
