<svg width="22" height="22" viewBox="0 0 22 22" fill="none" xmlns="http://www.w3.org/2000/svg">
<path d="M10.4226 1.40839C10.7686 1.16364 11.2314 1.16364 11.5774 1.40839L13.1517 2.52181C13.333 2.65 13.5517 2.71423 13.7735 2.70438L15.6999 2.61884C16.1233 2.60004 16.5126 2.85022 16.6714 3.2432L17.3938 5.031C17.477 5.23683 17.6263 5.40914 17.8182 5.52076L19.485 6.49025C19.8513 6.70336 20.0436 7.1243 19.9647 7.54075L19.6059 9.43531C19.5646 9.65343 19.597 9.8791 19.6981 10.0768L20.5762 11.7935C20.7692 12.1708 20.7033 12.6289 20.4118 12.9366L19.0857 14.3364C18.933 14.4976 18.8383 14.7049 18.8165 14.9259L18.627 16.8448C18.5853 17.2666 18.2823 17.6163 17.8707 17.7176L15.9983 18.1782C15.7827 18.2312 15.5909 18.3545 15.4531 18.5286L14.2563 20.0404C13.9932 20.3727 13.5492 20.5031 13.1482 20.3658L11.324 19.741C11.114 19.669 10.886 19.669 10.676 19.741L8.85177 20.3658C8.45078 20.5031 8.00677 20.3727 7.74369 20.0404L6.54686 18.5286C6.40906 18.3545 6.21726 18.2312 6.00169 18.1782L4.12928 17.7176C3.7177 17.6163 3.41466 17.2666 3.37301 16.8448L3.18353 14.9259C3.16172 14.7049 3.06701 14.4976 2.91433 14.3364L1.58819 12.9366C1.29669 12.6289 1.23083 12.1708 1.42384 11.7935L2.30188 10.0768C2.40297 9.8791 2.43542 9.65343 2.39411 9.43531L2.03529 7.54075C1.95642 7.1243 2.14865 6.70336 2.51503 6.49025L4.18182 5.52076C4.37372 5.40914 4.52303 5.23683 4.6062 5.031L5.32862 3.2432C5.48742 2.85022 5.87671 2.60004 6.30015 2.61884L8.22649 2.70438C8.44827 2.71423 8.66703 2.65 8.84828 2.52181L10.4226 1.40839Z" stroke="#363636" stroke-width="2"/>
<ellipse cx="13.7663" cy="10.7737" rx="2.19399" ry="3.54413" transform="rotate(0.180268 13.7663 10.7737)" fill="#363636"/>
<ellipse cx="8.05844" cy="10.9225" rx="1.64982" ry="1.62888" transform="rotate(-23.9868 8.05844 10.9225)" fill="#363636"/>
</svg>
