<svg width="19" height="22" viewBox="0 0 19 22" fill="none" xmlns="http://www.w3.org/2000/svg">
    <g clip-path="url(#clip0)">
        <path d="M15.8196 1.71256C14.8045 0.55559 12.9696 0.0595703 10.6223 0.0595703H3.80956C3.57731 0.0595789 3.35268 0.142437 3.17606 0.293249C2.99943 0.444061 2.8824 0.652932 2.846 0.882312L0.00931438 18.8733C-0.0470697 19.2281 0.227639 19.5493 0.587215 19.5493H4.79315L5.84944 12.8494L5.81666 13.0592C5.89191 12.5857 6.29694 12.2364 6.77657 12.2364H8.77522C12.7016 12.2364 15.776 10.6416 16.674 6.0282C16.7007 5.89176 16.7238 5.75896 16.7437 5.62921C16.6304 5.56919 16.6304 5.56919 16.7437 5.62921C17.0112 3.92407 16.7419 2.76339 15.8196 1.71256Z" fill="#27346A"/>
        <path d="M7.45879 5.01496C7.57378 4.96021 7.69954 4.93184 7.82689 4.93191H13.1679C13.8004 4.93191 14.3903 4.97307 14.9294 5.05983C15.0802 5.08389 15.2303 5.1126 15.3794 5.14594C15.5907 5.19256 15.7995 5.24962 16.0051 5.31691C16.2702 5.40542 16.517 5.5085 16.7438 5.62921C17.0112 3.92341 16.7419 2.76338 15.8196 1.71256C14.804 0.55559 12.9696 0.0595703 10.6223 0.0595703H3.80898C3.32927 0.0595703 2.92118 0.408802 2.846 0.882312L0.00931478 18.8726C-0.0470693 19.228 0.227639 19.5488 0.586633 19.5488H4.79315L6.98463 5.65165C7.00617 5.51505 7.06059 5.38574 7.14319 5.27483C7.22578 5.16392 7.33409 5.07474 7.45879 5.01496Z" fill="#27346A"/>
        <path d="M16.6749 6.02789C15.7768 10.6406 12.7025 12.236 8.77605 12.236H6.77682C6.29719 12.236 5.89208 12.5854 5.81756 13.0589L4.50346 21.3894C4.45436 21.6999 4.69447 21.9812 5.00859 21.9812H8.55408C8.75718 21.9812 8.95359 21.9087 9.108 21.7767C9.26241 21.6448 9.36468 21.4621 9.39642 21.2615L9.43095 21.0808L10.0992 16.8458L10.1422 16.6117C10.174 16.4111 10.2762 16.2284 10.4306 16.0965C10.585 15.9646 10.7814 15.8921 10.9845 15.892H11.5151C14.9497 15.892 17.639 14.4967 18.4249 10.4612C18.7529 8.77476 18.5832 7.36676 17.7154 6.37778C17.4522 6.07823 17.1253 5.83084 16.7446 5.62891C16.724 5.7593 16.7016 5.89145 16.6749 6.02789Z" fill="#2790C3"/>
        <path d="M15.804 5.25477C15.664 5.21388 15.5226 5.17768 15.3802 5.14623C15.231 5.11344 15.081 5.08492 14.9302 5.06071C14.3905 4.97336 13.8011 4.93213 13.168 4.93213H7.82761C7.70016 4.93184 7.57431 4.96046 7.45952 5.01583C7.33468 5.07543 7.22624 5.16455 7.14361 5.27549C7.06098 5.38643 7.00663 5.51585 6.98528 5.65252L5.85016 12.8497L5.81738 13.0595C5.89205 12.5859 6.29708 12.2366 6.77679 12.2366H8.77602C12.7024 12.2366 15.7767 10.6419 16.6747 6.02849C16.7015 5.89204 16.7239 5.75983 16.7445 5.6295C16.5171 5.50945 16.271 5.40571 16.0059 5.31779C15.939 5.29561 15.8717 5.2746 15.8041 5.25477" fill="#1F264F"/>
    </g>
    <defs>
        <clipPath id="clip0">
            <rect width="18.649" height="22" fill="white"/>
        </clipPath>
    </defs>
</svg>
