<svg width="276" height="163" viewBox="0 0 276 163" fill="none" xmlns="http://www.w3.org/2000/svg">
    <g filter="url(#filter0_d)">
        <rect x="3" y="1" width="266" height="153" fill="#F9F9F9"/>
    </g>
    <circle cx="136" cy="78" r="45" fill="#21AEFE"/>
    <path d="M106.454 85.5338V71.4039H109.516V83.0596H115.372V85.5338H106.454Z" fill="white"/>
    <path d="M132.413 78.4495C132.413 80.7884 131.82 82.5861 130.635 83.8425C129.45 85.0989 127.751 85.7271 125.539 85.7271C123.327 85.7271 121.628 85.0989 120.443 83.8425C119.257 82.5861 118.665 80.782 118.665 78.4302C118.665 76.0784 119.257 74.284 120.443 73.0469C121.634 71.8034 123.34 71.1816 125.559 71.1816C127.777 71.1816 129.473 71.8066 130.645 73.0566C131.823 74.3066 132.413 76.1042 132.413 78.4495ZM121.875 78.4495C121.875 80.0281 122.181 81.2169 122.793 82.0158C123.406 82.8148 124.321 83.2143 125.539 83.2143C127.982 83.2143 129.203 81.626 129.203 78.4495C129.203 75.2666 127.988 73.6751 125.559 73.6751C124.34 73.6751 123.422 74.0778 122.803 74.8832C122.184 75.6822 121.875 76.871 121.875 78.4495Z" fill="white"/>
    <path d="M142.303 77.599H148.031V84.9249C147.102 85.2213 146.227 85.4275 145.404 85.5435C144.587 85.6659 143.751 85.7271 142.895 85.7271C140.716 85.7271 139.05 85.1021 137.898 83.8521C136.752 82.5957 136.179 80.7948 136.179 78.4495C136.179 76.1687 136.844 74.3903 138.174 73.1146C139.511 71.8388 141.361 71.201 143.725 71.201C145.206 71.201 146.635 71.4909 148.011 72.0708L146.994 74.4677C145.94 73.9522 144.844 73.6945 143.705 73.6945C142.382 73.6945 141.322 74.1294 140.525 74.9992C139.728 75.869 139.33 77.0385 139.33 78.5075C139.33 80.041 139.649 81.2137 140.288 82.0255C140.933 82.8309 141.868 83.2336 143.093 83.2336C143.731 83.2336 144.38 83.1692 145.038 83.0403V80.0925H142.303V77.599Z" fill="white"/>
    <path d="M166 78.4495C166 80.7884 165.407 82.5861 164.222 83.8425C163.037 85.0989 161.338 85.7271 159.126 85.7271C156.913 85.7271 155.215 85.0989 154.029 83.8425C152.844 82.5861 152.252 80.782 152.252 78.4302C152.252 76.0784 152.844 74.284 154.029 73.0469C155.221 71.8034 156.926 71.1816 159.145 71.1816C161.364 71.1816 163.06 71.8066 164.232 73.0566C165.41 74.3066 166 76.1042 166 78.4495ZM155.461 78.4495C155.461 80.0281 155.768 81.2169 156.38 82.0158C156.992 82.8148 157.908 83.2143 159.126 83.2143C161.568 83.2143 162.79 81.626 162.79 78.4495C162.79 75.2666 161.575 73.6751 159.145 73.6751C157.927 73.6751 157.009 74.0778 156.39 74.8832C155.771 75.6822 155.461 76.871 155.461 78.4495Z" fill="white"/>
    <path d="M199 154L269 1V60.5L229.5 154H199Z" fill="#ECECEC"/>
    <path d="M247.5 154L269 98.5V154H262H247.5Z" fill="#ECECEC"/>
    <path d="M73 0.999939L3 154L3.00001 94.5L42.5 0.999936L73 0.999939Z" fill="#ECECEC"/>
    <path d="M24.5 0.999939L3 56.5L3 0.999937L10 0.999938L24.5 0.999939Z" fill="#ECECEC"/>
    <defs>
        <filter id="filter0_d" x="0" y="0" width="276" height="163" filterUnits="userSpaceOnUse" color-interpolation-filters="sRGB">
            <feFlood flood-opacity="0" result="BackgroundImageFix"/>
            <feColorMatrix in="SourceAlpha" type="matrix" values="0 0 0 0 0 0 0 0 0 0 0 0 0 0 0 0 0 0 127 0"/>
            <feOffset dx="2" dy="4"/>
            <feGaussianBlur stdDeviation="2.5"/>
            <feColorMatrix type="matrix" values="0 0 0 0 0 0 0 0 0 0 0 0 0 0 0 0 0 0 0.26 0"/>
            <feBlend mode="normal" in2="BackgroundImageFix" result="effect1_dropShadow"/>
            <feBlend mode="normal" in="SourceGraphic" in2="effect1_dropShadow" result="shape"/>
        </filter>
    </defs>
</svg>
