<svg width="122" height="71" viewBox="0 0 122 71" fill="none" xmlns="http://www.w3.org/2000/svg">
<path fill-rule="evenodd" clip-rule="evenodd" d="M1.95557 52.0302C5.08205 43.8488 13.7404 40.9615 21.4337 45.8951L54.7379 69.1139H14.3504C5.93788 69.1139 -0.675587 61.4131 1.96835 52.0284" fill="black"/>
<path fill-rule="evenodd" clip-rule="evenodd" d="M1.95557 52.0302C5.08205 43.8488 13.7404 40.9615 21.4337 45.8951L54.7379 69.1139H14.3504C5.93788 69.1139 -0.675587 61.4131 1.96835 52.0284" fill="black"/>
<path fill-rule="evenodd" clip-rule="evenodd" d="M35.6221 25.2378L52.815 64.5845L17.3476 40.2807C8.44887 34.3822 10.2534 24.2784 15.1807 19.8236C22.1547 13.9251 32.0149 15.9641 35.6221 25.2305" fill="black"/>
<path fill-rule="evenodd" clip-rule="evenodd" d="M59.3066 16.2572L53.0555 60.2954L35.2616 18.4236C31.4141 7.95566 40.0688 1.0996 45.841 0.977628C52.4545 0.256705 60.7505 5.31045 59.3084 16.259" fill="black"/>
<path fill-rule="evenodd" clip-rule="evenodd" d="M86.4816 18.3928L68.8061 60.3865L63.1577 22.4835C62.6752 16.7124 66.2823 16.5905 67.6061 15.5073C67.364 14.6644 65.5595 14.6644 65.5595 14.6644H62.1945C61.8339 4.79719 69.529 0.46437 75.7819 0.946806C82.5138 1.18711 90.0869 9.00803 86.4816 18.3928Z" fill="black"/>
<path fill-rule="evenodd" clip-rule="evenodd" d="M104.406 40.3554L68.939 64.7812L85.6493 25.9169C90.7023 13.643 102.484 16.0497 106.692 20.743C111.262 25.3125 112.582 34.5789 104.406 40.3554Z" fill="black"/>
<path fill-rule="evenodd" clip-rule="evenodd" d="M108.249 68.9975H67.2511L100.555 45.775C108.731 40.359 117.388 45.2908 119.671 52.3926C122.087 60.33 116.667 68.9957 108.254 68.9957" fill="black"/>
</svg>
