<svg width="20" height="20" viewBox="0 0 20 20" fill="none" xmlns="http://www.w3.org/2000/svg">
<path d="M11.4233 16.3467H12.6206V17.6202H11.4233V16.3467Z" fill="white"/>
<path d="M4.21905 0H6.425H13.5749H15.7809C18.0812 0 19.9526 1.87143 19.9526 4.17177V15.8282C19.9526 18.1286 18.0812 20 15.7809 20H12.8101H7.03129H4.2191C1.91881 20 0.0473328 18.1286 0.0473328 15.8282V4.17177C0.0472832 1.87143 1.91876 0 4.21905 0ZM6.425 1.5282C5.69381 1.5282 5.09904 2.01426 5.09904 2.61169V8.88034C5.09904 9.47782 5.69386 9.96388 6.425 9.96388H13.5749C14.3061 9.96388 14.9009 9.47782 14.9009 8.88034V2.61169C14.9009 2.01426 14.306 1.5282 13.5749 1.5282H6.425ZM12.81 18.4718C13.1288 18.4718 13.3883 18.2124 13.3883 17.8936V16.362C13.3883 16.0432 13.1288 15.7838 12.81 15.7838H7.03124C6.7124 15.7838 6.45302 16.0432 6.45302 16.362V17.8936C6.45302 18.2124 6.7124 18.4718 7.03124 18.4718H12.81ZM1.57548 15.8282C1.57548 17.2859 2.76136 18.4718 4.21905 18.4718H5.00618C4.9536 18.2879 4.92482 18.0941 4.92482 17.8936V16.362C4.92482 15.2006 5.86976 14.2556 7.03124 14.2556H12.81C13.9715 14.2556 14.9165 15.2006 14.9165 16.362V17.8936C14.9165 18.0941 14.8877 18.288 14.8351 18.4718H15.7809C17.2386 18.4718 18.4244 17.2859 18.4244 15.8282V4.17177C18.4244 2.85192 17.4522 1.75498 16.1862 1.55932C16.3419 1.88146 16.4291 2.23733 16.4291 2.61169V8.88034C16.4291 10.3205 15.1487 11.4921 13.5749 11.4921H6.425C4.85116 11.4921 3.57084 10.3205 3.57084 8.88034V2.61169C3.57084 2.23738 3.658 1.88151 3.81367 1.55932C2.54777 1.75498 1.57548 2.85192 1.57548 4.17177V15.8282Z" fill="white"/>
</svg>
