<svg width="11" height="19" viewBox="0 0 11 19" fill="none" xmlns="http://www.w3.org/2000/svg">
<g clip-path="url(#clip0)">
<path d="M0.748633 15.7456L6.67641 9.50993L0.748633 3.27422C0.607189 3.12542 0.494989 2.94878 0.41844 2.75438C0.341891 2.55997 0.30249 2.35161 0.30249 2.14118C0.30249 1.93076 0.341891 1.72239 0.41844 1.52799C0.494989 1.33358 0.607189 1.15694 0.748633 1.00814C0.890078 0.859352 1.058 0.741325 1.2428 0.660799C1.42761 0.580273 1.62568 0.538828 1.82572 0.538828C2.02575 0.538828 2.22382 0.580273 2.40863 0.660799C2.59344 0.741325 2.76135 0.859352 2.9028 1.00814L9.9153 8.38493C10.0569 8.53361 10.1693 8.71022 10.246 8.90464C10.3226 9.09906 10.3621 9.30748 10.3621 9.51797C10.3621 9.72845 10.3226 9.93687 10.246 10.1313C10.1693 10.3257 10.0569 10.5023 9.9153 10.651L2.9028 18.0278C2.76146 18.1768 2.59357 18.295 2.40875 18.3756C2.22393 18.4563 2.02581 18.4978 1.82572 18.4978C1.62563 18.4978 1.4275 18.4563 1.24268 18.3756C1.05786 18.295 0.889973 18.1768 0.748633 18.0278C0.168078 17.401 0.1528 16.3724 0.748633 15.7456Z" fill="white"/>
</g>
<defs>
<clipPath id="clip0">
<rect width="18" height="11" fill="white" transform="translate(0 18.5099) rotate(-90)"/>
</clipPath>
</defs>
</svg>
