<svg width="11" height="19" viewBox="0 0 11 19" fill="none" xmlns="http://www.w3.org/2000/svg">
<g clip-path="url(#clip0)">
<path d="M10.2514 3.27425L4.32359 9.50997L10.2514 15.7457C10.3928 15.8945 10.505 16.0711 10.5816 16.2655C10.6581 16.4599 10.6975 16.6683 10.6975 16.8787C10.6975 17.0891 10.6581 17.2975 10.5816 17.4919C10.505 17.6863 10.3928 17.863 10.2514 18.0118C10.1099 18.1605 9.942 18.2786 9.7572 18.3591C9.57239 18.4396 9.37432 18.4811 9.17428 18.4811C8.97425 18.4811 8.77618 18.4396 8.59137 18.3591C8.40656 18.2786 8.23864 18.1605 8.0972 18.0118L1.0847 10.635C0.943071 10.4863 0.830706 10.3097 0.75404 10.1153C0.677374 9.92083 0.637911 9.71242 0.637911 9.50193C0.637911 9.29145 0.677374 9.08303 0.75404 8.88861C0.830706 8.69418 0.943071 8.51758 1.0847 8.36889L8.0972 0.992109C8.23854 0.843121 8.40643 0.724919 8.59125 0.644271C8.77607 0.563622 8.97419 0.52211 9.17428 0.52211C9.37437 0.52211 9.5725 0.563622 9.75732 0.644271C9.94214 0.72492 10.11 0.843121 10.2514 0.992109C10.8319 1.61889 10.8472 2.64747 10.2514 3.27425Z" fill="white"/>
</g>
<defs>
<clipPath id="clip0">
<rect width="18" height="11" fill="white" transform="translate(11 0.509949) rotate(90)"/>
</clipPath>
</defs>
</svg>
