<svg width="118" height="119" viewBox="0 0 118 119" fill="none" xmlns="http://www.w3.org/2000/svg">
<g filter="url(#filter0_ddd)">
<path d="M57.1366 15.9864C58.2313 14.8899 60.0081 14.8899 61.1028 15.9864L62.9939 17.8808C63.8274 18.7157 65.0946 18.9391 66.1634 18.4396L68.5884 17.3064C69.9921 16.6504 71.6618 17.2581 72.3154 18.6629L73.4446 21.0898C73.9423 22.1594 75.0566 22.8028 76.2318 22.699L78.8982 22.4634C80.4416 22.3271 81.8027 23.4692 81.9364 25.0128L82.1675 27.6796C82.2693 28.855 83.0964 29.8406 84.2362 30.145L86.8223 30.8356C88.3193 31.2354 89.2077 32.7742 88.8054 34.2705L88.1105 36.8554C87.8042 37.9947 88.2442 39.2038 89.2112 39.8797L91.4052 41.4132C92.6751 42.3008 92.9837 44.0506 92.0939 45.3191L90.5567 47.5105C89.8792 48.4763 89.8792 49.763 90.5567 50.7288L92.0939 52.9202C92.9837 54.1887 92.6751 55.9385 91.4052 56.8261L89.2112 58.3596C88.2442 59.0355 87.8042 60.2446 88.1105 61.3839L88.8054 63.9689C89.2077 65.4652 88.3193 67.0039 86.8223 67.4037L84.2362 68.0943C83.0964 68.3987 82.2693 69.3844 82.1675 70.5597L81.9364 73.2265C81.8027 74.7701 80.4416 75.9122 78.8982 75.7759L76.2318 75.5404C75.0566 75.4365 73.9423 76.0799 73.4446 77.1495L72.3154 79.5765C71.6618 80.9813 69.9921 81.589 68.5884 80.933L66.1634 79.7997C65.0946 79.3002 63.8274 79.5236 62.9939 80.3585L61.1027 82.2529C60.0081 83.3494 58.2313 83.3494 57.1366 82.2529L55.2454 80.3585C54.4119 79.5236 53.1447 79.3002 52.0759 79.7997L49.6509 80.933C48.2472 81.589 46.5776 80.9813 45.9239 79.5765L44.7947 77.1495C44.297 76.0799 43.1827 75.4365 42.0075 75.5404L39.3412 75.7759C37.7977 75.9122 36.4366 74.7701 36.3029 73.2265L36.0718 70.5597C35.97 69.3844 35.1429 68.3987 34.0031 68.0943L31.417 67.4037C29.92 67.0039 29.0316 65.4652 29.4339 63.9689L30.1289 61.3839C30.4352 60.2446 29.9951 59.0355 29.0281 58.3596L26.8342 56.8261C25.5642 55.9385 25.2557 54.1887 26.1454 52.9202L27.6826 50.7288C28.3601 49.763 28.3601 48.4763 27.6826 47.5105L26.1454 45.3191C25.2557 44.0506 25.5642 42.3008 26.8342 41.4132L29.0281 39.8797C29.9951 39.2038 30.4352 37.9947 30.1289 36.8554L29.4339 34.2705C29.0316 32.7742 29.92 31.2354 31.417 30.8356L34.0031 30.145C35.1429 29.8406 35.97 28.855 36.0718 27.6796L36.3029 25.0128C36.4366 23.4692 37.7977 22.3271 39.3412 22.4634L42.0075 22.699C43.1827 22.8028 44.297 22.1594 44.7947 21.0898L45.9239 18.6629C46.5776 17.2581 48.2472 16.6504 49.6509 17.3064L52.0759 18.4396C53.1447 18.9391 54.4119 18.7157 55.2454 17.8808L57.1366 15.9864Z" fill="#363636"/>
<path d="M62.872 14.2202C60.8007 12.1453 57.4387 12.1453 55.3673 14.2202L53.4762 16.1145C53.3863 16.2045 53.2496 16.2286 53.1344 16.1748L50.7094 15.0415C48.0533 13.8002 44.8941 14.9501 43.6573 17.6082L42.5281 20.0352C42.4744 20.1505 42.3543 20.2199 42.2275 20.2087L39.5612 19.9731C36.6407 19.7151 34.0653 21.8762 33.8122 24.797L33.5812 27.4638C33.5702 27.5906 33.481 27.6968 33.3581 27.7297L30.772 28.4203C27.9394 29.1767 26.2584 32.0883 27.0196 34.9195L27.7146 37.5045C27.7476 37.6274 27.7002 37.7577 27.5959 37.8306L25.4019 39.3641C22.9989 41.0437 22.4151 44.3546 24.0988 46.7548L25.6359 48.9461C25.709 49.0503 25.709 49.189 25.6359 49.2932L24.0988 51.4846C22.4151 53.8847 22.9989 57.1957 25.4019 58.8752L27.5959 60.4087C27.7002 60.4816 27.7476 60.612 27.7146 60.7348L27.0196 63.3198C26.2584 66.151 27.9394 69.0626 30.772 69.819L33.3581 70.5097C33.481 70.5425 33.5702 70.6488 33.5812 70.7755L33.8122 73.4423C34.0653 76.3631 36.6407 78.5242 39.5612 78.2662L42.2275 78.0307C42.3543 78.0195 42.4744 78.0888 42.5281 78.2042L43.6573 80.6311C44.8941 83.2892 48.0533 84.4391 50.7094 83.1979L53.1344 82.0646C53.2496 82.0107 53.3863 82.0348 53.4762 82.1248L55.3673 84.0192C57.4387 86.094 60.8007 86.094 62.872 84.0192L64.7632 82.1248C64.853 82.0348 64.9897 82.0107 65.1049 82.0646L67.5299 83.1979C70.186 84.4391 73.3453 83.2892 74.582 80.6311L75.7113 78.2042C75.7649 78.0888 75.8851 78.0195 76.0118 78.0307L78.6782 78.2662C81.5986 78.5242 84.174 76.3631 84.4271 73.4423L84.6581 70.7755C84.6691 70.6488 84.7583 70.5425 84.8812 70.5097L87.4673 69.819C90.2999 69.0626 91.9809 66.1511 91.2197 63.3198L90.5247 60.7348C90.4917 60.612 90.5392 60.4816 90.6434 60.4087L92.8374 58.8752C95.2404 57.1957 95.8242 53.8847 94.1406 51.4846L92.6034 49.2932C92.5303 49.189 92.5303 49.0503 92.6034 48.9462L94.1406 46.7548C95.8242 44.3546 95.2404 41.0437 92.8374 39.3641L90.6434 37.8306C90.5391 37.7577 90.4917 37.6274 90.5247 37.5045L91.2197 34.9195C91.9809 32.0883 90.2999 29.1767 87.4674 28.4203L84.8812 27.7297C84.7583 27.6968 84.6691 27.5906 84.6581 27.4638L84.4271 24.797C84.174 21.8762 81.5986 19.7151 78.6782 19.9731L76.0118 20.2087C75.8851 20.2199 75.7649 20.1505 75.7113 20.0352L74.582 17.6082C73.3453 14.9501 70.186 13.8002 67.5299 15.0415L65.1049 16.1748C64.9897 16.2286 64.853 16.2045 64.7632 16.1145L62.872 14.2202Z" stroke="white" stroke-width="5"/>
</g>
<defs>
<filter id="filter0_ddd" x="0.636597" y="0.164062" width="116.966" height="117.911" filterUnits="userSpaceOnUse" color-interpolation-filters="sRGB">
<feFlood flood-opacity="0" result="BackgroundImageFix"/>
<feColorMatrix in="SourceAlpha" type="matrix" values="0 0 0 0 0 0 0 0 0 0 0 0 0 0 0 0 0 0 127 0"/>
<feOffset/>
<feGaussianBlur stdDeviation="0.5"/>
<feColorMatrix type="matrix" values="0 0 0 0 0 0 0 0 0 0 0 0 0 0 0 0 0 0 0.04 0"/>
<feBlend mode="normal" in2="BackgroundImageFix" result="effect1_dropShadow"/>
<feColorMatrix in="SourceAlpha" type="matrix" values="0 0 0 0 0 0 0 0 0 0 0 0 0 0 0 0 0 0 127 0"/>
<feOffset dy="2"/>
<feGaussianBlur stdDeviation="3"/>
<feColorMatrix type="matrix" values="0 0 0 0 0 0 0 0 0 0 0 0 0 0 0 0 0 0 0.04 0"/>
<feBlend mode="normal" in2="effect1_dropShadow" result="effect2_dropShadow"/>
<feColorMatrix in="SourceAlpha" type="matrix" values="0 0 0 0 0 0 0 0 0 0 0 0 0 0 0 0 0 0 127 0"/>
<feOffset dy="10"/>
<feGaussianBlur stdDeviation="10"/>
<feColorMatrix type="matrix" values="0 0 0 0 0 0 0 0 0 0 0 0 0 0 0 0 0 0 0.04 0"/>
<feBlend mode="normal" in2="effect2_dropShadow" result="effect3_dropShadow"/>
<feBlend mode="normal" in="SourceGraphic" in2="effect3_dropShadow" result="shape"/>
</filter>
</defs>
</svg>
