<svg width="151" height="43" viewBox="0 0 151 43" fill="none" xmlns="http://www.w3.org/2000/svg">
<g clip-path="url(#clip0)">
<path fill-rule="evenodd" clip-rule="evenodd" d="M122.241 32.5177C122.207 32.205 122.182 31.8914 122.166 31.5773C121.911 27.244 123.478 23.2616 126.868 19.6344C130.507 15.6048 135.081 13.5894 140.593 13.5894C144.13 13.5894 146.809 14.7754 148.63 17.1417C150.35 19.3098 151.133 22.1048 150.982 25.5295C150.778 30.1652 149.061 34.1711 145.824 37.5459C142.59 40.9221 138.57 42.6088 133.767 42.6088C129.774 42.6088 126.74 41.3244 124.668 38.7527C124.2 38.1624 123.796 37.5245 123.461 36.8496C122.898 37.1977 122.328 37.5339 121.75 37.858C116.392 40.9332 110.956 42.4674 105.446 42.4674C101.351 42.4674 98.4174 41.1052 96.6497 38.3824C96.5203 38.1915 96.3974 37.9962 96.2812 37.797C96.2273 37.8448 96.1733 37.8924 96.1191 37.9399C92.7306 40.8639 89.3449 42.3259 85.9578 42.3259C82.669 42.3259 81.0787 40.5129 81.1784 36.8801C81.2283 35.2655 81.5455 33.3264 82.126 31.0571C82.7078 28.7878 83.0237 27.022 83.0749 25.7612C83.1262 23.847 82.543 22.8857 81.3239 22.8857C80.0051 22.8857 78.4341 24.4531 76.6083 27.5796C74.6799 30.8601 73.6381 34.038 73.4885 37.1146C73.386 39.2867 73.5993 40.9526 74.1258 42.1123C70.5987 42.2135 68.1273 41.6323 66.7171 40.3701C65.455 39.2604 64.8746 37.4211 64.9785 34.8453C65.0307 33.2066 65.2805 31.5802 65.7224 30.0015C66.1671 28.3869 66.4151 26.9499 66.4663 25.6876C66.5688 23.8192 65.8845 22.8857 64.416 22.8857C63.1485 22.8857 61.7812 24.3255 60.3155 27.201C58.8471 30.0764 58.0366 33.0809 57.8856 36.2088C57.7845 39.0343 57.966 41.0012 58.4287 42.1123C54.9585 42.2135 52.494 41.4825 51.0352 39.9207C50.3703 39.2021 49.9034 38.2769 49.6361 37.1437C49.3521 37.4128 49.0611 37.6791 48.7619 37.9399C45.3734 40.8639 41.9877 42.3259 38.6006 42.3259C37.031 42.3259 35.8299 41.8224 34.9974 40.8139C34.1634 39.8041 33.7714 38.4947 33.8226 36.8801C33.8711 35.217 34.3906 32.6453 35.3756 29.1651C36.3619 25.6863 36.8565 23.8192 36.8565 23.5668C36.8565 22.2574 36.3993 21.6013 35.4919 21.6013C35.2052 21.6013 34.4252 22.0729 33.1507 23.0106C32.1907 25.8777 30.0961 29.3843 26.8683 33.5303C22.276 39.4879 18.3915 42.4674 15.2136 42.4674C13.2464 42.4674 11.5785 40.6544 10.2181 37.0244L7.49459 27.0442C6.4833 23.417 5.39998 21.6013 4.24047 21.6013C3.98834 21.6013 3.1045 22.1325 1.59035 23.1895L0 21.1449C1.65422 19.6951 3.29725 18.2326 4.92897 16.7575C7.15103 14.8392 8.82034 13.8307 9.93275 13.7295C12.5607 13.477 14.1788 15.2705 14.7855 19.1114C15.4422 23.2533 15.8966 25.8305 16.1515 26.8375C16.9092 30.2762 17.7418 31.992 18.6533 31.992C19.3599 31.992 20.421 30.8782 21.8368 28.6491C23.2512 26.4186 24.009 24.7222 24.1115 23.5557C24.3138 21.6318 23.556 20.6677 21.8368 20.6677C21.0292 20.6677 20.1952 20.8536 19.3377 21.2212C20.9973 15.7921 24.1683 13.1566 28.8493 13.3064C31.9746 13.398 33.612 15.2303 33.7617 18.8007L36.0183 16.7575C38.1933 14.8392 39.8114 13.8307 40.8753 13.7295C42.5418 13.5783 43.7678 14.0679 44.5519 15.1998C45.3332 16.3317 45.6242 17.8006 45.4247 19.6108C44.7667 22.679 44.0574 26.574 43.2996 31.2971C43.2483 33.4609 44.0338 34.5401 45.6505 34.5401C46.357 34.5401 47.6204 33.7952 49.4421 32.2999L49.51 32.2445C49.625 31.1903 49.812 29.9391 50.071 28.4882C50.4866 26.1482 50.7194 24.3269 50.7692 23.0161C50.869 22.1117 50.6404 21.6581 50.0863 21.6581C49.7815 21.6581 48.9226 22.17 47.5068 23.1895L45.6865 21.1463C45.94 20.9466 47.5304 19.4818 50.4659 16.7575C52.5882 14.7906 54.0289 13.7822 54.7867 13.7309C56.1013 13.6296 57.1625 14.172 57.9715 15.3565C58.7806 16.5425 59.1851 17.9185 59.1851 19.4818C59.1851 19.9867 59.1352 20.4666 59.0355 20.9202C59.769 19.7874 60.6631 18.7674 61.6897 17.8922C64.0143 15.8739 66.6187 14.7379 69.5002 14.4855C71.9771 14.2843 73.7448 14.8641 74.8101 16.2263C75.6676 17.3359 76.0708 18.9269 76.0223 20.9951C76.4043 20.6696 76.7838 20.3413 77.161 20.0103C78.3219 18.6481 79.4593 17.5648 80.5717 16.7575C82.4418 15.3954 84.3896 14.638 86.4108 14.4855C88.8379 14.2843 90.5806 14.8614 91.6432 16.2193C92.5519 17.3262 92.9578 18.9103 92.8581 20.9687C92.8068 22.3766 92.4646 24.4254 91.8329 27.115C91.1998 29.8059 90.8854 31.3484 90.8854 31.7506C90.8341 32.809 90.9366 33.5358 91.1901 33.9381C91.4409 34.3404 92.0463 34.5401 93.0091 34.5401C93.4399 34.5401 94.0799 34.2627 94.9277 33.7051C94.8466 33.0472 94.8133 32.3842 94.828 31.7215C94.8765 27.6365 96.6982 23.7526 100.289 20.0685C104.23 16.0335 108.882 14.0138 114.242 14.0138C119.196 14.0138 121.825 16.0293 122.129 20.0546C122.329 22.6208 120.914 25.2632 117.883 27.9819C114.645 30.9531 110.574 32.8395 105.671 33.644C106.58 34.9035 107.944 35.5305 109.766 35.5305C113.405 35.5305 117.374 34.6095 121.674 32.7605C121.865 32.68 122.054 32.5982 122.239 32.5177H122.241ZM142.411 25.2438C142.464 23.8789 142.272 22.6277 141.843 21.4903C141.414 20.3529 140.793 19.7842 139.985 19.7842C137.406 19.7842 135.282 21.174 133.617 23.9552C132.198 26.23 131.441 28.6574 131.341 31.2333C131.29 32.4983 131.518 33.6107 132.022 34.5706C132.577 35.6845 133.361 36.2393 134.373 36.2393C136.648 36.2393 138.596 34.9007 140.214 32.2195C141.578 29.9946 142.31 27.6698 142.412 25.2438H142.411ZM113.181 22.6998C113.229 21.346 112.675 20.6677 111.514 20.6677C109.999 20.6677 108.461 21.7095 106.896 23.7929C105.33 25.8763 104.522 27.8709 104.474 29.7782C104.445 29.7782 104.445 30.1056 104.474 30.7575C106.904 29.8825 109.104 28.4668 110.909 26.617C112.372 25.0121 113.129 23.7041 113.181 22.6998ZM48.0028 3.76458C47.9529 5.02129 47.3212 6.22668 46.1063 7.38074C44.7417 8.686 43.1237 9.33932 41.2535 9.33932C38.372 9.33932 36.9811 8.084 37.0823 5.57336C37.1308 4.26948 37.9024 3.01277 39.3944 1.80739C40.885 0.603387 42.5404 0 44.3621 0C45.4233 0 46.3085 0.416129 47.0178 1.24284C47.7243 2.07232 48.0526 2.9129 48.0028 3.76458Z" fill="#1A2E3A"/>
</g>
<defs>
<clipPath id="clip0">
<rect width="151" height="43" fill="white"/>
</clipPath>
</defs>
</svg>
